<?xml version="1.0" encoding="utf-8"?>
<svg xmlns="http://www.w3.org/2000/svg" xmlns:xlink="http://www.w3.org/1999/xlink" width="600" height="400" viewBox="0 0 2400 1600">
<defs>
  <clipPath id="clip640">
    <rect x="0" y="0" width="2400" height="1600"/>
  </clipPath>
</defs>
<path clip-path="url(#clip640)" d="
M0 1600 L2400 1600 L2400 0 L0 0  Z
  " fill="#ffffff" fill-rule="evenodd" fill-opacity="1"/>
<defs>
  <clipPath id="clip641">
    <rect x="480" y="0" width="1681" height="1600"/>
  </clipPath>
</defs>
<path clip-path="url(#clip640)" d="
M211.602 1423.18 L2352.76 1423.18 L2352.76 47.2441 L211.602 47.2441  Z
  " fill="#ffffff" fill-rule="evenodd" fill-opacity="1"/>
<defs>
  <clipPath id="clip642">
    <rect x="211" y="47" width="2142" height="1377"/>
  </clipPath>
</defs>
<polyline clip-path="url(#clip642)" style="stroke:#000000; stroke-width:2; stroke-opacity:0.1; fill:none" points="
  246.632,1423.18 246.632,47.2441 
  "/>
<polyline clip-path="url(#clip642)" style="stroke:#000000; stroke-width:2; stroke-opacity:0.1; fill:none" points="
  553.461,1423.18 553.461,47.2441 
  "/>
<polyline clip-path="url(#clip642)" style="stroke:#000000; stroke-width:2; stroke-opacity:0.1; fill:none" points="
  860.29,1423.18 860.29,47.2441 
  "/>
<polyline clip-path="url(#clip642)" style="stroke:#000000; stroke-width:2; stroke-opacity:0.1; fill:none" points="
  1167.12,1423.18 1167.12,47.2441 
  "/>
<polyline clip-path="url(#clip642)" style="stroke:#000000; stroke-width:2; stroke-opacity:0.1; fill:none" points="
  1473.95,1423.18 1473.95,47.2441 
  "/>
<polyline clip-path="url(#clip642)" style="stroke:#000000; stroke-width:2; stroke-opacity:0.1; fill:none" points="
  1780.78,1423.18 1780.78,47.2441 
  "/>
<polyline clip-path="url(#clip642)" style="stroke:#000000; stroke-width:2; stroke-opacity:0.1; fill:none" points="
  2087.6,1423.18 2087.6,47.2441 
  "/>
<polyline clip-path="url(#clip640)" style="stroke:#000000; stroke-width:4; stroke-opacity:1; fill:none" points="
  211.602,1423.18 2352.76,1423.18 
  "/>
<polyline clip-path="url(#clip640)" style="stroke:#000000; stroke-width:4; stroke-opacity:1; fill:none" points="
  246.632,1423.18 246.632,1406.67 
  "/>
<polyline clip-path="url(#clip640)" style="stroke:#000000; stroke-width:4; stroke-opacity:1; fill:none" points="
  553.461,1423.18 553.461,1406.67 
  "/>
<polyline clip-path="url(#clip640)" style="stroke:#000000; stroke-width:4; stroke-opacity:1; fill:none" points="
  860.29,1423.18 860.29,1406.67 
  "/>
<polyline clip-path="url(#clip640)" style="stroke:#000000; stroke-width:4; stroke-opacity:1; fill:none" points="
  1167.12,1423.18 1167.12,1406.67 
  "/>
<polyline clip-path="url(#clip640)" style="stroke:#000000; stroke-width:4; stroke-opacity:1; fill:none" points="
  1473.95,1423.18 1473.95,1406.67 
  "/>
<polyline clip-path="url(#clip640)" style="stroke:#000000; stroke-width:4; stroke-opacity:1; fill:none" points="
  1780.78,1423.18 1780.78,1406.67 
  "/>
<polyline clip-path="url(#clip640)" style="stroke:#000000; stroke-width:4; stroke-opacity:1; fill:none" points="
  2087.6,1423.18 2087.6,1406.67 
  "/>
<path clip-path="url(#clip640)" d="M 0 0 M228.148 1452.37 Q224.537 1452.37 222.709 1455.94 Q220.903 1459.48 220.903 1466.61 Q220.903 1473.71 222.709 1477.28 Q224.537 1480.82 228.148 1480.82 Q231.783 1480.82 233.588 1477.28 Q235.417 1473.71 235.417 1466.61 Q235.417 1459.48 233.588 1455.94 Q231.783 1452.37 228.148 1452.37 M228.148 1448.67 Q233.958 1448.67 237.014 1453.27 Q240.093 1457.86 240.093 1466.61 Q240.093 1475.33 237.014 1479.94 Q233.958 1484.52 228.148 1484.52 Q222.338 1484.52 219.26 1479.94 Q216.204 1475.33 216.204 1466.61 Q216.204 1457.86 219.26 1453.27 Q222.338 1448.67 228.148 1448.67 Z" fill="#000000" fill-rule="evenodd" fill-opacity="1" /><path clip-path="url(#clip640)" d="M 0 0 M245.162 1477.97 L250.046 1477.97 L250.046 1483.85 L245.162 1483.85 L245.162 1477.97 Z" fill="#000000" fill-rule="evenodd" fill-opacity="1" /><path clip-path="url(#clip640)" d="M 0 0 M265.116 1452.37 Q261.505 1452.37 259.676 1455.94 Q257.87 1459.48 257.87 1466.61 Q257.87 1473.71 259.676 1477.28 Q261.505 1480.82 265.116 1480.82 Q268.75 1480.82 270.556 1477.28 Q272.384 1473.71 272.384 1466.61 Q272.384 1459.48 270.556 1455.94 Q268.75 1452.37 265.116 1452.37 M265.116 1448.67 Q270.926 1448.67 273.981 1453.27 Q277.06 1457.86 277.06 1466.61 Q277.06 1475.33 273.981 1479.94 Q270.926 1484.52 265.116 1484.52 Q259.306 1484.52 256.227 1479.94 Q253.171 1475.33 253.171 1466.61 Q253.171 1457.86 256.227 1453.27 Q259.306 1448.67 265.116 1448.67 Z" fill="#000000" fill-rule="evenodd" fill-opacity="1" /><path clip-path="url(#clip640)" d="M 0 0 M535.776 1452.37 Q532.165 1452.37 530.336 1455.94 Q528.53 1459.48 528.53 1466.61 Q528.53 1473.71 530.336 1477.28 Q532.165 1480.82 535.776 1480.82 Q539.41 1480.82 541.216 1477.28 Q543.044 1473.71 543.044 1466.61 Q543.044 1459.48 541.216 1455.94 Q539.41 1452.37 535.776 1452.37 M535.776 1448.67 Q541.586 1448.67 544.641 1453.27 Q547.72 1457.86 547.72 1466.61 Q547.72 1475.33 544.641 1479.94 Q541.586 1484.52 535.776 1484.52 Q529.966 1484.52 526.887 1479.94 Q523.831 1475.33 523.831 1466.61 Q523.831 1457.86 526.887 1453.27 Q529.966 1448.67 535.776 1448.67 Z" fill="#000000" fill-rule="evenodd" fill-opacity="1" /><path clip-path="url(#clip640)" d="M 0 0 M552.79 1477.97 L557.674 1477.97 L557.674 1483.85 L552.79 1483.85 L552.79 1477.97 Z" fill="#000000" fill-rule="evenodd" fill-opacity="1" /><path clip-path="url(#clip640)" d="M 0 0 M566.771 1479.92 L583.09 1479.92 L583.09 1483.85 L561.146 1483.85 L561.146 1479.92 Q563.808 1477.16 568.391 1472.53 Q572.998 1467.88 574.178 1466.54 Q576.424 1464.01 577.303 1462.28 Q578.206 1460.52 578.206 1458.83 Q578.206 1456.07 576.262 1454.34 Q574.34 1452.6 571.238 1452.6 Q569.039 1452.6 566.586 1453.37 Q564.155 1454.13 561.377 1455.68 L561.377 1450.96 Q564.202 1449.82 566.655 1449.25 Q569.109 1448.67 571.146 1448.67 Q576.516 1448.67 579.711 1451.35 Q582.905 1454.04 582.905 1458.53 Q582.905 1460.66 582.095 1462.58 Q581.308 1464.48 579.201 1467.07 Q578.623 1467.74 575.521 1470.96 Q572.419 1474.15 566.771 1479.92 Z" fill="#000000" fill-rule="evenodd" fill-opacity="1" /><path clip-path="url(#clip640)" d="M 0 0 M841.563 1452.37 Q837.952 1452.37 836.123 1455.94 Q834.318 1459.48 834.318 1466.61 Q834.318 1473.71 836.123 1477.28 Q837.952 1480.82 841.563 1480.82 Q845.197 1480.82 847.003 1477.28 Q848.831 1473.71 848.831 1466.61 Q848.831 1459.48 847.003 1455.94 Q845.197 1452.37 841.563 1452.37 M841.563 1448.67 Q847.373 1448.67 850.429 1453.27 Q853.507 1457.86 853.507 1466.61 Q853.507 1475.33 850.429 1479.94 Q847.373 1484.52 841.563 1484.52 Q835.753 1484.52 832.674 1479.94 Q829.618 1475.33 829.618 1466.61 Q829.618 1457.86 832.674 1453.27 Q835.753 1448.67 841.563 1448.67 Z" fill="#000000" fill-rule="evenodd" fill-opacity="1" /><path clip-path="url(#clip640)" d="M 0 0 M858.577 1477.97 L863.461 1477.97 L863.461 1483.85 L858.577 1483.85 L858.577 1477.97 Z" fill="#000000" fill-rule="evenodd" fill-opacity="1" /><path clip-path="url(#clip640)" d="M 0 0 M881.377 1453.37 L869.572 1471.81 L881.377 1471.81 L881.377 1453.37 M880.151 1449.29 L886.03 1449.29 L886.03 1471.81 L890.961 1471.81 L890.961 1475.7 L886.03 1475.7 L886.03 1483.85 L881.377 1483.85 L881.377 1475.7 L865.776 1475.7 L865.776 1471.19 L880.151 1449.29 Z" fill="#000000" fill-rule="evenodd" fill-opacity="1" /><path clip-path="url(#clip640)" d="M 0 0 M1148.55 1452.37 Q1144.94 1452.37 1143.11 1455.94 Q1141.31 1459.48 1141.31 1466.61 Q1141.31 1473.71 1143.11 1477.28 Q1144.94 1480.82 1148.55 1480.82 Q1152.19 1480.82 1153.99 1477.28 Q1155.82 1473.71 1155.82 1466.61 Q1155.82 1459.48 1153.99 1455.94 Q1152.19 1452.37 1148.55 1452.37 M1148.55 1448.67 Q1154.36 1448.67 1157.42 1453.27 Q1160.5 1457.86 1160.5 1466.61 Q1160.5 1475.33 1157.42 1479.94 Q1154.36 1484.52 1148.55 1484.52 Q1142.74 1484.52 1139.66 1479.94 Q1136.61 1475.33 1136.61 1466.61 Q1136.61 1457.86 1139.66 1453.27 Q1142.74 1448.67 1148.55 1448.67 Z" fill="#000000" fill-rule="evenodd" fill-opacity="1" /><path clip-path="url(#clip640)" d="M 0 0 M1165.57 1477.97 L1170.45 1477.97 L1170.45 1483.85 L1165.57 1483.85 L1165.57 1477.97 Z" fill="#000000" fill-rule="evenodd" fill-opacity="1" /><path clip-path="url(#clip640)" d="M 0 0 M1186.1 1464.71 Q1182.95 1464.71 1181.1 1466.86 Q1179.27 1469.01 1179.27 1472.76 Q1179.27 1476.49 1181.1 1478.67 Q1182.95 1480.82 1186.1 1480.82 Q1189.25 1480.82 1191.08 1478.67 Q1192.93 1476.49 1192.93 1472.76 Q1192.93 1469.01 1191.08 1466.86 Q1189.25 1464.71 1186.1 1464.71 M1195.38 1450.06 L1195.38 1454.31 Q1193.62 1453.48 1191.82 1453.04 Q1190.03 1452.6 1188.28 1452.6 Q1183.65 1452.6 1181.19 1455.73 Q1178.76 1458.85 1178.41 1465.17 Q1179.78 1463.16 1181.84 1462.09 Q1183.9 1461 1186.38 1461 Q1191.59 1461 1194.6 1464.18 Q1197.63 1467.32 1197.63 1472.76 Q1197.63 1478.09 1194.48 1481.31 Q1191.33 1484.52 1186.1 1484.52 Q1180.1 1484.52 1176.93 1479.94 Q1173.76 1475.33 1173.76 1466.61 Q1173.76 1458.41 1177.65 1453.55 Q1181.54 1448.67 1188.09 1448.67 Q1189.85 1448.67 1191.63 1449.01 Q1193.44 1449.36 1195.38 1450.06 Z" fill="#000000" fill-rule="evenodd" fill-opacity="1" /><path clip-path="url(#clip640)" d="M 0 0 M1455.51 1452.37 Q1451.9 1452.37 1450.07 1455.94 Q1448.26 1459.48 1448.26 1466.61 Q1448.26 1473.71 1450.07 1477.28 Q1451.9 1480.82 1455.51 1480.82 Q1459.14 1480.82 1460.95 1477.28 Q1462.78 1473.71 1462.78 1466.61 Q1462.78 1459.48 1460.95 1455.94 Q1459.14 1452.37 1455.51 1452.37 M1455.51 1448.67 Q1461.32 1448.67 1464.38 1453.27 Q1467.45 1457.86 1467.45 1466.61 Q1467.45 1475.33 1464.38 1479.94 Q1461.32 1484.52 1455.51 1484.52 Q1449.7 1484.52 1446.62 1479.94 Q1443.57 1475.33 1443.57 1466.61 Q1443.57 1457.86 1446.62 1453.27 Q1449.7 1448.67 1455.51 1448.67 Z" fill="#000000" fill-rule="evenodd" fill-opacity="1" /><path clip-path="url(#clip640)" d="M 0 0 M1472.52 1477.97 L1477.41 1477.97 L1477.41 1483.85 L1472.52 1483.85 L1472.52 1477.97 Z" fill="#000000" fill-rule="evenodd" fill-opacity="1" /><path clip-path="url(#clip640)" d="M 0 0 M1492.48 1467.44 Q1489.14 1467.44 1487.22 1469.22 Q1485.32 1471 1485.32 1474.13 Q1485.32 1477.25 1487.22 1479.04 Q1489.14 1480.82 1492.48 1480.82 Q1495.81 1480.82 1497.73 1479.04 Q1499.65 1477.23 1499.65 1474.13 Q1499.65 1471 1497.73 1469.22 Q1495.83 1467.44 1492.48 1467.44 M1487.8 1465.45 Q1484.79 1464.71 1483.1 1462.65 Q1481.44 1460.59 1481.44 1457.63 Q1481.44 1453.48 1484.38 1451.07 Q1487.34 1448.67 1492.48 1448.67 Q1497.64 1448.67 1500.58 1451.07 Q1503.52 1453.48 1503.52 1457.63 Q1503.52 1460.59 1501.83 1462.65 Q1500.16 1464.71 1497.18 1465.45 Q1500.56 1466.24 1502.43 1468.53 Q1504.33 1470.82 1504.33 1474.13 Q1504.33 1479.15 1501.25 1481.84 Q1498.19 1484.52 1492.48 1484.52 Q1486.76 1484.52 1483.68 1481.84 Q1480.63 1479.15 1480.63 1474.13 Q1480.63 1470.82 1482.52 1468.53 Q1484.42 1466.24 1487.8 1465.45 M1486.09 1458.06 Q1486.09 1460.75 1487.75 1462.25 Q1489.44 1463.76 1492.48 1463.76 Q1495.49 1463.76 1497.18 1462.25 Q1498.89 1460.75 1498.89 1458.06 Q1498.89 1455.38 1497.18 1453.88 Q1495.49 1452.37 1492.48 1452.37 Q1489.44 1452.37 1487.75 1453.88 Q1486.09 1455.38 1486.09 1458.06 Z" fill="#000000" fill-rule="evenodd" fill-opacity="1" /><path clip-path="url(#clip640)" d="M 0 0 M1752.67 1479.92 L1760.31 1479.92 L1760.31 1453.55 L1752 1455.22 L1752 1450.96 L1760.27 1449.29 L1764.94 1449.29 L1764.94 1479.92 L1772.58 1479.92 L1772.58 1483.85 L1752.67 1483.85 L1752.67 1479.92 Z" fill="#000000" fill-rule="evenodd" fill-opacity="1" /><path clip-path="url(#clip640)" d="M 0 0 M1777.65 1477.97 L1782.54 1477.97 L1782.54 1483.85 L1777.65 1483.85 L1777.65 1477.97 Z" fill="#000000" fill-rule="evenodd" fill-opacity="1" /><path clip-path="url(#clip640)" d="M 0 0 M1797.6 1452.37 Q1793.99 1452.37 1792.16 1455.94 Q1790.36 1459.48 1790.36 1466.61 Q1790.36 1473.71 1792.16 1477.28 Q1793.99 1480.82 1797.6 1480.82 Q1801.24 1480.82 1803.04 1477.28 Q1804.87 1473.71 1804.87 1466.61 Q1804.87 1459.48 1803.04 1455.94 Q1801.24 1452.37 1797.6 1452.37 M1797.6 1448.67 Q1803.41 1448.67 1806.47 1453.27 Q1809.55 1457.86 1809.55 1466.61 Q1809.55 1475.33 1806.47 1479.94 Q1803.41 1484.52 1797.6 1484.52 Q1791.79 1484.52 1788.72 1479.94 Q1785.66 1475.33 1785.66 1466.61 Q1785.66 1457.86 1788.72 1453.27 Q1791.79 1448.67 1797.6 1448.67 Z" fill="#000000" fill-rule="evenodd" fill-opacity="1" /><path clip-path="url(#clip640)" d="M 0 0 M2060.3 1479.92 L2067.94 1479.92 L2067.94 1453.55 L2059.63 1455.22 L2059.63 1450.96 L2067.89 1449.29 L2072.57 1449.29 L2072.57 1479.92 L2080.21 1479.92 L2080.21 1483.85 L2060.3 1483.85 L2060.3 1479.92 Z" fill="#000000" fill-rule="evenodd" fill-opacity="1" /><path clip-path="url(#clip640)" d="M 0 0 M2085.28 1477.97 L2090.16 1477.97 L2090.16 1483.85 L2085.28 1483.85 L2085.28 1477.97 Z" fill="#000000" fill-rule="evenodd" fill-opacity="1" /><path clip-path="url(#clip640)" d="M 0 0 M2099.26 1479.92 L2115.58 1479.92 L2115.58 1483.85 L2093.63 1483.85 L2093.63 1479.92 Q2096.3 1477.16 2100.88 1472.53 Q2105.49 1467.88 2106.67 1466.54 Q2108.91 1464.01 2109.79 1462.28 Q2110.69 1460.52 2110.69 1458.83 Q2110.69 1456.07 2108.75 1454.34 Q2106.83 1452.6 2103.73 1452.6 Q2101.53 1452.6 2099.07 1453.37 Q2096.64 1454.13 2093.87 1455.68 L2093.87 1450.96 Q2096.69 1449.82 2099.14 1449.25 Q2101.6 1448.67 2103.63 1448.67 Q2109.01 1448.67 2112.2 1451.35 Q2115.39 1454.04 2115.39 1458.53 Q2115.39 1460.66 2114.58 1462.58 Q2113.8 1464.48 2111.69 1467.07 Q2111.11 1467.74 2108.01 1470.96 Q2104.91 1474.15 2099.26 1479.92 Z" fill="#000000" fill-rule="evenodd" fill-opacity="1" /><path clip-path="url(#clip640)" d="M 0 0 M1229.06 1510.27 L1229.06 1520.4 L1241.12 1520.4 L1241.12 1524.95 L1229.06 1524.95 L1229.06 1544.3 Q1229.06 1548.66 1230.23 1549.9 Q1231.44 1551.14 1235.1 1551.14 L1241.12 1551.14 L1241.12 1556.04 L1235.1 1556.04 Q1228.33 1556.04 1225.75 1553.53 Q1223.17 1550.98 1223.17 1544.3 L1223.17 1524.95 L1218.87 1524.95 L1218.87 1520.4 L1223.17 1520.4 L1223.17 1510.27 L1229.06 1510.27 Z" fill="#000000" fill-rule="evenodd" fill-opacity="1" /><path clip-path="url(#clip640)" d="M 0 0 M1263.46 1538.12 Q1256.37 1538.12 1253.63 1539.75 Q1250.89 1541.37 1250.89 1545.29 Q1250.89 1548.4 1252.93 1550.25 Q1255 1552.07 1258.53 1552.07 Q1263.4 1552.07 1266.33 1548.63 Q1269.29 1545.16 1269.29 1539.43 L1269.29 1538.12 L1263.46 1538.12 M1275.15 1535.71 L1275.15 1556.04 L1269.29 1556.04 L1269.29 1550.63 Q1267.28 1553.88 1264.29 1555.44 Q1261.3 1556.97 1256.97 1556.97 Q1251.5 1556.97 1248.25 1553.91 Q1245.04 1550.82 1245.04 1545.67 Q1245.04 1539.65 1249.05 1536.6 Q1253.09 1533.54 1261.08 1533.54 L1269.29 1533.54 L1269.29 1532.97 Q1269.29 1528.93 1266.62 1526.73 Q1263.97 1524.5 1259.17 1524.5 Q1256.11 1524.5 1253.22 1525.23 Q1250.32 1525.97 1247.65 1527.43 L1247.65 1522.02 Q1250.86 1520.78 1253.88 1520.17 Q1256.91 1519.54 1259.77 1519.54 Q1267.51 1519.54 1271.33 1523.55 Q1275.15 1527.56 1275.15 1535.71 Z" fill="#000000" fill-rule="evenodd" fill-opacity="1" /><path clip-path="url(#clip640)" d="M 0 0 M1280.68 1541.98 L1280.68 1520.4 L1286.54 1520.4 L1286.54 1541.75 Q1286.54 1546.81 1288.51 1549.36 Q1290.49 1551.87 1294.43 1551.87 Q1299.18 1551.87 1301.91 1548.85 Q1304.68 1545.83 1304.68 1540.61 L1304.68 1520.4 L1310.54 1520.4 L1310.54 1556.04 L1304.68 1556.04 L1304.68 1550.57 Q1302.55 1553.82 1299.72 1555.41 Q1296.92 1556.97 1293.19 1556.97 Q1287.05 1556.97 1283.87 1553.15 Q1280.68 1549.33 1280.68 1541.98 M1295.42 1519.54 L1295.42 1519.54 Z" fill="#000000" fill-rule="evenodd" fill-opacity="1" /><path clip-path="url(#clip640)" d="M 0 0 M1323.05 1550.63 L1345.49 1550.63 L1345.49 1556.04 L1315.31 1556.04 L1315.31 1550.63 Q1318.97 1546.85 1325.27 1540.48 Q1331.61 1534.08 1333.23 1532.24 Q1336.32 1528.77 1337.53 1526.38 Q1338.77 1523.96 1338.77 1521.64 Q1338.77 1517.85 1336.1 1515.46 Q1333.45 1513.08 1329.19 1513.08 Q1326.17 1513.08 1322.79 1514.13 Q1319.45 1515.18 1315.63 1517.31 L1315.63 1510.82 Q1319.51 1509.26 1322.89 1508.46 Q1326.26 1507.66 1329.06 1507.66 Q1336.45 1507.66 1340.84 1511.36 Q1345.23 1515.05 1345.23 1521.22 Q1345.23 1524.15 1344.12 1526.79 Q1343.04 1529.4 1340.14 1532.97 Q1339.34 1533.89 1335.08 1538.32 Q1330.81 1542.71 1323.05 1550.63 Z" fill="#000000" fill-rule="evenodd" fill-opacity="1" /><polyline clip-path="url(#clip642)" style="stroke:#000000; stroke-width:2; stroke-opacity:0.1; fill:none" points="
  211.602,1403.47 2352.76,1403.47 
  "/>
<polyline clip-path="url(#clip642)" style="stroke:#000000; stroke-width:2; stroke-opacity:0.1; fill:none" points="
  211.602,1018.86 2352.76,1018.86 
  "/>
<polyline clip-path="url(#clip642)" style="stroke:#000000; stroke-width:2; stroke-opacity:0.1; fill:none" points="
  211.602,634.252 2352.76,634.252 
  "/>
<polyline clip-path="url(#clip642)" style="stroke:#000000; stroke-width:2; stroke-opacity:0.1; fill:none" points="
  211.602,249.644 2352.76,249.644 
  "/>
<polyline clip-path="url(#clip640)" style="stroke:#000000; stroke-width:4; stroke-opacity:1; fill:none" points="
  211.602,1423.18 211.602,47.2441 
  "/>
<polyline clip-path="url(#clip640)" style="stroke:#000000; stroke-width:4; stroke-opacity:1; fill:none" points="
  211.602,1403.47 237.296,1403.47 
  "/>
<polyline clip-path="url(#clip640)" style="stroke:#000000; stroke-width:4; stroke-opacity:1; fill:none" points="
  211.602,1018.86 237.296,1018.86 
  "/>
<polyline clip-path="url(#clip640)" style="stroke:#000000; stroke-width:4; stroke-opacity:1; fill:none" points="
  211.602,634.252 237.296,634.252 
  "/>
<polyline clip-path="url(#clip640)" style="stroke:#000000; stroke-width:4; stroke-opacity:1; fill:none" points="
  211.602,249.644 237.296,249.644 
  "/>
<path clip-path="url(#clip640)" d="M 0 0 M126.691 1389.27 Q123.08 1389.27 121.251 1392.83 Q119.445 1396.37 119.445 1403.5 Q119.445 1410.61 121.251 1414.17 Q123.08 1417.72 126.691 1417.72 Q130.325 1417.72 132.13 1414.17 Q133.959 1410.61 133.959 1403.5 Q133.959 1396.37 132.13 1392.83 Q130.325 1389.27 126.691 1389.27 M126.691 1385.56 Q132.501 1385.56 135.556 1390.17 Q138.635 1394.75 138.635 1403.5 Q138.635 1412.23 135.556 1416.84 Q132.501 1421.42 126.691 1421.42 Q120.88 1421.42 117.802 1416.84 Q114.746 1412.23 114.746 1403.5 Q114.746 1394.75 117.802 1390.17 Q120.88 1385.56 126.691 1385.56 Z" fill="#000000" fill-rule="evenodd" fill-opacity="1" /><path clip-path="url(#clip640)" d="M 0 0 M143.704 1414.87 L148.589 1414.87 L148.589 1420.75 L143.704 1420.75 L143.704 1414.87 Z" fill="#000000" fill-rule="evenodd" fill-opacity="1" /><path clip-path="url(#clip640)" d="M 0 0 M163.658 1389.27 Q160.047 1389.27 158.218 1392.83 Q156.413 1396.37 156.413 1403.5 Q156.413 1410.61 158.218 1414.17 Q160.047 1417.72 163.658 1417.72 Q167.292 1417.72 169.098 1414.17 Q170.927 1410.61 170.927 1403.5 Q170.927 1396.37 169.098 1392.83 Q167.292 1389.27 163.658 1389.27 M163.658 1385.56 Q169.468 1385.56 172.524 1390.17 Q175.602 1394.75 175.602 1403.5 Q175.602 1412.23 172.524 1416.84 Q169.468 1421.42 163.658 1421.42 Q157.848 1421.42 154.769 1416.84 Q151.714 1412.23 151.714 1403.5 Q151.714 1394.75 154.769 1390.17 Q157.848 1385.56 163.658 1385.56 Z" fill="#000000" fill-rule="evenodd" fill-opacity="1" /><path clip-path="url(#clip640)" d="M 0 0 M128.288 1004.66 Q124.677 1004.66 122.848 1008.22 Q121.043 1011.77 121.043 1018.9 Q121.043 1026 122.848 1029.57 Q124.677 1033.11 128.288 1033.11 Q131.922 1033.11 133.728 1029.57 Q135.556 1026 135.556 1018.9 Q135.556 1011.77 133.728 1008.22 Q131.922 1004.66 128.288 1004.66 M128.288 1000.96 Q134.098 1000.96 137.154 1005.56 Q140.232 1010.15 140.232 1018.9 Q140.232 1027.62 137.154 1032.23 Q134.098 1036.81 128.288 1036.81 Q122.478 1036.81 119.399 1032.23 Q116.343 1027.62 116.343 1018.9 Q116.343 1010.15 119.399 1005.56 Q122.478 1000.96 128.288 1000.96 Z" fill="#000000" fill-rule="evenodd" fill-opacity="1" /><path clip-path="url(#clip640)" d="M 0 0 M145.302 1030.26 L150.186 1030.26 L150.186 1036.14 L145.302 1036.14 L145.302 1030.26 Z" fill="#000000" fill-rule="evenodd" fill-opacity="1" /><path clip-path="url(#clip640)" d="M 0 0 M159.283 1032.21 L175.602 1032.21 L175.602 1036.14 L153.658 1036.14 L153.658 1032.21 Q156.32 1029.45 160.903 1024.82 Q165.51 1020.17 166.69 1018.83 Q168.936 1016.3 169.815 1014.57 Q170.718 1012.81 170.718 1011.12 Q170.718 1008.36 168.774 1006.63 Q166.852 1004.89 163.751 1004.89 Q161.552 1004.89 159.098 1005.65 Q156.667 1006.42 153.89 1007.97 L153.89 1003.25 Q156.714 1002.11 159.167 1001.53 Q161.621 1000.96 163.658 1000.96 Q169.028 1000.96 172.223 1003.64 Q175.417 1006.33 175.417 1010.82 Q175.417 1012.95 174.607 1014.87 Q173.82 1016.77 171.714 1019.36 Q171.135 1020.03 168.033 1023.25 Q164.931 1026.44 159.283 1032.21 Z" fill="#000000" fill-rule="evenodd" fill-opacity="1" /><path clip-path="url(#clip640)" d="M 0 0 M126.205 620.051 Q122.593 620.051 120.765 623.616 Q118.959 627.157 118.959 634.287 Q118.959 641.393 120.765 644.958 Q122.593 648.5 126.205 648.5 Q129.839 648.5 131.644 644.958 Q133.473 641.393 133.473 634.287 Q133.473 627.157 131.644 623.616 Q129.839 620.051 126.205 620.051 M126.205 616.347 Q132.015 616.347 135.07 620.954 Q138.149 625.537 138.149 634.287 Q138.149 643.014 135.07 647.62 Q132.015 652.204 126.205 652.204 Q120.394 652.204 117.316 647.62 Q114.26 643.014 114.26 634.287 Q114.26 625.537 117.316 620.954 Q120.394 616.347 126.205 616.347 Z" fill="#000000" fill-rule="evenodd" fill-opacity="1" /><path clip-path="url(#clip640)" d="M 0 0 M143.218 645.653 L148.103 645.653 L148.103 651.532 L143.218 651.532 L143.218 645.653 Z" fill="#000000" fill-rule="evenodd" fill-opacity="1" /><path clip-path="url(#clip640)" d="M 0 0 M166.019 621.046 L154.214 639.495 L166.019 639.495 L166.019 621.046 M164.792 616.972 L170.672 616.972 L170.672 639.495 L175.602 639.495 L175.602 643.384 L170.672 643.384 L170.672 651.532 L166.019 651.532 L166.019 643.384 L150.417 643.384 L150.417 638.87 L164.792 616.972 Z" fill="#000000" fill-rule="evenodd" fill-opacity="1" /><path clip-path="url(#clip640)" d="M 0 0 M126.529 235.443 Q122.918 235.443 121.089 239.008 Q119.283 242.549 119.283 249.679 Q119.283 256.785 121.089 260.35 Q122.918 263.892 126.529 263.892 Q130.163 263.892 131.968 260.35 Q133.797 256.785 133.797 249.679 Q133.797 242.549 131.968 239.008 Q130.163 235.443 126.529 235.443 M126.529 231.739 Q132.339 231.739 135.394 236.346 Q138.473 240.929 138.473 249.679 Q138.473 258.406 135.394 263.012 Q132.339 267.595 126.529 267.595 Q120.718 267.595 117.64 263.012 Q114.584 258.406 114.584 249.679 Q114.584 240.929 117.64 236.346 Q120.718 231.739 126.529 231.739 Z" fill="#000000" fill-rule="evenodd" fill-opacity="1" /><path clip-path="url(#clip640)" d="M 0 0 M143.542 261.045 L148.427 261.045 L148.427 266.924 L143.542 266.924 L143.542 261.045 Z" fill="#000000" fill-rule="evenodd" fill-opacity="1" /><path clip-path="url(#clip640)" d="M 0 0 M164.075 247.781 Q160.927 247.781 159.075 249.933 Q157.246 252.086 157.246 255.836 Q157.246 259.563 159.075 261.739 Q160.927 263.892 164.075 263.892 Q167.223 263.892 169.052 261.739 Q170.903 259.563 170.903 255.836 Q170.903 252.086 169.052 249.933 Q167.223 247.781 164.075 247.781 M173.357 233.128 L173.357 237.387 Q171.598 236.554 169.792 236.114 Q168.01 235.674 166.251 235.674 Q161.621 235.674 159.167 238.799 Q156.737 241.924 156.39 248.244 Q157.755 246.23 159.815 245.165 Q161.876 244.077 164.352 244.077 Q169.561 244.077 172.57 247.248 Q175.602 250.396 175.602 255.836 Q175.602 261.16 172.454 264.378 Q169.306 267.595 164.075 267.595 Q158.079 267.595 154.908 263.012 Q151.737 258.406 151.737 249.679 Q151.737 241.484 155.626 236.623 Q159.515 231.739 166.065 231.739 Q167.825 231.739 169.607 232.086 Q171.413 232.434 173.357 233.128 Z" fill="#000000" fill-rule="evenodd" fill-opacity="1" /><path clip-path="url(#clip640)" d="M 0 0 M59.1993 1172.95 Q55.2526 1170.75 53.3747 1167.7 Q51.4968 1164.64 51.4968 1160.5 Q51.4968 1154.93 55.4117 1151.91 Q59.2948 1148.89 66.4881 1148.89 L88.0042 1148.89 L88.0042 1154.78 L66.679 1154.78 Q61.5546 1154.78 59.072 1156.59 Q56.5894 1158.4 56.5894 1162.13 Q56.5894 1166.68 59.6131 1169.32 Q62.6368 1171.96 67.8567 1171.96 L88.0042 1171.96 L88.0042 1177.85 L66.679 1177.85 Q61.5228 1177.85 59.072 1179.67 Q56.5894 1181.48 56.5894 1185.27 Q56.5894 1189.76 59.6449 1192.4 Q62.6686 1195.04 67.8567 1195.04 L88.0042 1195.04 L88.0042 1200.93 L52.3562 1200.93 L52.3562 1195.04 L57.8944 1195.04 Q54.616 1193.03 53.0564 1190.23 Q51.4968 1187.43 51.4968 1183.58 Q51.4968 1179.7 53.4702 1176.99 Q55.4436 1174.25 59.1993 1172.95 Z" fill="#000000" fill-rule="evenodd" fill-opacity="1" /><path clip-path="url(#clip640)" d="M 0 0 M70.0847 1126.54 Q70.0847 1133.64 71.7079 1136.38 Q73.3312 1139.12 77.2461 1139.12 Q80.3653 1139.12 82.2114 1137.08 Q84.0256 1135.01 84.0256 1131.48 Q84.0256 1126.61 80.5881 1123.68 Q77.1188 1120.72 71.3897 1120.72 L70.0847 1120.72 L70.0847 1126.54 M67.6657 1114.86 L88.0042 1114.86 L88.0042 1120.72 L82.5933 1120.72 Q85.8398 1122.72 87.3994 1125.72 Q88.9272 1128.71 88.9272 1133.04 Q88.9272 1138.51 85.8716 1141.76 Q82.7843 1144.97 77.6281 1144.97 Q71.6125 1144.97 68.5569 1140.96 Q65.5014 1136.92 65.5014 1128.93 L65.5014 1120.72 L64.9285 1120.72 Q60.8862 1120.72 58.6901 1123.39 Q56.4621 1126.03 56.4621 1130.84 Q56.4621 1133.9 57.1941 1136.79 Q57.9262 1139.69 59.3903 1142.36 L53.9795 1142.36 Q52.7381 1139.15 52.1334 1136.12 Q51.4968 1133.1 51.4968 1130.24 Q51.4968 1122.5 55.5072 1118.68 Q59.5176 1114.86 67.6657 1114.86 Z" fill="#000000" fill-rule="evenodd" fill-opacity="1" /><path clip-path="url(#clip640)" d="M 0 0 M52.3562 1079.09 L69.7028 1091.98 L88.0042 1078.42 L88.0042 1085.33 L73.9996 1095.7 L88.0042 1106.08 L88.0042 1112.98 L69.3526 1099.14 L52.3562 1111.81 L52.3562 1104.9 L65.0558 1095.45 L52.3562 1085.99 L52.3562 1079.09 Z" fill="#000000" fill-rule="evenodd" fill-opacity="1" /><path clip-path="url(#clip640)" d="M 0 0 M67.0928 1010.31 Q67.0928 1013.08 69.4481 1014.67 Q71.8034 1016.23 76.0048 1016.23 Q80.1425 1016.23 82.5296 1014.67 Q84.885 1013.08 84.885 1010.31 Q84.885 1007.6 82.5296 1006.04 Q80.1425 1004.45 76.0048 1004.45 Q71.8353 1004.45 69.48 1006.04 Q67.0928 1007.6 67.0928 1010.31 M63.0506 1010.31 Q63.0506 1005.28 66.5517 1002.32 Q70.0529 999.357 76.0048 999.357 Q81.9567 999.357 85.4579 1002.35 Q88.9272 1005.31 88.9272 1010.31 Q88.9272 1015.4 85.4579 1018.36 Q81.9567 1021.32 76.0048 1021.32 Q70.021 1021.32 66.5517 1018.36 Q63.0506 1015.37 63.0506 1010.31 M43.667 1043.15 Q43.667 1045.89 46.0542 1047.48 Q48.4095 1049.04 52.5472 1049.04 Q56.7485 1049.04 59.1038 1047.48 Q61.4592 1045.92 61.4592 1043.15 Q61.4592 1040.38 59.1038 1038.82 Q56.7485 1037.23 52.5472 1037.23 Q48.4413 1037.23 46.0542 1038.82 Q43.667 1040.42 43.667 1043.15 M39.6248 1014.41 L39.6248 1009.32 L88.9272 1039.05 L88.9272 1044.14 L39.6248 1014.41 M39.6248 1043.15 Q39.6248 1038.12 43.1259 1035.13 Q46.5952 1032.14 52.5472 1032.14 Q58.5628 1032.14 62.0321 1035.13 Q65.5014 1038.09 65.5014 1043.15 Q65.5014 1048.21 62.0321 1051.17 Q58.5309 1054.1 52.5472 1054.1 Q46.6271 1054.1 43.1259 1051.14 Q39.6248 1048.18 39.6248 1043.15 Z" fill="#000000" fill-rule="evenodd" fill-opacity="1" /><path clip-path="url(#clip640)" d="M 0 0 M56.4621 958.68 Q56.4621 963.391 60.1542 966.128 Q63.8145 968.865 70.212 968.865 Q76.6095 968.865 80.3017 966.16 Q83.9619 963.423 83.9619 958.68 Q83.9619 954.001 80.2698 951.264 Q76.5777 948.527 70.212 948.527 Q63.8781 948.527 60.186 951.264 Q56.4621 954.001 56.4621 958.68 M51.4968 958.68 Q51.4968 951.041 56.4621 946.681 Q61.4273 942.32 70.212 942.32 Q78.9649 942.32 83.9619 946.681 Q88.9272 951.041 88.9272 958.68 Q88.9272 966.351 83.9619 970.711 Q78.9649 975.04 70.212 975.04 Q61.4273 975.04 56.4621 970.711 Q51.4968 966.351 51.4968 958.68 Z" fill="#000000" fill-rule="evenodd" fill-opacity="1" /><path clip-path="url(#clip640)" d="M 0 0 M38.479 918.131 L43.3487 918.131 L43.3487 923.732 Q43.3487 926.883 44.6219 928.125 Q45.895 929.334 49.2052 929.334 L52.3562 929.334 L52.3562 919.69 L56.9077 919.69 L56.9077 929.334 L88.0042 929.334 L88.0042 935.222 L56.9077 935.222 L56.9077 940.824 L52.3562 940.824 L52.3562 935.222 L49.8736 935.222 Q43.9216 935.222 41.2162 932.453 Q38.479 929.684 38.479 923.669 L38.479 918.131 Z" fill="#000000" fill-rule="evenodd" fill-opacity="1" /><path clip-path="url(#clip640)" d="M 0 0 M52.3562 891.267 L52.3562 885.411 L88.0042 885.411 L88.0042 891.267 L52.3562 891.267 M38.479 891.267 L38.479 885.411 L45.895 885.411 L45.895 891.267 L38.479 891.267 Z" fill="#000000" fill-rule="evenodd" fill-opacity="1" /><path clip-path="url(#clip640)" d="M 0 0 M66.4881 849.636 L88.0042 849.636 L88.0042 855.492 L66.679 855.492 Q61.6183 855.492 59.1038 857.465 Q56.5894 859.439 56.5894 863.385 Q56.5894 868.128 59.6131 870.865 Q62.6368 873.602 67.8567 873.602 L88.0042 873.602 L88.0042 879.491 L52.3562 879.491 L52.3562 873.602 L57.8944 873.602 Q54.6797 871.502 53.0883 868.669 Q51.4968 865.804 51.4968 862.081 Q51.4968 855.938 55.3163 852.787 Q59.1038 849.636 66.4881 849.636 Z" fill="#000000" fill-rule="evenodd" fill-opacity="1" /><path clip-path="url(#clip640)" d="M 0 0 M38.479 825.446 L43.3487 825.446 L43.3487 831.048 Q43.3487 834.199 44.6219 835.44 Q45.895 836.65 49.2052 836.65 L52.3562 836.65 L52.3562 827.005 L56.9077 827.005 L56.9077 836.65 L88.0042 836.65 L88.0042 842.538 L56.9077 842.538 L56.9077 848.14 L52.3562 848.14 L52.3562 842.538 L49.8736 842.538 Q43.9216 842.538 41.2162 839.769 Q38.479 837 38.479 830.984 L38.479 825.446 Z" fill="#000000" fill-rule="evenodd" fill-opacity="1" /><path clip-path="url(#clip640)" d="M 0 0 M68.7161 788.811 L71.5806 788.811 L71.5806 815.738 Q77.6281 815.356 80.8109 812.11 Q83.9619 808.831 83.9619 803.007 Q83.9619 799.633 83.1344 796.482 Q82.3069 793.299 80.6518 790.18 L86.1899 790.18 Q87.5267 793.331 88.227 796.641 Q88.9272 799.951 88.9272 803.357 Q88.9272 811.887 83.9619 816.884 Q78.9967 821.849 70.5303 821.849 Q61.7774 821.849 56.6531 817.139 Q51.4968 812.396 51.4968 804.375 Q51.4968 797.182 56.1438 793.013 Q60.7589 788.811 68.7161 788.811 M66.9973 794.668 Q62.1912 794.731 59.3266 797.373 Q56.4621 799.983 56.4621 804.312 Q56.4621 809.213 59.2312 812.173 Q62.0002 815.102 67.0292 815.547 L66.9973 794.668 Z" fill="#000000" fill-rule="evenodd" fill-opacity="1" /><path clip-path="url(#clip640)" d="M 0 0 M53.7248 757.015 L59.1993 757.015 Q57.8307 759.497 57.1623 762.012 Q56.4621 764.494 56.4621 767.041 Q56.4621 772.738 60.0905 775.889 Q63.6872 779.04 70.212 779.04 Q76.7369 779.04 80.3653 775.889 Q83.9619 772.738 83.9619 767.041 Q83.9619 764.494 83.2935 762.012 Q82.5933 759.497 81.2247 757.015 L86.6355 757.015 Q87.7814 759.465 88.3543 762.107 Q88.9272 764.717 88.9272 767.677 Q88.9272 775.73 83.8664 780.472 Q78.8057 785.215 70.212 785.215 Q61.491 785.215 56.4939 780.44 Q51.4968 775.634 51.4968 767.295 Q51.4968 764.59 52.0697 762.012 Q52.6108 759.433 53.7248 757.015 Z" fill="#000000" fill-rule="evenodd" fill-opacity="1" /><path clip-path="url(#clip640)" d="M 0 0 M42.2347 745.079 L52.3562 745.079 L52.3562 733.016 L56.9077 733.016 L56.9077 745.079 L76.2594 745.079 Q80.6199 745.079 81.8613 743.901 Q83.1026 742.692 83.1026 739.031 L83.1026 733.016 L88.0042 733.016 L88.0042 739.031 Q88.0042 745.811 85.4897 748.389 Q82.9434 750.967 76.2594 750.967 L56.9077 750.967 L56.9077 755.264 L52.3562 755.264 L52.3562 750.967 L42.2347 750.967 L42.2347 745.079 Z" fill="#000000" fill-rule="evenodd" fill-opacity="1" /><path clip-path="url(#clip640)" d="M 0 0 M68.7161 696.381 L71.5806 696.381 L71.5806 723.308 Q77.6281 722.926 80.8109 719.68 Q83.9619 716.401 83.9619 710.577 Q83.9619 707.203 83.1344 704.052 Q82.3069 700.869 80.6518 697.75 L86.1899 697.75 Q87.5267 700.901 88.227 704.211 Q88.9272 707.521 88.9272 710.927 Q88.9272 719.457 83.9619 724.454 Q78.9967 729.419 70.5303 729.419 Q61.7774 729.419 56.6531 724.709 Q51.4968 719.966 51.4968 711.945 Q51.4968 704.752 56.1438 700.583 Q60.7589 696.381 68.7161 696.381 M66.9973 702.238 Q62.1912 702.301 59.3266 704.943 Q56.4621 707.553 56.4621 711.882 Q56.4621 716.783 59.2312 719.743 Q62.0002 722.672 67.0292 723.117 L66.9973 702.238 Z" fill="#000000" fill-rule="evenodd" fill-opacity="1" /><path clip-path="url(#clip640)" d="M 0 0 M57.7671 666.781 L38.479 666.781 L38.479 660.924 L88.0042 660.924 L88.0042 666.781 L82.657 666.781 Q85.8398 668.627 87.3994 671.459 Q88.9272 674.26 88.9272 678.207 Q88.9272 684.668 83.771 688.742 Q78.6147 692.785 70.212 692.785 Q61.8093 692.785 56.6531 688.742 Q51.4968 684.668 51.4968 678.207 Q51.4968 674.26 53.0564 671.459 Q54.5842 668.627 57.7671 666.781 M70.212 686.737 Q76.6732 686.737 80.3653 684.095 Q84.0256 681.422 84.0256 676.775 Q84.0256 672.128 80.3653 669.454 Q76.6732 666.781 70.212 666.781 Q63.7508 666.781 60.0905 669.454 Q56.3984 672.128 56.3984 676.775 Q56.3984 681.422 60.0905 684.095 Q63.7508 686.737 70.212 686.737 Z" fill="#000000" fill-rule="evenodd" fill-opacity="1" /><path clip-path="url(#clip640)" d="M 0 0 M38.479 616.014 L43.3487 616.014 L43.3487 621.616 Q43.3487 624.767 44.6219 626.008 Q45.895 627.218 49.2052 627.218 L52.3562 627.218 L52.3562 617.574 L56.9077 617.574 L56.9077 627.218 L88.0042 627.218 L88.0042 633.106 L56.9077 633.106 L56.9077 638.708 L52.3562 638.708 L52.3562 633.106 L49.8736 633.106 Q43.9216 633.106 41.2162 630.337 Q38.479 627.568 38.479 621.552 L38.479 616.014 Z" fill="#000000" fill-rule="evenodd" fill-opacity="1" /><path clip-path="url(#clip640)" d="M 0 0 M56.4621 596.058 Q56.4621 600.768 60.1542 603.505 Q63.8145 606.243 70.212 606.243 Q76.6095 606.243 80.3017 603.537 Q83.9619 600.8 83.9619 596.058 Q83.9619 591.379 80.2698 588.642 Q76.5777 585.904 70.212 585.904 Q63.8781 585.904 60.186 588.642 Q56.4621 591.379 56.4621 596.058 M51.4968 596.058 Q51.4968 588.419 56.4621 584.058 Q61.4273 579.698 70.212 579.698 Q78.9649 579.698 83.9619 584.058 Q88.9272 588.419 88.9272 596.058 Q88.9272 603.728 83.9619 608.089 Q78.9649 612.417 70.212 612.417 Q61.4273 612.417 56.4621 608.089 Q51.4968 603.728 51.4968 596.058 Z" fill="#000000" fill-rule="evenodd" fill-opacity="1" /><path clip-path="url(#clip640)" d="M 0 0 M57.8307 552.898 Q57.2578 553.885 57.0032 555.062 Q56.7167 556.208 56.7167 557.609 Q56.7167 562.574 59.9632 565.248 Q63.1779 567.889 69.2253 567.889 L88.0042 567.889 L88.0042 573.778 L52.3562 573.778 L52.3562 567.889 L57.8944 567.889 Q54.6479 566.043 53.0883 563.083 Q51.4968 560.123 51.4968 555.89 Q51.4968 555.285 51.5923 554.553 Q51.656 553.821 51.8151 552.93 L57.8307 552.898 Z" fill="#000000" fill-rule="evenodd" fill-opacity="1" /><path clip-path="url(#clip640)" d="M 0 0 M57.7671 502.577 L38.479 502.577 L38.479 496.721 L88.0042 496.721 L88.0042 502.577 L82.657 502.577 Q85.8398 504.423 87.3994 507.256 Q88.9272 510.057 88.9272 514.004 Q88.9272 520.465 83.771 524.539 Q78.6147 528.581 70.212 528.581 Q61.8093 528.581 56.6531 524.539 Q51.4968 520.465 51.4968 514.004 Q51.4968 510.057 53.0564 507.256 Q54.5842 504.423 57.7671 502.577 M70.212 522.534 Q76.6732 522.534 80.3653 519.892 Q84.0256 517.218 84.0256 512.571 Q84.0256 507.924 80.3653 505.251 Q76.6732 502.577 70.212 502.577 Q63.7508 502.577 60.0905 505.251 Q56.3984 507.924 56.3984 512.571 Q56.3984 517.218 60.0905 519.892 Q63.7508 522.534 70.212 522.534 Z" fill="#000000" fill-rule="evenodd" fill-opacity="1" /><path clip-path="url(#clip640)" d="M 0 0 M68.7161 460.086 L71.5806 460.086 L71.5806 487.013 Q77.6281 486.631 80.8109 483.385 Q83.9619 480.106 83.9619 474.282 Q83.9619 470.908 83.1344 467.757 Q82.3069 464.574 80.6518 461.455 L86.1899 461.455 Q87.5267 464.606 88.227 467.916 Q88.9272 471.226 88.9272 474.632 Q88.9272 483.162 83.9619 488.159 Q78.9967 493.124 70.5303 493.124 Q61.7774 493.124 56.6531 488.414 Q51.4968 483.671 51.4968 475.65 Q51.4968 468.457 56.1438 464.287 Q60.7589 460.086 68.7161 460.086 M66.9973 465.943 Q62.1912 466.006 59.3266 468.648 Q56.4621 471.258 56.4621 475.587 Q56.4621 480.488 59.2312 483.448 Q62.0002 486.376 67.0292 486.822 L66.9973 465.943 Z" fill="#000000" fill-rule="evenodd" fill-opacity="1" /><path clip-path="url(#clip640)" d="M 0 0 M69.7664 430.486 Q63.4007 430.486 59.8996 433.127 Q56.3984 435.737 56.3984 440.48 Q56.3984 445.19 59.8996 447.832 Q63.4007 450.442 69.7664 450.442 Q76.1003 450.442 79.6014 447.832 Q83.1026 445.19 83.1026 440.48 Q83.1026 435.737 79.6014 433.127 Q76.1003 430.486 69.7664 430.486 M83.58 424.629 Q92.683 424.629 97.1071 428.671 Q101.563 432.714 101.563 441.053 Q101.563 444.14 101.086 446.877 Q100.64 449.615 99.6852 452.193 L93.9879 452.193 Q95.3884 449.615 96.0568 447.1 Q96.7252 444.586 96.7252 441.976 Q96.7252 436.215 93.7015 433.35 Q90.7096 430.486 84.6303 430.486 L81.7339 430.486 Q84.885 432.3 86.4446 435.133 Q88.0042 437.965 88.0042 441.912 Q88.0042 448.469 83.0071 452.479 Q78.01 456.49 69.7664 456.49 Q61.491 456.49 56.4939 452.479 Q51.4968 448.469 51.4968 441.912 Q51.4968 437.965 53.0564 435.133 Q54.616 432.3 57.7671 430.486 L52.3562 430.486 L52.3562 424.629 L83.58 424.629 Z" fill="#000000" fill-rule="evenodd" fill-opacity="1" /><path clip-path="url(#clip640)" d="M 0 0 M57.8307 397.83 Q57.2578 398.816 57.0032 399.994 Q56.7167 401.14 56.7167 402.54 Q56.7167 407.505 59.9632 410.179 Q63.1779 412.821 69.2253 412.821 L88.0042 412.821 L88.0042 418.709 L52.3562 418.709 L52.3562 412.821 L57.8944 412.821 Q54.6479 410.975 53.0883 408.015 Q51.4968 405.055 51.4968 400.821 Q51.4968 400.217 51.5923 399.485 Q51.656 398.753 51.8151 397.861 L57.8307 397.83 Z" fill="#000000" fill-rule="evenodd" fill-opacity="1" /><path clip-path="url(#clip640)" d="M 0 0 M68.7161 362.627 L71.5806 362.627 L71.5806 389.554 Q77.6281 389.172 80.8109 385.926 Q83.9619 382.647 83.9619 376.823 Q83.9619 373.449 83.1344 370.298 Q82.3069 367.115 80.6518 363.996 L86.1899 363.996 Q87.5267 367.147 88.227 370.457 Q88.9272 373.767 88.9272 377.173 Q88.9272 385.703 83.9619 390.7 Q78.9967 395.665 70.5303 395.665 Q61.7774 395.665 56.6531 390.955 Q51.4968 386.212 51.4968 378.191 Q51.4968 370.998 56.1438 366.829 Q60.7589 362.627 68.7161 362.627 M66.9973 368.484 Q62.1912 368.547 59.3266 371.189 Q56.4621 373.799 56.4621 378.128 Q56.4621 383.029 59.2312 385.989 Q62.0002 388.918 67.0292 389.363 L66.9973 368.484 Z" fill="#000000" fill-rule="evenodd" fill-opacity="1" /><path clip-path="url(#clip640)" d="M 0 0 M68.7161 325.993 L71.5806 325.993 L71.5806 352.919 Q77.6281 352.538 80.8109 349.291 Q83.9619 346.013 83.9619 340.188 Q83.9619 336.814 83.1344 333.663 Q82.3069 330.48 80.6518 327.361 L86.1899 327.361 Q87.5267 330.512 88.227 333.822 Q88.9272 337.133 88.9272 340.538 Q88.9272 349.068 83.9619 354.065 Q78.9967 359.031 70.5303 359.031 Q61.7774 359.031 56.6531 354.32 Q51.4968 349.577 51.4968 341.557 Q51.4968 334.363 56.1438 330.194 Q60.7589 325.993 68.7161 325.993 M66.9973 331.849 Q62.1912 331.913 59.3266 334.554 Q56.4621 337.164 56.4621 341.493 Q56.4621 346.395 59.2312 349.355 Q62.0002 352.283 67.0292 352.728 L66.9973 331.849 Z" fill="#000000" fill-rule="evenodd" fill-opacity="1" /><path clip-path="url(#clip640)" d="M 0 0 M40.4842 298.238 L40.4842 272.998 L45.895 272.998 L45.895 292.35 L57.5443 292.35 Q57.0668 290.949 56.844 289.549 Q56.5894 288.148 56.5894 286.748 Q56.5894 278.791 60.9499 274.144 Q65.3104 269.497 72.7583 269.497 Q80.429 269.497 84.694 274.271 Q88.9272 279.045 88.9272 287.735 Q88.9272 290.727 88.4179 293.846 Q87.9087 296.933 86.8902 300.243 L80.429 300.243 Q81.9886 297.379 82.7524 294.323 Q83.5163 291.268 83.5163 287.862 Q83.5163 282.356 80.6199 279.141 Q77.7235 275.926 72.7583 275.926 Q67.793 275.926 64.8966 279.141 Q62.0002 282.356 62.0002 287.862 Q62.0002 290.44 62.5732 293.018 Q63.1461 295.564 64.3556 298.238 L40.4842 298.238 Z" fill="#000000" fill-rule="evenodd" fill-opacity="1" /><polyline clip-path="url(#clip642)" style="stroke:#009af9; stroke-width:4; stroke-opacity:1; fill:none" points="
  502.323,1384.24 758.013,1374.62 297.77,1384.24 2292.16,86.1857 451.185,1384.24 502.323,1365.01 272.201,1384.24 
  "/>
<path clip-path="url(#clip640)" d="
M1992.46 214.069 L2281.38 214.069 L2281.38 93.1086 L1992.46 93.1086  Z
  " fill="#ffffff" fill-rule="evenodd" fill-opacity="1"/>
<polyline clip-path="url(#clip640)" style="stroke:#000000; stroke-width:4; stroke-opacity:1; fill:none" points="
  1992.46,214.069 2281.38,214.069 2281.38,93.1086 1992.46,93.1086 1992.46,214.069 
  "/>
<polyline clip-path="url(#clip640)" style="stroke:#009af9; stroke-width:4; stroke-opacity:1; fill:none" points="
  2016.25,153.589 2158.99,153.589 
  "/>
<path clip-path="url(#clip640)" d="M 0 0 M2196.63 173.276 Q2194.82 177.906 2193.11 179.318 Q2191.4 180.73 2188.53 180.73 L2185.12 180.73 L2185.12 177.165 L2187.62 177.165 Q2189.38 177.165 2190.35 176.332 Q2191.33 175.498 2192.51 172.396 L2193.27 170.452 L2182.78 144.943 L2187.3 144.943 L2195.4 165.221 L2203.5 144.943 L2208.02 144.943 L2196.63 173.276 Z" fill="#000000" fill-rule="evenodd" fill-opacity="1" /><path clip-path="url(#clip640)" d="M 0 0 M2213.9 166.933 L2221.53 166.933 L2221.53 140.568 L2213.22 142.235 L2213.22 137.975 L2221.49 136.309 L2226.16 136.309 L2226.16 166.933 L2233.8 166.933 L2233.8 170.869 L2213.9 170.869 L2213.9 166.933 Z" fill="#000000" fill-rule="evenodd" fill-opacity="1" /></svg>
