<?xml version="1.0" encoding="utf-8"?>
<svg xmlns="http://www.w3.org/2000/svg" xmlns:xlink="http://www.w3.org/1999/xlink" width="600" height="400" viewBox="0 0 2400 1600">
<defs>
  <clipPath id="clip080">
    <rect x="0" y="0" width="2400" height="1600"/>
  </clipPath>
</defs>
<path clip-path="url(#clip080)" d="
M0 1600 L2400 1600 L2400 0 L0 0  Z
  " fill="#ffffff" fill-rule="evenodd" fill-opacity="1"/>
<defs>
  <clipPath id="clip081">
    <rect x="480" y="0" width="1681" height="1600"/>
  </clipPath>
</defs>
<path clip-path="url(#clip080)" d="
M238.13 1423.18 L2352.76 1423.18 L2352.76 47.2441 L238.13 47.2441  Z
  " fill="#ffffff" fill-rule="evenodd" fill-opacity="1"/>
<defs>
  <clipPath id="clip082">
    <rect x="238" y="47" width="2116" height="1377"/>
  </clipPath>
</defs>
<polyline clip-path="url(#clip082)" style="stroke:#000000; stroke-width:2; stroke-opacity:0.1; fill:none" points="
  257.265,1423.18 257.265,47.2441 
  "/>
<polyline clip-path="url(#clip082)" style="stroke:#000000; stroke-width:2; stroke-opacity:0.1; fill:none" points="
  664.394,1423.18 664.394,47.2441 
  "/>
<polyline clip-path="url(#clip082)" style="stroke:#000000; stroke-width:2; stroke-opacity:0.1; fill:none" points="
  1071.52,1423.18 1071.52,47.2441 
  "/>
<polyline clip-path="url(#clip082)" style="stroke:#000000; stroke-width:2; stroke-opacity:0.1; fill:none" points="
  1478.65,1423.18 1478.65,47.2441 
  "/>
<polyline clip-path="url(#clip082)" style="stroke:#000000; stroke-width:2; stroke-opacity:0.1; fill:none" points="
  1885.78,1423.18 1885.78,47.2441 
  "/>
<polyline clip-path="url(#clip082)" style="stroke:#000000; stroke-width:2; stroke-opacity:0.1; fill:none" points="
  2292.91,1423.18 2292.91,47.2441 
  "/>
<polyline clip-path="url(#clip080)" style="stroke:#000000; stroke-width:4; stroke-opacity:1; fill:none" points="
  238.13,1423.18 2352.76,1423.18 
  "/>
<polyline clip-path="url(#clip080)" style="stroke:#000000; stroke-width:4; stroke-opacity:1; fill:none" points="
  257.265,1423.18 257.265,1406.67 
  "/>
<polyline clip-path="url(#clip080)" style="stroke:#000000; stroke-width:4; stroke-opacity:1; fill:none" points="
  664.394,1423.18 664.394,1406.67 
  "/>
<polyline clip-path="url(#clip080)" style="stroke:#000000; stroke-width:4; stroke-opacity:1; fill:none" points="
  1071.52,1423.18 1071.52,1406.67 
  "/>
<polyline clip-path="url(#clip080)" style="stroke:#000000; stroke-width:4; stroke-opacity:1; fill:none" points="
  1478.65,1423.18 1478.65,1406.67 
  "/>
<polyline clip-path="url(#clip080)" style="stroke:#000000; stroke-width:4; stroke-opacity:1; fill:none" points="
  1885.78,1423.18 1885.78,1406.67 
  "/>
<polyline clip-path="url(#clip080)" style="stroke:#000000; stroke-width:4; stroke-opacity:1; fill:none" points="
  2292.91,1423.18 2292.91,1406.67 
  "/>
<path clip-path="url(#clip080)" d="M 0 0 M257.265 1452.37 Q253.654 1452.37 251.825 1455.94 Q250.02 1459.48 250.02 1466.61 Q250.02 1473.71 251.825 1477.28 Q253.654 1480.82 257.265 1480.82 Q260.899 1480.82 262.705 1477.28 Q264.534 1473.71 264.534 1466.61 Q264.534 1459.48 262.705 1455.94 Q260.899 1452.37 257.265 1452.37 M257.265 1448.67 Q263.075 1448.67 266.131 1453.27 Q269.209 1457.86 269.209 1466.61 Q269.209 1475.33 266.131 1479.94 Q263.075 1484.52 257.265 1484.52 Q251.455 1484.52 248.376 1479.94 Q245.321 1475.33 245.321 1466.61 Q245.321 1457.86 248.376 1453.27 Q251.455 1448.67 257.265 1448.67 Z" fill="#000000" fill-rule="evenodd" fill-opacity="1" /><path clip-path="url(#clip080)" d="M 0 0 M641.269 1479.92 L648.908 1479.92 L648.908 1453.55 L640.598 1455.22 L640.598 1450.96 L648.861 1449.29 L653.537 1449.29 L653.537 1479.92 L661.176 1479.92 L661.176 1483.85 L641.269 1483.85 L641.269 1479.92 Z" fill="#000000" fill-rule="evenodd" fill-opacity="1" /><path clip-path="url(#clip080)" d="M 0 0 M676.245 1452.37 Q672.634 1452.37 670.806 1455.94 Q669 1459.48 669 1466.61 Q669 1473.71 670.806 1477.28 Q672.634 1480.82 676.245 1480.82 Q679.88 1480.82 681.685 1477.28 Q683.514 1473.71 683.514 1466.61 Q683.514 1459.48 681.685 1455.94 Q679.88 1452.37 676.245 1452.37 M676.245 1448.67 Q682.056 1448.67 685.111 1453.27 Q688.19 1457.86 688.19 1466.61 Q688.19 1475.33 685.111 1479.94 Q682.056 1484.52 676.245 1484.52 Q670.435 1484.52 667.357 1479.94 Q664.301 1475.33 664.301 1466.61 Q664.301 1457.86 667.357 1453.27 Q670.435 1448.67 676.245 1448.67 Z" fill="#000000" fill-rule="evenodd" fill-opacity="1" /><path clip-path="url(#clip080)" d="M 0 0 M1052.67 1479.92 L1068.99 1479.92 L1068.99 1483.85 L1047.04 1483.85 L1047.04 1479.92 Q1049.71 1477.16 1054.29 1472.53 Q1058.9 1467.88 1060.08 1466.54 Q1062.32 1464.01 1063.2 1462.28 Q1064.1 1460.52 1064.1 1458.83 Q1064.1 1456.07 1062.16 1454.34 Q1060.24 1452.6 1057.14 1452.6 Q1054.94 1452.6 1052.48 1453.37 Q1050.05 1454.13 1047.27 1455.68 L1047.27 1450.96 Q1050.1 1449.82 1052.55 1449.25 Q1055.01 1448.67 1057.04 1448.67 Q1062.41 1448.67 1065.61 1451.35 Q1068.8 1454.04 1068.8 1458.53 Q1068.8 1460.66 1067.99 1462.58 Q1067.21 1464.48 1065.1 1467.07 Q1064.52 1467.74 1061.42 1470.96 Q1058.32 1474.15 1052.67 1479.92 Z" fill="#000000" fill-rule="evenodd" fill-opacity="1" /><path clip-path="url(#clip080)" d="M 0 0 M1084.06 1452.37 Q1080.45 1452.37 1078.62 1455.94 Q1076.81 1459.48 1076.81 1466.61 Q1076.81 1473.71 1078.62 1477.28 Q1080.45 1480.82 1084.06 1480.82 Q1087.69 1480.82 1089.5 1477.28 Q1091.33 1473.71 1091.33 1466.61 Q1091.33 1459.48 1089.5 1455.94 Q1087.69 1452.37 1084.06 1452.37 M1084.06 1448.67 Q1089.87 1448.67 1092.92 1453.27 Q1096 1457.86 1096 1466.61 Q1096 1475.33 1092.92 1479.94 Q1089.87 1484.52 1084.06 1484.52 Q1078.25 1484.52 1075.17 1479.94 Q1072.11 1475.33 1072.11 1466.61 Q1072.11 1457.86 1075.17 1453.27 Q1078.25 1448.67 1084.06 1448.67 Z" fill="#000000" fill-rule="evenodd" fill-opacity="1" /><path clip-path="url(#clip080)" d="M 0 0 M1469.39 1465.22 Q1472.75 1465.94 1474.62 1468.2 Q1476.52 1470.47 1476.52 1473.81 Q1476.52 1478.92 1473 1481.72 Q1469.48 1484.52 1463 1484.52 Q1460.83 1484.52 1458.51 1484.08 Q1456.22 1483.67 1453.77 1482.81 L1453.77 1478.3 Q1455.71 1479.43 1458.03 1480.01 Q1460.34 1480.59 1462.86 1480.59 Q1467.26 1480.59 1469.55 1478.85 Q1471.87 1477.12 1471.87 1473.81 Q1471.87 1470.75 1469.72 1469.04 Q1467.59 1467.3 1463.77 1467.3 L1459.74 1467.3 L1459.74 1463.46 L1463.95 1463.46 Q1467.4 1463.46 1469.23 1462.09 Q1471.06 1460.7 1471.06 1458.11 Q1471.06 1455.45 1469.16 1454.04 Q1467.29 1452.6 1463.77 1452.6 Q1461.85 1452.6 1459.65 1453.02 Q1457.45 1453.44 1454.81 1454.31 L1454.81 1450.15 Q1457.47 1449.41 1459.79 1449.04 Q1462.12 1448.67 1464.18 1448.67 Q1469.51 1448.67 1472.61 1451.1 Q1475.71 1453.5 1475.71 1457.63 Q1475.71 1460.5 1474.07 1462.49 Q1472.42 1464.45 1469.39 1465.22 Z" fill="#000000" fill-rule="evenodd" fill-opacity="1" /><path clip-path="url(#clip080)" d="M 0 0 M1491.59 1452.37 Q1487.98 1452.37 1486.15 1455.94 Q1484.35 1459.48 1484.35 1466.61 Q1484.35 1473.71 1486.15 1477.28 Q1487.98 1480.82 1491.59 1480.82 Q1495.22 1480.82 1497.03 1477.28 Q1498.86 1473.71 1498.86 1466.61 Q1498.86 1459.48 1497.03 1455.94 Q1495.22 1452.37 1491.59 1452.37 M1491.59 1448.67 Q1497.4 1448.67 1500.46 1453.27 Q1503.53 1457.86 1503.53 1466.61 Q1503.53 1475.33 1500.46 1479.94 Q1497.4 1484.52 1491.59 1484.52 Q1485.78 1484.52 1482.7 1479.94 Q1479.65 1475.33 1479.65 1466.61 Q1479.65 1457.86 1482.7 1453.27 Q1485.78 1448.67 1491.59 1448.67 Z" fill="#000000" fill-rule="evenodd" fill-opacity="1" /><path clip-path="url(#clip080)" d="M 0 0 M1875.28 1453.37 L1863.48 1471.81 L1875.28 1471.81 L1875.28 1453.37 M1874.05 1449.29 L1879.93 1449.29 L1879.93 1471.81 L1884.87 1471.81 L1884.87 1475.7 L1879.93 1475.7 L1879.93 1483.85 L1875.28 1483.85 L1875.28 1475.7 L1859.68 1475.7 L1859.68 1471.19 L1874.05 1449.29 Z" fill="#000000" fill-rule="evenodd" fill-opacity="1" /><path clip-path="url(#clip080)" d="M 0 0 M1899.93 1452.37 Q1896.32 1452.37 1894.49 1455.94 Q1892.69 1459.48 1892.69 1466.61 Q1892.69 1473.71 1894.49 1477.28 Q1896.32 1480.82 1899.93 1480.82 Q1903.57 1480.82 1905.37 1477.28 Q1907.2 1473.71 1907.2 1466.61 Q1907.2 1459.48 1905.37 1455.94 Q1903.57 1452.37 1899.93 1452.37 M1899.93 1448.67 Q1905.74 1448.67 1908.8 1453.27 Q1911.88 1457.86 1911.88 1466.61 Q1911.88 1475.33 1908.8 1479.94 Q1905.74 1484.52 1899.93 1484.52 Q1894.12 1484.52 1891.05 1479.94 Q1887.99 1475.33 1887.99 1466.61 Q1887.99 1457.86 1891.05 1453.27 Q1894.12 1448.67 1899.93 1448.67 Z" fill="#000000" fill-rule="evenodd" fill-opacity="1" /><path clip-path="url(#clip080)" d="M 0 0 M2269.68 1449.29 L2288.04 1449.29 L2288.04 1453.23 L2273.96 1453.23 L2273.96 1461.7 Q2274.98 1461.35 2276 1461.19 Q2277.02 1461 2278.04 1461 Q2283.82 1461 2287.2 1464.18 Q2290.58 1467.35 2290.58 1472.76 Q2290.58 1478.34 2287.11 1481.44 Q2283.64 1484.52 2277.32 1484.52 Q2275.14 1484.52 2272.87 1484.15 Q2270.63 1483.78 2268.22 1483.04 L2268.22 1478.34 Q2270.3 1479.48 2272.53 1480.03 Q2274.75 1480.59 2277.23 1480.59 Q2281.23 1480.59 2283.57 1478.48 Q2285.91 1476.38 2285.91 1472.76 Q2285.91 1469.15 2283.57 1467.05 Q2281.23 1464.94 2277.23 1464.94 Q2275.35 1464.94 2273.48 1465.36 Q2271.62 1465.77 2269.68 1466.65 L2269.68 1449.29 Z" fill="#000000" fill-rule="evenodd" fill-opacity="1" /><path clip-path="url(#clip080)" d="M 0 0 M2305.65 1452.37 Q2302.04 1452.37 2300.21 1455.94 Q2298.41 1459.48 2298.41 1466.61 Q2298.41 1473.71 2300.21 1477.28 Q2302.04 1480.82 2305.65 1480.82 Q2309.29 1480.82 2311.09 1477.28 Q2312.92 1473.71 2312.92 1466.61 Q2312.92 1459.48 2311.09 1455.94 Q2309.29 1452.37 2305.65 1452.37 M2305.65 1448.67 Q2311.46 1448.67 2314.52 1453.27 Q2317.6 1457.86 2317.6 1466.61 Q2317.6 1475.33 2314.52 1479.94 Q2311.46 1484.52 2305.65 1484.52 Q2299.84 1484.52 2296.76 1479.94 Q2293.71 1475.33 2293.71 1466.61 Q2293.71 1457.86 2296.76 1453.27 Q2299.84 1448.67 2305.65 1448.67 Z" fill="#000000" fill-rule="evenodd" fill-opacity="1" /><path clip-path="url(#clip080)" d="M 0 0 M1294.5 1510.27 L1294.5 1520.4 L1306.57 1520.4 L1306.57 1524.95 L1294.5 1524.95 L1294.5 1544.3 Q1294.5 1548.66 1295.68 1549.9 Q1296.89 1551.14 1300.55 1551.14 L1306.57 1551.14 L1306.57 1556.04 L1300.55 1556.04 Q1293.77 1556.04 1291.19 1553.53 Q1288.62 1550.98 1288.62 1544.3 L1288.62 1524.95 L1284.32 1524.95 L1284.32 1520.4 L1288.62 1520.4 L1288.62 1510.27 L1294.5 1510.27 Z" fill="#000000" fill-rule="evenodd" fill-opacity="1" /><polyline clip-path="url(#clip082)" style="stroke:#000000; stroke-width:2; stroke-opacity:0.1; fill:none" points="
  238.13,1384.24 2352.76,1384.24 
  "/>
<polyline clip-path="url(#clip082)" style="stroke:#000000; stroke-width:2; stroke-opacity:0.1; fill:none" points="
  238.13,1059.73 2352.76,1059.73 
  "/>
<polyline clip-path="url(#clip082)" style="stroke:#000000; stroke-width:2; stroke-opacity:0.1; fill:none" points="
  238.13,735.212 2352.76,735.212 
  "/>
<polyline clip-path="url(#clip082)" style="stroke:#000000; stroke-width:2; stroke-opacity:0.1; fill:none" points="
  238.13,410.699 2352.76,410.699 
  "/>
<polyline clip-path="url(#clip082)" style="stroke:#000000; stroke-width:2; stroke-opacity:0.1; fill:none" points="
  238.13,86.1857 2352.76,86.1857 
  "/>
<polyline clip-path="url(#clip080)" style="stroke:#000000; stroke-width:4; stroke-opacity:1; fill:none" points="
  238.13,1423.18 238.13,47.2441 
  "/>
<polyline clip-path="url(#clip080)" style="stroke:#000000; stroke-width:4; stroke-opacity:1; fill:none" points="
  238.13,1384.24 263.506,1384.24 
  "/>
<polyline clip-path="url(#clip080)" style="stroke:#000000; stroke-width:4; stroke-opacity:1; fill:none" points="
  238.13,1059.73 263.506,1059.73 
  "/>
<polyline clip-path="url(#clip080)" style="stroke:#000000; stroke-width:4; stroke-opacity:1; fill:none" points="
  238.13,735.212 263.506,735.212 
  "/>
<polyline clip-path="url(#clip080)" style="stroke:#000000; stroke-width:4; stroke-opacity:1; fill:none" points="
  238.13,410.699 263.506,410.699 
  "/>
<polyline clip-path="url(#clip080)" style="stroke:#000000; stroke-width:4; stroke-opacity:1; fill:none" points="
  238.13,86.1857 263.506,86.1857 
  "/>
<path clip-path="url(#clip080)" d="M 0 0 M126.205 1370.04 Q122.593 1370.04 120.765 1373.6 Q118.959 1377.14 118.959 1384.27 Q118.959 1391.38 120.765 1394.94 Q122.593 1398.49 126.205 1398.49 Q129.839 1398.49 131.644 1394.94 Q133.473 1391.38 133.473 1384.27 Q133.473 1377.14 131.644 1373.6 Q129.839 1370.04 126.205 1370.04 M126.205 1366.33 Q132.015 1366.33 135.07 1370.94 Q138.149 1375.52 138.149 1384.27 Q138.149 1393 135.07 1397.61 Q132.015 1402.19 126.205 1402.19 Q120.394 1402.19 117.316 1397.61 Q114.26 1393 114.26 1384.27 Q114.26 1375.52 117.316 1370.94 Q120.394 1366.33 126.205 1366.33 Z" fill="#000000" fill-rule="evenodd" fill-opacity="1" /><path clip-path="url(#clip080)" d="M 0 0 M143.218 1395.64 L148.103 1395.64 L148.103 1401.52 L143.218 1401.52 L143.218 1395.64 Z" fill="#000000" fill-rule="evenodd" fill-opacity="1" /><path clip-path="url(#clip080)" d="M 0 0 M163.172 1370.04 Q159.561 1370.04 157.732 1373.6 Q155.927 1377.14 155.927 1384.27 Q155.927 1391.38 157.732 1394.94 Q159.561 1398.49 163.172 1398.49 Q166.806 1398.49 168.612 1394.94 Q170.44 1391.38 170.44 1384.27 Q170.44 1377.14 168.612 1373.6 Q166.806 1370.04 163.172 1370.04 M163.172 1366.33 Q168.982 1366.33 172.038 1370.94 Q175.116 1375.52 175.116 1384.27 Q175.116 1393 172.038 1397.61 Q168.982 1402.19 163.172 1402.19 Q157.362 1402.19 154.283 1397.61 Q151.228 1393 151.228 1384.27 Q151.228 1375.52 154.283 1370.94 Q157.362 1366.33 163.172 1366.33 Z" fill="#000000" fill-rule="evenodd" fill-opacity="1" /><path clip-path="url(#clip080)" d="M 0 0 M190.186 1370.04 Q186.575 1370.04 184.746 1373.6 Q182.94 1377.14 182.94 1384.27 Q182.94 1391.38 184.746 1394.94 Q186.575 1398.49 190.186 1398.49 Q193.82 1398.49 195.625 1394.94 Q197.454 1391.38 197.454 1384.27 Q197.454 1377.14 195.625 1373.6 Q193.82 1370.04 190.186 1370.04 M190.186 1366.33 Q195.996 1366.33 199.051 1370.94 Q202.13 1375.52 202.13 1384.27 Q202.13 1393 199.051 1397.61 Q195.996 1402.19 190.186 1402.19 Q184.376 1402.19 181.297 1397.61 Q178.241 1393 178.241 1384.27 Q178.241 1375.52 181.297 1370.94 Q184.376 1366.33 190.186 1366.33 Z" fill="#000000" fill-rule="evenodd" fill-opacity="1" /><path clip-path="url(#clip080)" d="M 0 0 M128.797 1045.52 Q125.186 1045.52 123.357 1049.09 Q121.552 1052.63 121.552 1059.76 Q121.552 1066.87 123.357 1070.43 Q125.186 1073.97 128.797 1073.97 Q132.431 1073.97 134.237 1070.43 Q136.066 1066.87 136.066 1059.76 Q136.066 1052.63 134.237 1049.09 Q132.431 1045.52 128.797 1045.52 M128.797 1041.82 Q134.607 1041.82 137.663 1046.43 Q140.741 1051.01 140.741 1059.76 Q140.741 1068.49 137.663 1073.09 Q134.607 1077.68 128.797 1077.68 Q122.987 1077.68 119.908 1073.09 Q116.853 1068.49 116.853 1059.76 Q116.853 1051.01 119.908 1046.43 Q122.987 1041.82 128.797 1041.82 Z" fill="#000000" fill-rule="evenodd" fill-opacity="1" /><path clip-path="url(#clip080)" d="M 0 0 M145.811 1071.13 L150.695 1071.13 L150.695 1077.01 L145.811 1077.01 L145.811 1071.13 Z" fill="#000000" fill-rule="evenodd" fill-opacity="1" /><path clip-path="url(#clip080)" d="M 0 0 M159.792 1073.07 L176.112 1073.07 L176.112 1077.01 L154.167 1077.01 L154.167 1073.07 Q156.829 1070.32 161.413 1065.69 Q166.019 1061.03 167.2 1059.69 Q169.445 1057.17 170.325 1055.43 Q171.227 1053.67 171.227 1051.98 Q171.227 1049.23 169.283 1047.49 Q167.362 1045.76 164.26 1045.76 Q162.061 1045.76 159.607 1046.52 Q157.177 1047.28 154.399 1048.83 L154.399 1044.11 Q157.223 1042.98 159.677 1042.4 Q162.13 1041.82 164.167 1041.82 Q169.538 1041.82 172.732 1044.51 Q175.926 1047.19 175.926 1051.68 Q175.926 1053.81 175.116 1055.73 Q174.329 1057.63 172.223 1060.22 Q171.644 1060.89 168.542 1064.11 Q165.44 1067.31 159.792 1073.07 Z" fill="#000000" fill-rule="evenodd" fill-opacity="1" /><path clip-path="url(#clip080)" d="M 0 0 M181.227 1042.45 L199.584 1042.45 L199.584 1046.38 L185.51 1046.38 L185.51 1054.85 Q186.528 1054.51 187.547 1054.34 Q188.565 1054.16 189.584 1054.16 Q195.371 1054.16 198.75 1057.33 Q202.13 1060.5 202.13 1065.92 Q202.13 1071.5 198.658 1074.6 Q195.186 1077.68 188.866 1077.68 Q186.69 1077.68 184.422 1077.31 Q182.176 1076.94 179.769 1076.19 L179.769 1071.5 Q181.852 1072.63 184.075 1073.19 Q186.297 1073.74 188.774 1073.74 Q192.778 1073.74 195.116 1071.63 Q197.454 1069.53 197.454 1065.92 Q197.454 1062.31 195.116 1060.2 Q192.778 1058.09 188.774 1058.09 Q186.899 1058.09 185.024 1058.51 Q183.172 1058.93 181.227 1059.81 L181.227 1042.45 Z" fill="#000000" fill-rule="evenodd" fill-opacity="1" /><path clip-path="url(#clip080)" d="M 0 0 M127.2 721.011 Q123.589 721.011 121.76 724.575 Q119.955 728.117 119.955 735.247 Q119.955 742.353 121.76 745.918 Q123.589 749.46 127.2 749.46 Q130.834 749.46 132.64 745.918 Q134.468 742.353 134.468 735.247 Q134.468 728.117 132.64 724.575 Q130.834 721.011 127.2 721.011 M127.2 717.307 Q133.01 717.307 136.066 721.913 Q139.144 726.497 139.144 735.247 Q139.144 743.973 136.066 748.58 Q133.01 753.163 127.2 753.163 Q121.39 753.163 118.311 748.58 Q115.256 743.973 115.256 735.247 Q115.256 726.497 118.311 721.913 Q121.39 717.307 127.2 717.307 Z" fill="#000000" fill-rule="evenodd" fill-opacity="1" /><path clip-path="url(#clip080)" d="M 0 0 M144.214 746.612 L149.098 746.612 L149.098 752.492 L144.214 752.492 L144.214 746.612 Z" fill="#000000" fill-rule="evenodd" fill-opacity="1" /><path clip-path="url(#clip080)" d="M 0 0 M154.214 717.932 L172.57 717.932 L172.57 721.867 L158.496 721.867 L158.496 730.339 Q159.515 729.992 160.533 729.83 Q161.552 729.645 162.57 729.645 Q168.357 729.645 171.737 732.816 Q175.116 735.987 175.116 741.404 Q175.116 746.983 171.644 750.085 Q168.172 753.163 161.852 753.163 Q159.677 753.163 157.408 752.793 Q155.163 752.423 152.755 751.682 L152.755 746.983 Q154.839 748.117 157.061 748.673 Q159.283 749.228 161.76 749.228 Q165.765 749.228 168.102 747.122 Q170.44 745.015 170.44 741.404 Q170.44 737.793 168.102 735.687 Q165.765 733.58 161.76 733.58 Q159.885 733.58 158.01 733.997 Q156.158 734.413 154.214 735.293 L154.214 717.932 Z" fill="#000000" fill-rule="evenodd" fill-opacity="1" /><path clip-path="url(#clip080)" d="M 0 0 M190.186 721.011 Q186.575 721.011 184.746 724.575 Q182.94 728.117 182.94 735.247 Q182.94 742.353 184.746 745.918 Q186.575 749.46 190.186 749.46 Q193.82 749.46 195.625 745.918 Q197.454 742.353 197.454 735.247 Q197.454 728.117 195.625 724.575 Q193.82 721.011 190.186 721.011 M190.186 717.307 Q195.996 717.307 199.051 721.913 Q202.13 726.497 202.13 735.247 Q202.13 743.973 199.051 748.58 Q195.996 753.163 190.186 753.163 Q184.376 753.163 181.297 748.58 Q178.241 743.973 178.241 735.247 Q178.241 726.497 181.297 721.913 Q184.376 717.307 190.186 717.307 Z" fill="#000000" fill-rule="evenodd" fill-opacity="1" /><path clip-path="url(#clip080)" d="M 0 0 M128.103 396.498 Q124.492 396.498 122.663 400.062 Q120.857 403.604 120.857 410.734 Q120.857 417.84 122.663 421.405 Q124.492 424.946 128.103 424.946 Q131.737 424.946 133.542 421.405 Q135.371 417.84 135.371 410.734 Q135.371 403.604 133.542 400.062 Q131.737 396.498 128.103 396.498 M128.103 392.794 Q133.913 392.794 136.968 397.4 Q140.047 401.984 140.047 410.734 Q140.047 419.46 136.968 424.067 Q133.913 428.65 128.103 428.65 Q122.293 428.65 119.214 424.067 Q116.158 419.46 116.158 410.734 Q116.158 401.984 119.214 397.4 Q122.293 392.794 128.103 392.794 Z" fill="#000000" fill-rule="evenodd" fill-opacity="1" /><path clip-path="url(#clip080)" d="M 0 0 M145.116 422.099 L150.001 422.099 L150.001 427.979 L145.116 427.979 L145.116 422.099 Z" fill="#000000" fill-rule="evenodd" fill-opacity="1" /><path clip-path="url(#clip080)" d="M 0 0 M153.89 393.419 L176.112 393.419 L176.112 395.41 L163.565 427.979 L158.681 427.979 L170.487 397.354 L153.89 397.354 L153.89 393.419 Z" fill="#000000" fill-rule="evenodd" fill-opacity="1" /><path clip-path="url(#clip080)" d="M 0 0 M181.227 393.419 L199.584 393.419 L199.584 397.354 L185.51 397.354 L185.51 405.826 Q186.528 405.479 187.547 405.317 Q188.565 405.132 189.584 405.132 Q195.371 405.132 198.75 408.303 Q202.13 411.474 202.13 416.891 Q202.13 422.47 198.658 425.571 Q195.186 428.65 188.866 428.65 Q186.69 428.65 184.422 428.28 Q182.176 427.909 179.769 427.169 L179.769 422.47 Q181.852 423.604 184.075 424.159 Q186.297 424.715 188.774 424.715 Q192.778 424.715 195.116 422.608 Q197.454 420.502 197.454 416.891 Q197.454 413.28 195.116 411.173 Q192.778 409.067 188.774 409.067 Q186.899 409.067 185.024 409.484 Q183.172 409.9 181.227 410.78 L181.227 393.419 Z" fill="#000000" fill-rule="evenodd" fill-opacity="1" /><path clip-path="url(#clip080)" d="M 0 0 M118.242 99.5305 L125.88 99.5305 L125.88 73.1649 L117.57 74.8316 L117.57 70.5723 L125.834 68.9057 L130.51 68.9057 L130.51 99.5305 L138.149 99.5305 L138.149 103.466 L118.242 103.466 L118.242 99.5305 Z" fill="#000000" fill-rule="evenodd" fill-opacity="1" /><path clip-path="url(#clip080)" d="M 0 0 M143.218 97.5861 L148.103 97.5861 L148.103 103.466 L143.218 103.466 L143.218 97.5861 Z" fill="#000000" fill-rule="evenodd" fill-opacity="1" /><path clip-path="url(#clip080)" d="M 0 0 M163.172 71.9844 Q159.561 71.9844 157.732 75.5492 Q155.927 79.0908 155.927 86.2204 Q155.927 93.3268 157.732 96.8916 Q159.561 100.433 163.172 100.433 Q166.806 100.433 168.612 96.8916 Q170.44 93.3268 170.44 86.2204 Q170.44 79.0908 168.612 75.5492 Q166.806 71.9844 163.172 71.9844 M163.172 68.2807 Q168.982 68.2807 172.038 72.8871 Q175.116 77.4704 175.116 86.2204 Q175.116 94.9472 172.038 99.5537 Q168.982 104.137 163.172 104.137 Q157.362 104.137 154.283 99.5537 Q151.228 94.9472 151.228 86.2204 Q151.228 77.4704 154.283 72.8871 Q157.362 68.2807 163.172 68.2807 Z" fill="#000000" fill-rule="evenodd" fill-opacity="1" /><path clip-path="url(#clip080)" d="M 0 0 M190.186 71.9844 Q186.575 71.9844 184.746 75.5492 Q182.94 79.0908 182.94 86.2204 Q182.94 93.3268 184.746 96.8916 Q186.575 100.433 190.186 100.433 Q193.82 100.433 195.625 96.8916 Q197.454 93.3268 197.454 86.2204 Q197.454 79.0908 195.625 75.5492 Q193.82 71.9844 190.186 71.9844 M190.186 68.2807 Q195.996 68.2807 199.051 72.8871 Q202.13 77.4704 202.13 86.2204 Q202.13 94.9472 199.051 99.5537 Q195.996 104.137 190.186 104.137 Q184.376 104.137 181.297 99.5537 Q178.241 94.9472 178.241 86.2204 Q178.241 77.4704 181.297 72.8871 Q184.376 68.2807 190.186 68.2807 Z" fill="#000000" fill-rule="evenodd" fill-opacity="1" /><path clip-path="url(#clip080)" d="M 0 0 M67.0928 718.788 Q67.0928 721.558 69.4481 723.149 Q71.8034 724.709 76.0048 724.709 Q80.1425 724.709 82.5296 723.149 Q84.885 721.558 84.885 718.788 Q84.885 716.083 82.5296 714.523 Q80.1425 712.932 76.0048 712.932 Q71.8353 712.932 69.48 714.523 Q67.0928 716.083 67.0928 718.788 M63.0506 718.788 Q63.0506 713.76 66.5517 710.799 Q70.0529 707.839 76.0048 707.839 Q81.9567 707.839 85.4579 710.831 Q88.9272 713.791 88.9272 718.788 Q88.9272 723.881 85.4579 726.841 Q81.9567 729.801 76.0048 729.801 Q70.021 729.801 66.5517 726.841 Q63.0506 723.849 63.0506 718.788 M43.667 751.635 Q43.667 754.373 46.0542 755.964 Q48.4095 757.524 52.5472 757.524 Q56.7485 757.524 59.1038 755.964 Q61.4592 754.405 61.4592 751.635 Q61.4592 748.866 59.1038 747.307 Q56.7485 745.715 52.5472 745.715 Q48.4413 745.715 46.0542 747.307 Q43.667 748.898 43.667 751.635 M39.6248 722.894 L39.6248 717.802 L88.9272 747.53 L88.9272 752.622 L39.6248 722.894 M39.6248 751.635 Q39.6248 746.607 43.1259 743.615 Q46.5952 740.623 52.5472 740.623 Q58.5628 740.623 62.0321 743.615 Q65.5014 746.575 65.5014 751.635 Q65.5014 756.696 62.0321 759.656 Q58.5309 762.585 52.5472 762.585 Q46.6271 762.585 43.1259 759.624 Q39.6248 756.664 39.6248 751.635 Z" fill="#000000" fill-rule="evenodd" fill-opacity="1" /><polyline clip-path="url(#clip082)" style="stroke:#009af9; stroke-width:4; stroke-opacity:1; fill:none" points="
  297.978,1224.93 338.691,758.813 379.404,570.005 420.117,575.906 460.829,752.913 501.542,829.616 542.255,924.02 582.968,1012.52 623.681,1089.23 664.394,1154.13 
  705.107,1201.33 745.819,1248.53 786.532,1272.13 827.245,1289.83 867.958,1289.83 908.671,1301.63 949.384,1313.44 990.097,1319.34 1030.81,1331.14 1071.52,1348.84 
  1112.24,1360.64 1152.95,1360.64 1193.66,1360.64 1234.37,1372.44 1275.09,1372.44 1315.8,1372.44 1356.51,1372.44 1397.23,1378.34 1437.94,1384.24 1478.65,1384.24 
  1519.36,1384.24 1560.08,1384.24 1600.79,1384.24 1641.5,1384.24 1682.22,1384.24 1722.93,1384.24 1763.64,1384.24 1804.35,1384.24 1845.07,1384.24 1885.78,1384.24 
  1926.49,1384.24 1967.21,1384.24 2007.92,1384.24 2048.63,1384.24 2089.34,1384.24 2130.06,1384.24 2170.77,1384.24 2211.48,1384.24 2252.2,1384.24 2292.91,1384.24 
  
  "/>
<polyline clip-path="url(#clip082)" style="stroke:#e26f46; stroke-width:4; stroke-opacity:1; fill:none" points="
  297.978,1366.54 338.691,1254.43 379.404,1101.03 420.117,924.02 460.829,723.411 501.542,646.708 542.255,546.404 582.968,457.901 623.681,381.198 664.394,316.295 
  705.107,269.093 745.819,221.891 786.532,198.29 827.245,180.589 867.958,180.589 908.671,168.789 949.384,156.989 990.097,151.088 1030.81,139.288 1071.52,121.587 
  1112.24,109.787 1152.95,109.787 1193.66,109.787 1234.37,97.9862 1275.09,97.9862 1315.8,97.9862 1356.51,97.9862 1397.23,92.0859 1437.94,86.1857 1478.65,86.1857 
  1519.36,86.1857 1560.08,86.1857 1600.79,86.1857 1641.5,86.1857 1682.22,86.1857 1722.93,86.1857 1763.64,86.1857 1804.35,86.1857 1845.07,86.1857 1885.78,86.1857 
  1926.49,86.1857 1967.21,86.1857 2007.92,86.1857 2048.63,86.1857 2089.34,86.1857 2130.06,86.1857 2170.77,86.1857 2211.48,86.1857 2252.2,86.1857 2292.91,86.1857 
  
  "/>
<polyline clip-path="url(#clip082)" style="stroke:#3da44d; stroke-width:4; stroke-opacity:1; fill:none" points="
  297.978,263.193 338.691,841.416 379.404,1183.63 420.117,1354.74 460.829,1378.34 501.542,1378.34 542.255,1384.24 582.968,1384.24 623.681,1384.24 664.394,1384.24 
  705.107,1384.24 745.819,1384.24 786.532,1384.24 827.245,1384.24 867.958,1384.24 908.671,1384.24 949.384,1384.24 990.097,1384.24 1030.81,1384.24 1071.52,1384.24 
  1112.24,1384.24 1152.95,1384.24 1193.66,1384.24 1234.37,1384.24 1275.09,1384.24 1315.8,1384.24 1356.51,1384.24 1397.23,1384.24 1437.94,1384.24 1478.65,1384.24 
  1519.36,1384.24 1560.08,1384.24 1600.79,1384.24 1641.5,1384.24 1682.22,1384.24 1722.93,1384.24 1763.64,1384.24 1804.35,1384.24 1845.07,1384.24 1885.78,1384.24 
  1926.49,1384.24 1967.21,1384.24 2007.92,1384.24 2048.63,1384.24 2089.34,1384.24 2130.06,1384.24 2170.77,1384.24 2211.48,1384.24 2252.2,1384.24 2292.91,1384.24 
  
  "/>
<path clip-path="url(#clip080)" d="
M1808.54 335.029 L2282.27 335.029 L2282.27 93.1086 L1808.54 93.1086  Z
  " fill="#ffffff" fill-rule="evenodd" fill-opacity="1"/>
<polyline clip-path="url(#clip080)" style="stroke:#000000; stroke-width:4; stroke-opacity:1; fill:none" points="
  1808.54,335.029 2282.27,335.029 2282.27,93.1086 1808.54,93.1086 1808.54,335.029 
  "/>
<polyline clip-path="url(#clip080)" style="stroke:#009af9; stroke-width:4; stroke-opacity:1; fill:none" points="
  1832.03,153.589 1973.01,153.589 
  "/>
<path clip-path="url(#clip080)" d="M 0 0 M1996.5 136.309 L2001.18 136.309 L2001.18 170.869 L1996.5 170.869 L1996.5 136.309 Z" fill="#000000" fill-rule="evenodd" fill-opacity="1" /><path clip-path="url(#clip080)" d="M 0 0 M2027.2 155.221 L2027.2 170.869 L2022.94 170.869 L2022.94 155.359 Q2022.94 151.679 2021.5 149.85 Q2020.07 148.022 2017.2 148.022 Q2013.75 148.022 2011.76 150.221 Q2009.77 152.42 2009.77 156.216 L2009.77 170.869 L2005.49 170.869 L2005.49 144.943 L2009.77 144.943 L2009.77 148.971 Q2011.3 146.633 2013.36 145.475 Q2015.44 144.318 2018.15 144.318 Q2022.62 144.318 2024.91 147.096 Q2027.2 149.85 2027.2 155.221 Z" fill="#000000" fill-rule="evenodd" fill-opacity="1" /><path clip-path="url(#clip080)" d="M 0 0 M2044.79 134.85 L2044.79 138.392 L2040.72 138.392 Q2038.43 138.392 2037.52 139.318 Q2036.64 140.244 2036.64 142.651 L2036.64 144.943 L2043.66 144.943 L2043.66 148.253 L2036.64 148.253 L2036.64 170.869 L2032.36 170.869 L2032.36 148.253 L2028.29 148.253 L2028.29 144.943 L2032.36 144.943 L2032.36 143.137 Q2032.36 138.809 2034.37 136.841 Q2036.39 134.85 2040.76 134.85 L2044.79 134.85 Z" fill="#000000" fill-rule="evenodd" fill-opacity="1" /><path clip-path="url(#clip080)" d="M 0 0 M2071.43 156.841 L2071.43 158.924 L2051.85 158.924 Q2052.13 163.322 2054.49 165.637 Q2056.87 167.929 2061.11 167.929 Q2063.56 167.929 2065.86 167.327 Q2068.17 166.725 2070.44 165.521 L2070.44 169.549 Q2068.15 170.521 2065.74 171.031 Q2063.33 171.54 2060.86 171.54 Q2054.65 171.54 2051.02 167.929 Q2047.41 164.318 2047.41 158.16 Q2047.41 151.795 2050.83 148.068 Q2054.28 144.318 2060.12 144.318 Q2065.35 144.318 2068.38 147.697 Q2071.43 151.054 2071.43 156.841 M2067.18 155.591 Q2067.13 152.096 2065.21 150.012 Q2063.31 147.929 2060.16 147.929 Q2056.6 147.929 2054.44 149.943 Q2052.31 151.957 2051.99 155.614 L2067.18 155.591 Z" fill="#000000" fill-rule="evenodd" fill-opacity="1" /><path clip-path="url(#clip080)" d="M 0 0 M2094.56 145.938 L2094.56 149.92 Q2092.75 148.924 2090.93 148.438 Q2089.12 147.929 2087.27 147.929 Q2083.12 147.929 2080.83 150.568 Q2078.54 153.184 2078.54 157.929 Q2078.54 162.674 2080.83 165.313 Q2083.12 167.929 2087.27 167.929 Q2089.12 167.929 2090.93 167.443 Q2092.75 166.933 2094.56 165.938 L2094.56 169.873 Q2092.78 170.707 2090.86 171.123 Q2088.96 171.54 2086.81 171.54 Q2080.95 171.54 2077.5 167.859 Q2074.05 164.179 2074.05 157.929 Q2074.05 151.586 2077.52 147.952 Q2081.02 144.318 2087.08 144.318 Q2089.05 144.318 2090.93 144.735 Q2092.8 145.128 2094.56 145.938 Z" fill="#000000" fill-rule="evenodd" fill-opacity="1" /><path clip-path="url(#clip080)" d="M 0 0 M2103.24 137.582 L2103.24 144.943 L2112.01 144.943 L2112.01 148.253 L2103.24 148.253 L2103.24 162.327 Q2103.24 165.498 2104.1 166.401 Q2104.98 167.304 2107.64 167.304 L2112.01 167.304 L2112.01 170.869 L2107.64 170.869 Q2102.71 170.869 2100.83 169.04 Q2098.96 167.188 2098.96 162.327 L2098.96 148.253 L2095.83 148.253 L2095.83 144.943 L2098.96 144.943 L2098.96 137.582 L2103.24 137.582 Z" fill="#000000" fill-rule="evenodd" fill-opacity="1" /><path clip-path="url(#clip080)" d="M 0 0 M2138.66 156.841 L2138.66 158.924 L2119.07 158.924 Q2119.35 163.322 2121.71 165.637 Q2124.1 167.929 2128.33 167.929 Q2130.79 167.929 2133.08 167.327 Q2135.39 166.725 2137.66 165.521 L2137.66 169.549 Q2135.37 170.521 2132.96 171.031 Q2130.56 171.54 2128.08 171.54 Q2121.87 171.54 2118.24 167.929 Q2114.63 164.318 2114.63 158.16 Q2114.63 151.795 2118.06 148.068 Q2121.5 144.318 2127.34 144.318 Q2132.57 144.318 2135.6 147.697 Q2138.66 151.054 2138.66 156.841 M2134.4 155.591 Q2134.35 152.096 2132.43 150.012 Q2130.53 147.929 2127.38 147.929 Q2123.82 147.929 2121.67 149.943 Q2119.54 151.957 2119.21 155.614 L2134.4 155.591 Z" fill="#000000" fill-rule="evenodd" fill-opacity="1" /><path clip-path="url(#clip080)" d="M 0 0 M2160.18 148.878 L2160.18 134.85 L2164.44 134.85 L2164.44 170.869 L2160.18 170.869 L2160.18 166.98 Q2158.84 169.295 2156.78 170.429 Q2154.74 171.54 2151.87 171.54 Q2147.18 171.54 2144.21 167.79 Q2141.27 164.04 2141.27 157.929 Q2141.27 151.818 2144.21 148.068 Q2147.18 144.318 2151.87 144.318 Q2154.74 144.318 2156.78 145.452 Q2158.84 146.563 2160.18 148.878 M2145.67 157.929 Q2145.67 162.628 2147.59 165.313 Q2149.54 167.975 2152.92 167.975 Q2156.3 167.975 2158.24 165.313 Q2160.18 162.628 2160.18 157.929 Q2160.18 153.23 2158.24 150.568 Q2156.3 147.883 2152.92 147.883 Q2149.54 147.883 2147.59 150.568 Q2145.67 153.23 2145.67 157.929 Z" fill="#000000" fill-rule="evenodd" fill-opacity="1" /><polyline clip-path="url(#clip080)" style="stroke:#e26f46; stroke-width:4; stroke-opacity:1; fill:none" points="
  1832.03,214.069 1973.01,214.069 
  "/>
<path clip-path="url(#clip080)" d="M 0 0 M2012.89 215.145 Q2014.4 215.654 2015.81 217.321 Q2017.25 218.988 2018.68 221.904 L2023.43 231.349 L2018.4 231.349 L2013.98 222.483 Q2012.27 219.011 2010.65 217.876 Q2009.05 216.742 2006.27 216.742 L2001.18 216.742 L2001.18 231.349 L1996.5 231.349 L1996.5 196.789 L2007.06 196.789 Q2012.99 196.789 2015.9 199.265 Q2018.82 201.742 2018.82 206.742 Q2018.82 210.006 2017.29 212.159 Q2015.79 214.312 2012.89 215.145 M2001.18 200.631 L2001.18 212.9 L2007.06 212.9 Q2010.44 212.9 2012.15 211.349 Q2013.89 209.775 2013.89 206.742 Q2013.89 203.71 2012.15 202.182 Q2010.44 200.631 2007.06 200.631 L2001.18 200.631 Z" fill="#000000" fill-rule="evenodd" fill-opacity="1" /><path clip-path="url(#clip080)" d="M 0 0 M2047.94 217.321 L2047.94 219.404 L2028.36 219.404 Q2028.63 223.802 2031 226.117 Q2033.38 228.409 2037.62 228.409 Q2040.07 228.409 2042.36 227.807 Q2044.68 227.205 2046.94 226.001 L2046.94 230.029 Q2044.65 231.001 2042.25 231.511 Q2039.84 232.02 2037.36 232.02 Q2031.16 232.02 2027.52 228.409 Q2023.91 224.798 2023.91 218.64 Q2023.91 212.275 2027.34 208.548 Q2030.79 204.798 2036.62 204.798 Q2041.85 204.798 2044.88 208.177 Q2047.94 211.534 2047.94 217.321 M2043.68 216.071 Q2043.63 212.576 2041.71 210.492 Q2039.81 208.409 2036.67 208.409 Q2033.1 208.409 2030.95 210.423 Q2028.82 212.437 2028.5 216.094 L2043.68 216.071 Z" fill="#000000" fill-rule="evenodd" fill-opacity="1" /><path clip-path="url(#clip080)" d="M 0 0 M2071.06 206.418 L2071.06 210.4 Q2069.26 209.404 2067.43 208.918 Q2065.62 208.409 2063.77 208.409 Q2059.63 208.409 2057.34 211.048 Q2055.05 213.664 2055.05 218.409 Q2055.05 223.154 2057.34 225.793 Q2059.63 228.409 2063.77 228.409 Q2065.62 228.409 2067.43 227.923 Q2069.26 227.413 2071.06 226.418 L2071.06 230.353 Q2069.28 231.187 2067.36 231.603 Q2065.46 232.02 2063.31 232.02 Q2057.45 232.02 2054 228.339 Q2050.56 224.659 2050.56 218.409 Q2050.56 212.066 2054.03 208.432 Q2057.52 204.798 2063.59 204.798 Q2065.56 204.798 2067.43 205.215 Q2069.31 205.608 2071.06 206.418 Z" fill="#000000" fill-rule="evenodd" fill-opacity="1" /><path clip-path="url(#clip080)" d="M 0 0 M2085.58 208.409 Q2082.15 208.409 2080.16 211.094 Q2078.17 213.756 2078.17 218.409 Q2078.17 223.062 2080.14 225.747 Q2082.13 228.409 2085.58 228.409 Q2088.98 228.409 2090.97 225.724 Q2092.96 223.038 2092.96 218.409 Q2092.96 213.802 2090.97 211.117 Q2088.98 208.409 2085.58 208.409 M2085.58 204.798 Q2091.13 204.798 2094.31 208.409 Q2097.48 212.02 2097.48 218.409 Q2097.48 224.775 2094.31 228.409 Q2091.13 232.02 2085.58 232.02 Q2080 232.02 2076.83 228.409 Q2073.68 224.775 2073.68 218.409 Q2073.68 212.02 2076.83 208.409 Q2080 204.798 2085.58 204.798 Z" fill="#000000" fill-rule="evenodd" fill-opacity="1" /><path clip-path="url(#clip080)" d="M 0 0 M2098.89 205.423 L2103.4 205.423 L2111.5 227.182 L2119.61 205.423 L2124.12 205.423 L2114.4 231.349 L2108.61 231.349 L2098.89 205.423 Z" fill="#000000" fill-rule="evenodd" fill-opacity="1" /><path clip-path="url(#clip080)" d="M 0 0 M2150.76 217.321 L2150.76 219.404 L2131.18 219.404 Q2131.46 223.802 2133.82 226.117 Q2136.2 228.409 2140.44 228.409 Q2142.89 228.409 2145.18 227.807 Q2147.5 227.205 2149.77 226.001 L2149.77 230.029 Q2147.48 231.001 2145.07 231.511 Q2142.66 232.02 2140.18 232.02 Q2133.98 232.02 2130.35 228.409 Q2126.74 224.798 2126.74 218.64 Q2126.74 212.275 2130.16 208.548 Q2133.61 204.798 2139.44 204.798 Q2144.68 204.798 2147.71 208.177 Q2150.76 211.534 2150.76 217.321 M2146.5 216.071 Q2146.46 212.576 2144.54 210.492 Q2142.64 208.409 2139.49 208.409 Q2135.93 208.409 2133.77 210.423 Q2131.64 212.437 2131.32 216.094 L2146.5 216.071 Z" fill="#000000" fill-rule="evenodd" fill-opacity="1" /><path clip-path="url(#clip080)" d="M 0 0 M2170.25 209.404 Q2169.54 208.988 2168.68 208.802 Q2167.85 208.594 2166.83 208.594 Q2163.22 208.594 2161.27 210.955 Q2159.35 213.293 2159.35 217.691 L2159.35 231.349 L2155.07 231.349 L2155.07 205.423 L2159.35 205.423 L2159.35 209.451 Q2160.69 207.089 2162.85 205.955 Q2165 204.798 2168.08 204.798 Q2168.52 204.798 2169.05 204.867 Q2169.58 204.914 2170.23 205.029 L2170.25 209.404 Z" fill="#000000" fill-rule="evenodd" fill-opacity="1" /><path clip-path="url(#clip080)" d="M 0 0 M2195.86 217.321 L2195.86 219.404 L2176.27 219.404 Q2176.55 223.802 2178.91 226.117 Q2181.3 228.409 2185.53 228.409 Q2187.99 228.409 2190.28 227.807 Q2192.59 227.205 2194.86 226.001 L2194.86 230.029 Q2192.57 231.001 2190.16 231.511 Q2187.75 232.02 2185.28 232.02 Q2179.07 232.02 2175.44 228.409 Q2171.83 224.798 2171.83 218.64 Q2171.83 212.275 2175.25 208.548 Q2178.7 204.798 2184.54 204.798 Q2189.77 204.798 2192.8 208.177 Q2195.86 211.534 2195.86 217.321 M2191.6 216.071 Q2191.55 212.576 2189.63 210.492 Q2187.73 208.409 2184.58 208.409 Q2181.02 208.409 2178.86 210.423 Q2176.74 212.437 2176.41 216.094 L2191.6 216.071 Z" fill="#000000" fill-rule="evenodd" fill-opacity="1" /><path clip-path="url(#clip080)" d="M 0 0 M2217.38 209.358 L2217.38 195.33 L2221.64 195.33 L2221.64 231.349 L2217.38 231.349 L2217.38 227.46 Q2216.04 229.775 2213.98 230.909 Q2211.94 232.02 2209.07 232.02 Q2204.37 232.02 2201.41 228.27 Q2198.47 224.52 2198.47 218.409 Q2198.47 212.298 2201.41 208.548 Q2204.37 204.798 2209.07 204.798 Q2211.94 204.798 2213.98 205.932 Q2216.04 207.043 2217.38 209.358 M2202.87 218.409 Q2202.87 223.108 2204.79 225.793 Q2206.74 228.455 2210.11 228.455 Q2213.49 228.455 2215.44 225.793 Q2217.38 223.108 2217.38 218.409 Q2217.38 213.71 2215.44 211.048 Q2213.49 208.363 2210.11 208.363 Q2206.74 208.363 2204.79 211.048 Q2202.87 213.71 2202.87 218.409 Z" fill="#000000" fill-rule="evenodd" fill-opacity="1" /><polyline clip-path="url(#clip080)" style="stroke:#3da44d; stroke-width:4; stroke-opacity:1; fill:none" points="
  1832.03,274.549 1973.01,274.549 
  "/>
<path clip-path="url(#clip080)" d="M 0 0 M2018.75 258.403 L2018.75 262.963 Q2016.09 261.69 2013.73 261.065 Q2011.37 260.44 2009.17 260.44 Q2005.35 260.44 2003.26 261.921 Q2001.2 263.403 2001.2 266.134 Q2001.2 268.426 2002.57 269.607 Q2003.96 270.764 2007.8 271.482 L2010.63 272.06 Q2015.86 273.056 2018.33 275.579 Q2020.83 278.079 2020.83 282.292 Q2020.83 287.315 2017.45 289.907 Q2014.1 292.5 2007.59 292.5 Q2005.14 292.5 2002.36 291.944 Q1999.61 291.389 1996.64 290.301 L1996.64 285.486 Q1999.49 287.083 2002.22 287.893 Q2004.95 288.704 2007.59 288.704 Q2011.6 288.704 2013.77 287.13 Q2015.95 285.556 2015.95 282.639 Q2015.95 280.093 2014.38 278.657 Q2012.82 277.222 2009.26 276.505 L2006.41 275.949 Q2001.18 274.907 1998.84 272.685 Q1996.5 270.463 1996.5 266.505 Q1996.5 261.921 1999.72 259.282 Q2002.96 256.644 2008.63 256.644 Q2011.06 256.644 2013.59 257.083 Q2016.11 257.523 2018.75 258.403 Z" fill="#000000" fill-rule="evenodd" fill-opacity="1" /><path clip-path="url(#clip080)" d="M 0 0 M2024.86 281.597 L2024.86 265.903 L2029.12 265.903 L2029.12 281.435 Q2029.12 285.116 2030.56 286.968 Q2031.99 288.796 2034.86 288.796 Q2038.31 288.796 2040.3 286.597 Q2042.31 284.398 2042.31 280.602 L2042.31 265.903 L2046.57 265.903 L2046.57 291.829 L2042.31 291.829 L2042.31 287.847 Q2040.76 290.208 2038.7 291.366 Q2036.67 292.5 2033.96 292.5 Q2029.49 292.5 2027.18 289.722 Q2024.86 286.944 2024.86 281.597 M2035.58 265.278 L2035.58 265.278 Z" fill="#000000" fill-rule="evenodd" fill-opacity="1" /><path clip-path="url(#clip080)" d="M 0 0 M2067.57 266.667 L2067.57 270.694 Q2065.76 269.769 2063.82 269.306 Q2061.87 268.843 2059.79 268.843 Q2056.62 268.843 2055.02 269.815 Q2053.45 270.787 2053.45 272.731 Q2053.45 274.213 2054.58 275.069 Q2055.72 275.903 2059.14 276.667 L2060.6 276.991 Q2065.14 277.963 2067.04 279.745 Q2068.96 281.505 2068.96 284.676 Q2068.96 288.287 2066.09 290.393 Q2063.24 292.5 2058.24 292.5 Q2056.16 292.5 2053.89 292.083 Q2051.64 291.69 2049.14 290.88 L2049.14 286.481 Q2051.5 287.708 2053.8 288.333 Q2056.09 288.935 2058.33 288.935 Q2061.34 288.935 2062.96 287.917 Q2064.58 286.875 2064.58 285 Q2064.58 283.264 2063.4 282.338 Q2062.25 281.412 2058.29 280.556 L2056.81 280.208 Q2052.85 279.375 2051.09 277.662 Q2049.33 275.926 2049.33 272.917 Q2049.33 269.259 2051.92 267.269 Q2054.51 265.278 2059.28 265.278 Q2061.64 265.278 2063.73 265.625 Q2065.81 265.972 2067.57 266.667 Z" fill="#000000" fill-rule="evenodd" fill-opacity="1" /><path clip-path="url(#clip080)" d="M 0 0 M2092.08 266.898 L2092.08 270.88 Q2090.28 269.884 2088.45 269.398 Q2086.64 268.889 2084.79 268.889 Q2080.65 268.889 2078.36 271.528 Q2076.06 274.144 2076.06 278.889 Q2076.06 283.634 2078.36 286.273 Q2080.65 288.889 2084.79 288.889 Q2086.64 288.889 2088.45 288.403 Q2090.28 287.893 2092.08 286.898 L2092.08 290.833 Q2090.3 291.667 2088.38 292.083 Q2086.48 292.5 2084.33 292.5 Q2078.47 292.5 2075.02 288.819 Q2071.57 285.139 2071.57 278.889 Q2071.57 272.546 2075.05 268.912 Q2078.54 265.278 2084.61 265.278 Q2086.57 265.278 2088.45 265.695 Q2090.32 266.088 2092.08 266.898 Z" fill="#000000" fill-rule="evenodd" fill-opacity="1" /><path clip-path="url(#clip080)" d="M 0 0 M2118.73 277.801 L2118.73 279.884 L2099.14 279.884 Q2099.42 284.282 2101.78 286.597 Q2104.17 288.889 2108.4 288.889 Q2110.86 288.889 2113.15 288.287 Q2115.46 287.685 2117.73 286.481 L2117.73 290.509 Q2115.44 291.481 2113.03 291.991 Q2110.62 292.5 2108.15 292.5 Q2101.94 292.5 2098.31 288.889 Q2094.7 285.278 2094.7 279.12 Q2094.7 272.755 2098.12 269.028 Q2101.57 265.278 2107.41 265.278 Q2112.64 265.278 2115.67 268.657 Q2118.73 272.014 2118.73 277.801 M2114.47 276.551 Q2114.42 273.056 2112.5 270.972 Q2110.6 268.889 2107.45 268.889 Q2103.89 268.889 2101.74 270.903 Q2099.61 272.917 2099.28 276.574 L2114.47 276.551 Z" fill="#000000" fill-rule="evenodd" fill-opacity="1" /><path clip-path="url(#clip080)" d="M 0 0 M2127.31 287.94 L2127.31 301.69 L2123.03 301.69 L2123.03 265.903 L2127.31 265.903 L2127.31 269.838 Q2128.66 267.523 2130.69 266.412 Q2132.75 265.278 2135.6 265.278 Q2140.32 265.278 2143.26 269.028 Q2146.23 272.778 2146.23 278.889 Q2146.23 285 2143.26 288.75 Q2140.32 292.5 2135.6 292.5 Q2132.75 292.5 2130.69 291.389 Q2128.66 290.255 2127.31 287.94 M2141.8 278.889 Q2141.8 274.19 2139.86 271.528 Q2137.94 268.843 2134.56 268.843 Q2131.18 268.843 2129.24 271.528 Q2127.31 274.19 2127.31 278.889 Q2127.31 283.588 2129.24 286.273 Q2131.18 288.935 2134.56 288.935 Q2137.94 288.935 2139.86 286.273 Q2141.8 283.588 2141.8 278.889 Z" fill="#000000" fill-rule="evenodd" fill-opacity="1" /><path clip-path="url(#clip080)" d="M 0 0 M2154.91 258.542 L2154.91 265.903 L2163.68 265.903 L2163.68 269.213 L2154.91 269.213 L2154.91 283.287 Q2154.91 286.458 2155.76 287.361 Q2156.64 288.264 2159.3 288.264 L2163.68 288.264 L2163.68 291.829 L2159.3 291.829 Q2154.37 291.829 2152.5 290 Q2150.62 288.148 2150.62 283.287 L2150.62 269.213 L2147.5 269.213 L2147.5 265.903 L2150.62 265.903 L2150.62 258.542 L2154.91 258.542 Z" fill="#000000" fill-rule="evenodd" fill-opacity="1" /><path clip-path="url(#clip080)" d="M 0 0 M2168.15 265.903 L2172.41 265.903 L2172.41 291.829 L2168.15 291.829 L2168.15 265.903 M2168.15 255.81 L2172.41 255.81 L2172.41 261.204 L2168.15 261.204 L2168.15 255.81 Z" fill="#000000" fill-rule="evenodd" fill-opacity="1" /><path clip-path="url(#clip080)" d="M 0 0 M2195.49 278.889 Q2195.49 274.19 2193.54 271.528 Q2191.62 268.843 2188.24 268.843 Q2184.86 268.843 2182.92 271.528 Q2180.99 274.19 2180.99 278.889 Q2180.99 283.588 2182.92 286.273 Q2184.86 288.935 2188.24 288.935 Q2191.62 288.935 2193.54 286.273 Q2195.49 283.588 2195.49 278.889 M2180.99 269.838 Q2182.34 267.523 2184.37 266.412 Q2186.43 265.278 2189.28 265.278 Q2194 265.278 2196.94 269.028 Q2199.91 272.778 2199.91 278.889 Q2199.91 285 2196.94 288.75 Q2194 292.5 2189.28 292.5 Q2186.43 292.5 2184.37 291.389 Q2182.34 290.255 2180.99 287.94 L2180.99 291.829 L2176.71 291.829 L2176.71 255.81 L2180.99 255.81 L2180.99 269.838 Z" fill="#000000" fill-rule="evenodd" fill-opacity="1" /><path clip-path="url(#clip080)" d="M 0 0 M2204.37 255.81 L2208.63 255.81 L2208.63 291.829 L2204.37 291.829 L2204.37 255.81 Z" fill="#000000" fill-rule="evenodd" fill-opacity="1" /><path clip-path="url(#clip080)" d="M 0 0 M2235.28 277.801 L2235.28 279.884 L2215.69 279.884 Q2215.97 284.282 2218.33 286.597 Q2220.72 288.889 2224.95 288.889 Q2227.41 288.889 2229.7 288.287 Q2232.01 287.685 2234.28 286.481 L2234.28 290.509 Q2231.99 291.481 2229.58 291.991 Q2227.17 292.5 2224.7 292.5 Q2218.49 292.5 2214.86 288.889 Q2211.25 285.278 2211.25 279.12 Q2211.25 272.755 2214.67 269.028 Q2218.12 265.278 2223.96 265.278 Q2229.19 265.278 2232.22 268.657 Q2235.28 272.014 2235.28 277.801 M2231.02 276.551 Q2230.97 273.056 2229.05 270.972 Q2227.15 268.889 2224 268.889 Q2220.44 268.889 2218.29 270.903 Q2216.16 272.917 2215.83 276.574 L2231.02 276.551 Z" fill="#000000" fill-rule="evenodd" fill-opacity="1" /></svg>
