<?xml version="1.0" encoding="utf-8"?>
<svg xmlns="http://www.w3.org/2000/svg" xmlns:xlink="http://www.w3.org/1999/xlink" width="600" height="400" viewBox="0 0 2400 1600">
<defs>
  <clipPath id="clip720">
    <rect x="0" y="0" width="2400" height="1600"/>
  </clipPath>
</defs>
<path clip-path="url(#clip720)" d="
M0 1600 L2400 1600 L2400 0 L0 0  Z
  " fill="#ffffff" fill-rule="evenodd" fill-opacity="1"/>
<defs>
  <clipPath id="clip721">
    <rect x="480" y="0" width="1681" height="1600"/>
  </clipPath>
</defs>
<path clip-path="url(#clip720)" d="
M211.602 1423.18 L2352.76 1423.18 L2352.76 47.2441 L211.602 47.2441  Z
  " fill="#ffffff" fill-rule="evenodd" fill-opacity="1"/>
<defs>
  <clipPath id="clip722">
    <rect x="211" y="47" width="2142" height="1377"/>
  </clipPath>
</defs>
<polyline clip-path="url(#clip722)" style="stroke:#000000; stroke-width:2; stroke-opacity:0.1; fill:none" points="
  246.632,1423.18 246.632,47.2441 
  "/>
<polyline clip-path="url(#clip722)" style="stroke:#000000; stroke-width:2; stroke-opacity:0.1; fill:none" points="
  553.461,1423.18 553.461,47.2441 
  "/>
<polyline clip-path="url(#clip722)" style="stroke:#000000; stroke-width:2; stroke-opacity:0.1; fill:none" points="
  860.29,1423.18 860.29,47.2441 
  "/>
<polyline clip-path="url(#clip722)" style="stroke:#000000; stroke-width:2; stroke-opacity:0.1; fill:none" points="
  1167.12,1423.18 1167.12,47.2441 
  "/>
<polyline clip-path="url(#clip722)" style="stroke:#000000; stroke-width:2; stroke-opacity:0.1; fill:none" points="
  1473.95,1423.18 1473.95,47.2441 
  "/>
<polyline clip-path="url(#clip722)" style="stroke:#000000; stroke-width:2; stroke-opacity:0.1; fill:none" points="
  1780.78,1423.18 1780.78,47.2441 
  "/>
<polyline clip-path="url(#clip722)" style="stroke:#000000; stroke-width:2; stroke-opacity:0.1; fill:none" points="
  2087.6,1423.18 2087.6,47.2441 
  "/>
<polyline clip-path="url(#clip720)" style="stroke:#000000; stroke-width:4; stroke-opacity:1; fill:none" points="
  211.602,1423.18 2352.76,1423.18 
  "/>
<polyline clip-path="url(#clip720)" style="stroke:#000000; stroke-width:4; stroke-opacity:1; fill:none" points="
  246.632,1423.18 246.632,1406.67 
  "/>
<polyline clip-path="url(#clip720)" style="stroke:#000000; stroke-width:4; stroke-opacity:1; fill:none" points="
  553.461,1423.18 553.461,1406.67 
  "/>
<polyline clip-path="url(#clip720)" style="stroke:#000000; stroke-width:4; stroke-opacity:1; fill:none" points="
  860.29,1423.18 860.29,1406.67 
  "/>
<polyline clip-path="url(#clip720)" style="stroke:#000000; stroke-width:4; stroke-opacity:1; fill:none" points="
  1167.12,1423.18 1167.12,1406.67 
  "/>
<polyline clip-path="url(#clip720)" style="stroke:#000000; stroke-width:4; stroke-opacity:1; fill:none" points="
  1473.95,1423.18 1473.95,1406.67 
  "/>
<polyline clip-path="url(#clip720)" style="stroke:#000000; stroke-width:4; stroke-opacity:1; fill:none" points="
  1780.78,1423.18 1780.78,1406.67 
  "/>
<polyline clip-path="url(#clip720)" style="stroke:#000000; stroke-width:4; stroke-opacity:1; fill:none" points="
  2087.6,1423.18 2087.6,1406.67 
  "/>
<path clip-path="url(#clip720)" d="M 0 0 M228.148 1452.37 Q224.537 1452.37 222.709 1455.94 Q220.903 1459.48 220.903 1466.61 Q220.903 1473.71 222.709 1477.28 Q224.537 1480.82 228.148 1480.82 Q231.783 1480.82 233.588 1477.28 Q235.417 1473.71 235.417 1466.61 Q235.417 1459.48 233.588 1455.94 Q231.783 1452.37 228.148 1452.37 M228.148 1448.67 Q233.958 1448.67 237.014 1453.27 Q240.093 1457.86 240.093 1466.61 Q240.093 1475.33 237.014 1479.94 Q233.958 1484.52 228.148 1484.52 Q222.338 1484.52 219.26 1479.94 Q216.204 1475.33 216.204 1466.61 Q216.204 1457.86 219.26 1453.27 Q222.338 1448.67 228.148 1448.67 Z" fill="#000000" fill-rule="evenodd" fill-opacity="1" /><path clip-path="url(#clip720)" d="M 0 0 M245.162 1477.97 L250.046 1477.97 L250.046 1483.85 L245.162 1483.85 L245.162 1477.97 Z" fill="#000000" fill-rule="evenodd" fill-opacity="1" /><path clip-path="url(#clip720)" d="M 0 0 M265.116 1452.37 Q261.505 1452.37 259.676 1455.94 Q257.87 1459.48 257.87 1466.61 Q257.87 1473.71 259.676 1477.28 Q261.505 1480.82 265.116 1480.82 Q268.75 1480.82 270.556 1477.28 Q272.384 1473.71 272.384 1466.61 Q272.384 1459.48 270.556 1455.94 Q268.75 1452.37 265.116 1452.37 M265.116 1448.67 Q270.926 1448.67 273.981 1453.27 Q277.06 1457.86 277.06 1466.61 Q277.06 1475.33 273.981 1479.94 Q270.926 1484.52 265.116 1484.52 Q259.306 1484.52 256.227 1479.94 Q253.171 1475.33 253.171 1466.61 Q253.171 1457.86 256.227 1453.27 Q259.306 1448.67 265.116 1448.67 Z" fill="#000000" fill-rule="evenodd" fill-opacity="1" /><path clip-path="url(#clip720)" d="M 0 0 M535.776 1452.37 Q532.165 1452.37 530.336 1455.94 Q528.53 1459.48 528.53 1466.61 Q528.53 1473.71 530.336 1477.28 Q532.165 1480.82 535.776 1480.82 Q539.41 1480.82 541.216 1477.28 Q543.044 1473.71 543.044 1466.61 Q543.044 1459.48 541.216 1455.94 Q539.41 1452.37 535.776 1452.37 M535.776 1448.67 Q541.586 1448.67 544.641 1453.27 Q547.72 1457.86 547.72 1466.61 Q547.72 1475.33 544.641 1479.94 Q541.586 1484.52 535.776 1484.52 Q529.966 1484.52 526.887 1479.94 Q523.831 1475.33 523.831 1466.61 Q523.831 1457.86 526.887 1453.27 Q529.966 1448.67 535.776 1448.67 Z" fill="#000000" fill-rule="evenodd" fill-opacity="1" /><path clip-path="url(#clip720)" d="M 0 0 M552.79 1477.97 L557.674 1477.97 L557.674 1483.85 L552.79 1483.85 L552.79 1477.97 Z" fill="#000000" fill-rule="evenodd" fill-opacity="1" /><path clip-path="url(#clip720)" d="M 0 0 M566.771 1479.92 L583.09 1479.92 L583.09 1483.85 L561.146 1483.85 L561.146 1479.92 Q563.808 1477.16 568.391 1472.53 Q572.998 1467.88 574.178 1466.54 Q576.424 1464.01 577.303 1462.28 Q578.206 1460.52 578.206 1458.83 Q578.206 1456.07 576.262 1454.34 Q574.34 1452.6 571.238 1452.6 Q569.039 1452.6 566.586 1453.37 Q564.155 1454.13 561.377 1455.68 L561.377 1450.96 Q564.202 1449.82 566.655 1449.25 Q569.109 1448.67 571.146 1448.67 Q576.516 1448.67 579.711 1451.35 Q582.905 1454.04 582.905 1458.53 Q582.905 1460.66 582.095 1462.58 Q581.308 1464.48 579.201 1467.07 Q578.623 1467.74 575.521 1470.96 Q572.419 1474.15 566.771 1479.92 Z" fill="#000000" fill-rule="evenodd" fill-opacity="1" /><path clip-path="url(#clip720)" d="M 0 0 M841.563 1452.37 Q837.952 1452.37 836.123 1455.94 Q834.318 1459.48 834.318 1466.61 Q834.318 1473.71 836.123 1477.28 Q837.952 1480.82 841.563 1480.82 Q845.197 1480.82 847.003 1477.28 Q848.831 1473.71 848.831 1466.61 Q848.831 1459.48 847.003 1455.94 Q845.197 1452.37 841.563 1452.37 M841.563 1448.67 Q847.373 1448.67 850.429 1453.27 Q853.507 1457.86 853.507 1466.61 Q853.507 1475.33 850.429 1479.94 Q847.373 1484.52 841.563 1484.52 Q835.753 1484.52 832.674 1479.94 Q829.618 1475.33 829.618 1466.61 Q829.618 1457.86 832.674 1453.27 Q835.753 1448.67 841.563 1448.67 Z" fill="#000000" fill-rule="evenodd" fill-opacity="1" /><path clip-path="url(#clip720)" d="M 0 0 M858.577 1477.97 L863.461 1477.97 L863.461 1483.85 L858.577 1483.85 L858.577 1477.97 Z" fill="#000000" fill-rule="evenodd" fill-opacity="1" /><path clip-path="url(#clip720)" d="M 0 0 M881.377 1453.37 L869.572 1471.81 L881.377 1471.81 L881.377 1453.37 M880.151 1449.29 L886.03 1449.29 L886.03 1471.81 L890.961 1471.81 L890.961 1475.7 L886.03 1475.7 L886.03 1483.85 L881.377 1483.85 L881.377 1475.7 L865.776 1475.7 L865.776 1471.19 L880.151 1449.29 Z" fill="#000000" fill-rule="evenodd" fill-opacity="1" /><path clip-path="url(#clip720)" d="M 0 0 M1148.55 1452.37 Q1144.94 1452.37 1143.11 1455.94 Q1141.31 1459.48 1141.31 1466.61 Q1141.31 1473.71 1143.11 1477.28 Q1144.94 1480.82 1148.55 1480.82 Q1152.19 1480.82 1153.99 1477.28 Q1155.82 1473.71 1155.82 1466.61 Q1155.82 1459.48 1153.99 1455.94 Q1152.19 1452.37 1148.55 1452.37 M1148.55 1448.67 Q1154.36 1448.67 1157.42 1453.27 Q1160.5 1457.86 1160.5 1466.61 Q1160.5 1475.33 1157.42 1479.94 Q1154.36 1484.52 1148.55 1484.52 Q1142.74 1484.52 1139.66 1479.94 Q1136.61 1475.33 1136.61 1466.61 Q1136.61 1457.86 1139.66 1453.27 Q1142.74 1448.67 1148.55 1448.67 Z" fill="#000000" fill-rule="evenodd" fill-opacity="1" /><path clip-path="url(#clip720)" d="M 0 0 M1165.57 1477.97 L1170.45 1477.97 L1170.45 1483.85 L1165.57 1483.85 L1165.57 1477.97 Z" fill="#000000" fill-rule="evenodd" fill-opacity="1" /><path clip-path="url(#clip720)" d="M 0 0 M1186.1 1464.71 Q1182.95 1464.71 1181.1 1466.86 Q1179.27 1469.01 1179.27 1472.76 Q1179.27 1476.49 1181.1 1478.67 Q1182.95 1480.82 1186.1 1480.82 Q1189.25 1480.82 1191.08 1478.67 Q1192.93 1476.49 1192.93 1472.76 Q1192.93 1469.01 1191.08 1466.86 Q1189.25 1464.71 1186.1 1464.71 M1195.38 1450.06 L1195.38 1454.31 Q1193.62 1453.48 1191.82 1453.04 Q1190.03 1452.6 1188.28 1452.6 Q1183.65 1452.6 1181.19 1455.73 Q1178.76 1458.85 1178.41 1465.17 Q1179.78 1463.16 1181.84 1462.09 Q1183.9 1461 1186.38 1461 Q1191.59 1461 1194.6 1464.18 Q1197.63 1467.32 1197.63 1472.76 Q1197.63 1478.09 1194.48 1481.31 Q1191.33 1484.52 1186.1 1484.52 Q1180.1 1484.52 1176.93 1479.94 Q1173.76 1475.33 1173.76 1466.61 Q1173.76 1458.41 1177.65 1453.55 Q1181.54 1448.67 1188.09 1448.67 Q1189.85 1448.67 1191.63 1449.01 Q1193.44 1449.36 1195.38 1450.06 Z" fill="#000000" fill-rule="evenodd" fill-opacity="1" /><path clip-path="url(#clip720)" d="M 0 0 M1455.51 1452.37 Q1451.9 1452.37 1450.07 1455.94 Q1448.26 1459.48 1448.26 1466.61 Q1448.26 1473.71 1450.07 1477.28 Q1451.9 1480.82 1455.51 1480.82 Q1459.14 1480.82 1460.95 1477.28 Q1462.78 1473.71 1462.78 1466.61 Q1462.78 1459.48 1460.95 1455.94 Q1459.14 1452.37 1455.51 1452.37 M1455.51 1448.67 Q1461.32 1448.67 1464.38 1453.27 Q1467.45 1457.86 1467.45 1466.61 Q1467.45 1475.33 1464.38 1479.94 Q1461.32 1484.52 1455.51 1484.52 Q1449.7 1484.52 1446.62 1479.94 Q1443.57 1475.33 1443.57 1466.61 Q1443.57 1457.86 1446.62 1453.27 Q1449.7 1448.67 1455.51 1448.67 Z" fill="#000000" fill-rule="evenodd" fill-opacity="1" /><path clip-path="url(#clip720)" d="M 0 0 M1472.52 1477.97 L1477.41 1477.97 L1477.41 1483.85 L1472.52 1483.85 L1472.52 1477.97 Z" fill="#000000" fill-rule="evenodd" fill-opacity="1" /><path clip-path="url(#clip720)" d="M 0 0 M1492.48 1467.44 Q1489.14 1467.44 1487.22 1469.22 Q1485.32 1471 1485.32 1474.13 Q1485.32 1477.25 1487.22 1479.04 Q1489.14 1480.82 1492.48 1480.82 Q1495.81 1480.82 1497.73 1479.04 Q1499.65 1477.23 1499.65 1474.13 Q1499.65 1471 1497.73 1469.22 Q1495.83 1467.44 1492.48 1467.44 M1487.8 1465.45 Q1484.79 1464.71 1483.1 1462.65 Q1481.44 1460.59 1481.44 1457.63 Q1481.44 1453.48 1484.38 1451.07 Q1487.34 1448.67 1492.48 1448.67 Q1497.64 1448.67 1500.58 1451.07 Q1503.52 1453.48 1503.52 1457.63 Q1503.52 1460.59 1501.83 1462.65 Q1500.16 1464.71 1497.18 1465.45 Q1500.56 1466.24 1502.43 1468.53 Q1504.33 1470.82 1504.33 1474.13 Q1504.33 1479.15 1501.25 1481.84 Q1498.19 1484.52 1492.48 1484.52 Q1486.76 1484.52 1483.68 1481.84 Q1480.63 1479.15 1480.63 1474.13 Q1480.63 1470.82 1482.52 1468.53 Q1484.42 1466.24 1487.8 1465.45 M1486.09 1458.06 Q1486.09 1460.75 1487.75 1462.25 Q1489.44 1463.76 1492.48 1463.76 Q1495.49 1463.76 1497.18 1462.25 Q1498.89 1460.75 1498.89 1458.06 Q1498.89 1455.38 1497.18 1453.88 Q1495.49 1452.37 1492.48 1452.37 Q1489.44 1452.37 1487.75 1453.88 Q1486.09 1455.38 1486.09 1458.06 Z" fill="#000000" fill-rule="evenodd" fill-opacity="1" /><path clip-path="url(#clip720)" d="M 0 0 M1752.67 1479.92 L1760.31 1479.92 L1760.31 1453.55 L1752 1455.22 L1752 1450.96 L1760.27 1449.29 L1764.94 1449.29 L1764.94 1479.92 L1772.58 1479.92 L1772.58 1483.85 L1752.67 1483.85 L1752.67 1479.92 Z" fill="#000000" fill-rule="evenodd" fill-opacity="1" /><path clip-path="url(#clip720)" d="M 0 0 M1777.65 1477.97 L1782.54 1477.97 L1782.54 1483.85 L1777.65 1483.85 L1777.65 1477.97 Z" fill="#000000" fill-rule="evenodd" fill-opacity="1" /><path clip-path="url(#clip720)" d="M 0 0 M1797.6 1452.37 Q1793.99 1452.37 1792.16 1455.94 Q1790.36 1459.48 1790.36 1466.61 Q1790.36 1473.71 1792.16 1477.28 Q1793.99 1480.82 1797.6 1480.82 Q1801.24 1480.82 1803.04 1477.28 Q1804.87 1473.71 1804.87 1466.61 Q1804.87 1459.48 1803.04 1455.94 Q1801.24 1452.37 1797.6 1452.37 M1797.6 1448.67 Q1803.41 1448.67 1806.47 1453.27 Q1809.55 1457.86 1809.55 1466.61 Q1809.55 1475.33 1806.47 1479.94 Q1803.41 1484.52 1797.6 1484.52 Q1791.79 1484.52 1788.72 1479.94 Q1785.66 1475.33 1785.66 1466.61 Q1785.66 1457.86 1788.72 1453.27 Q1791.79 1448.67 1797.6 1448.67 Z" fill="#000000" fill-rule="evenodd" fill-opacity="1" /><path clip-path="url(#clip720)" d="M 0 0 M2060.3 1479.92 L2067.94 1479.92 L2067.94 1453.55 L2059.63 1455.22 L2059.63 1450.96 L2067.89 1449.29 L2072.57 1449.29 L2072.57 1479.92 L2080.21 1479.92 L2080.21 1483.85 L2060.3 1483.85 L2060.3 1479.92 Z" fill="#000000" fill-rule="evenodd" fill-opacity="1" /><path clip-path="url(#clip720)" d="M 0 0 M2085.28 1477.97 L2090.16 1477.97 L2090.16 1483.85 L2085.28 1483.85 L2085.28 1477.97 Z" fill="#000000" fill-rule="evenodd" fill-opacity="1" /><path clip-path="url(#clip720)" d="M 0 0 M2099.26 1479.92 L2115.58 1479.92 L2115.58 1483.85 L2093.63 1483.85 L2093.63 1479.92 Q2096.3 1477.16 2100.88 1472.53 Q2105.49 1467.88 2106.67 1466.54 Q2108.91 1464.01 2109.79 1462.28 Q2110.69 1460.52 2110.69 1458.83 Q2110.69 1456.07 2108.75 1454.34 Q2106.83 1452.6 2103.73 1452.6 Q2101.53 1452.6 2099.07 1453.37 Q2096.64 1454.13 2093.87 1455.68 L2093.87 1450.96 Q2096.69 1449.82 2099.14 1449.25 Q2101.6 1448.67 2103.63 1448.67 Q2109.01 1448.67 2112.2 1451.35 Q2115.39 1454.04 2115.39 1458.53 Q2115.39 1460.66 2114.58 1462.58 Q2113.8 1464.48 2111.69 1467.07 Q2111.11 1467.74 2108.01 1470.96 Q2104.91 1474.15 2099.26 1479.92 Z" fill="#000000" fill-rule="evenodd" fill-opacity="1" /><path clip-path="url(#clip720)" d="M 0 0 M1228.4 1510.27 L1228.4 1520.4 L1240.47 1520.4 L1240.47 1524.95 L1228.4 1524.95 L1228.4 1544.3 Q1228.4 1548.66 1229.58 1549.9 Q1230.79 1551.14 1234.45 1551.14 L1240.47 1551.14 L1240.47 1556.04 L1234.45 1556.04 Q1227.67 1556.04 1225.09 1553.53 Q1222.52 1550.98 1222.52 1544.3 L1222.52 1524.95 L1218.22 1524.95 L1218.22 1520.4 L1222.52 1520.4 L1222.52 1510.27 L1228.4 1510.27 Z" fill="#000000" fill-rule="evenodd" fill-opacity="1" /><path clip-path="url(#clip720)" d="M 0 0 M1262.81 1538.12 Q1255.71 1538.12 1252.98 1539.75 Q1250.24 1541.37 1250.24 1545.29 Q1250.24 1548.4 1252.28 1550.25 Q1254.35 1552.07 1257.88 1552.07 Q1262.75 1552.07 1265.68 1548.63 Q1268.64 1545.16 1268.64 1539.43 L1268.64 1538.12 L1262.81 1538.12 M1274.49 1535.71 L1274.49 1556.04 L1268.64 1556.04 L1268.64 1550.63 Q1266.63 1553.88 1263.64 1555.44 Q1260.65 1556.97 1256.32 1556.97 Q1250.84 1556.97 1247.6 1553.91 Q1244.38 1550.82 1244.38 1545.67 Q1244.38 1539.65 1248.39 1536.6 Q1252.44 1533.54 1260.42 1533.54 L1268.64 1533.54 L1268.64 1532.97 Q1268.64 1528.93 1265.96 1526.73 Q1263.32 1524.5 1258.51 1524.5 Q1255.46 1524.5 1252.56 1525.23 Q1249.67 1525.97 1246.99 1527.43 L1246.99 1522.02 Q1250.21 1520.78 1253.23 1520.17 Q1256.25 1519.54 1259.12 1519.54 Q1266.85 1519.54 1270.67 1523.55 Q1274.49 1527.56 1274.49 1535.71 Z" fill="#000000" fill-rule="evenodd" fill-opacity="1" /><path clip-path="url(#clip720)" d="M 0 0 M1280.03 1541.98 L1280.03 1520.4 L1285.89 1520.4 L1285.89 1541.75 Q1285.89 1546.81 1287.86 1549.36 Q1289.83 1551.87 1293.78 1551.87 Q1298.52 1551.87 1301.26 1548.85 Q1304.03 1545.83 1304.03 1540.61 L1304.03 1520.4 L1309.89 1520.4 L1309.89 1556.04 L1304.03 1556.04 L1304.03 1550.57 Q1301.9 1553.82 1299.06 1555.41 Q1296.26 1556.97 1292.54 1556.97 Q1286.4 1556.97 1283.21 1553.15 Q1280.03 1549.33 1280.03 1541.98 M1294.77 1519.54 L1294.77 1519.54 Z" fill="#000000" fill-rule="evenodd" fill-opacity="1" /><path clip-path="url(#clip720)" d="M 0 0 M1336.34 1530.42 Q1340.95 1531.41 1343.53 1534.53 Q1346.14 1537.65 1346.14 1542.23 Q1346.14 1549.26 1341.3 1553.12 Q1336.46 1556.97 1327.55 1556.97 Q1324.56 1556.97 1321.38 1556.36 Q1318.22 1555.79 1314.85 1554.61 L1314.85 1548.4 Q1317.52 1549.96 1320.71 1550.76 Q1323.89 1551.56 1327.36 1551.56 Q1333.41 1551.56 1336.56 1549.17 Q1339.74 1546.78 1339.74 1542.23 Q1339.74 1538.03 1336.78 1535.67 Q1333.85 1533.29 1328.6 1533.29 L1323.06 1533.29 L1323.06 1528 L1328.86 1528 Q1333.6 1528 1336.11 1526.13 Q1338.63 1524.22 1338.63 1520.65 Q1338.63 1516.99 1336.02 1515.05 Q1333.44 1513.08 1328.6 1513.08 Q1325.96 1513.08 1322.94 1513.65 Q1319.91 1514.22 1316.28 1515.43 L1316.28 1509.7 Q1319.94 1508.68 1323.13 1508.17 Q1326.34 1507.66 1329.17 1507.66 Q1336.49 1507.66 1340.76 1511.01 Q1345.02 1514.32 1345.02 1519.98 Q1345.02 1523.93 1342.76 1526.67 Q1340.5 1529.37 1336.34 1530.42 Z" fill="#000000" fill-rule="evenodd" fill-opacity="1" /><polyline clip-path="url(#clip722)" style="stroke:#000000; stroke-width:2; stroke-opacity:0.1; fill:none" points="
  211.602,1404.63 2352.76,1404.63 
  "/>
<polyline clip-path="url(#clip722)" style="stroke:#000000; stroke-width:2; stroke-opacity:0.1; fill:none" points="
  211.602,1132.78 2352.76,1132.78 
  "/>
<polyline clip-path="url(#clip722)" style="stroke:#000000; stroke-width:2; stroke-opacity:0.1; fill:none" points="
  211.602,860.94 2352.76,860.94 
  "/>
<polyline clip-path="url(#clip722)" style="stroke:#000000; stroke-width:2; stroke-opacity:0.1; fill:none" points="
  211.602,589.096 2352.76,589.096 
  "/>
<polyline clip-path="url(#clip722)" style="stroke:#000000; stroke-width:2; stroke-opacity:0.1; fill:none" points="
  211.602,317.253 2352.76,317.253 
  "/>
<polyline clip-path="url(#clip720)" style="stroke:#000000; stroke-width:4; stroke-opacity:1; fill:none" points="
  211.602,1423.18 211.602,47.2441 
  "/>
<polyline clip-path="url(#clip720)" style="stroke:#000000; stroke-width:4; stroke-opacity:1; fill:none" points="
  211.602,1404.63 237.296,1404.63 
  "/>
<polyline clip-path="url(#clip720)" style="stroke:#000000; stroke-width:4; stroke-opacity:1; fill:none" points="
  211.602,1132.78 237.296,1132.78 
  "/>
<polyline clip-path="url(#clip720)" style="stroke:#000000; stroke-width:4; stroke-opacity:1; fill:none" points="
  211.602,860.94 237.296,860.94 
  "/>
<polyline clip-path="url(#clip720)" style="stroke:#000000; stroke-width:4; stroke-opacity:1; fill:none" points="
  211.602,589.096 237.296,589.096 
  "/>
<polyline clip-path="url(#clip720)" style="stroke:#000000; stroke-width:4; stroke-opacity:1; fill:none" points="
  211.602,317.253 237.296,317.253 
  "/>
<path clip-path="url(#clip720)" d="M 0 0 M126.691 1390.43 Q123.08 1390.43 121.251 1393.99 Q119.445 1397.53 119.445 1404.66 Q119.445 1411.77 121.251 1415.33 Q123.08 1418.87 126.691 1418.87 Q130.325 1418.87 132.13 1415.33 Q133.959 1411.77 133.959 1404.66 Q133.959 1397.53 132.13 1393.99 Q130.325 1390.43 126.691 1390.43 M126.691 1386.72 Q132.501 1386.72 135.556 1391.33 Q138.635 1395.91 138.635 1404.66 Q138.635 1413.39 135.556 1417.99 Q132.501 1422.58 126.691 1422.58 Q120.88 1422.58 117.802 1417.99 Q114.746 1413.39 114.746 1404.66 Q114.746 1395.91 117.802 1391.33 Q120.88 1386.72 126.691 1386.72 Z" fill="#000000" fill-rule="evenodd" fill-opacity="1" /><path clip-path="url(#clip720)" d="M 0 0 M143.704 1416.03 L148.589 1416.03 L148.589 1421.91 L143.704 1421.91 L143.704 1416.03 Z" fill="#000000" fill-rule="evenodd" fill-opacity="1" /><path clip-path="url(#clip720)" d="M 0 0 M163.658 1390.43 Q160.047 1390.43 158.218 1393.99 Q156.413 1397.53 156.413 1404.66 Q156.413 1411.77 158.218 1415.33 Q160.047 1418.87 163.658 1418.87 Q167.292 1418.87 169.098 1415.33 Q170.927 1411.77 170.927 1404.66 Q170.927 1397.53 169.098 1393.99 Q167.292 1390.43 163.658 1390.43 M163.658 1386.72 Q169.468 1386.72 172.524 1391.33 Q175.602 1395.91 175.602 1404.66 Q175.602 1413.39 172.524 1417.99 Q169.468 1422.58 163.658 1422.58 Q157.848 1422.58 154.769 1417.99 Q151.714 1413.39 151.714 1404.66 Q151.714 1395.91 154.769 1391.33 Q157.848 1386.72 163.658 1386.72 Z" fill="#000000" fill-rule="evenodd" fill-opacity="1" /><path clip-path="url(#clip720)" d="M 0 0 M128.288 1118.58 Q124.677 1118.58 122.848 1122.15 Q121.043 1125.69 121.043 1132.82 Q121.043 1139.92 122.848 1143.49 Q124.677 1147.03 128.288 1147.03 Q131.922 1147.03 133.728 1143.49 Q135.556 1139.92 135.556 1132.82 Q135.556 1125.69 133.728 1122.15 Q131.922 1118.58 128.288 1118.58 M128.288 1114.88 Q134.098 1114.88 137.154 1119.48 Q140.232 1124.07 140.232 1132.82 Q140.232 1141.54 137.154 1146.15 Q134.098 1150.73 128.288 1150.73 Q122.478 1150.73 119.399 1146.15 Q116.343 1141.54 116.343 1132.82 Q116.343 1124.07 119.399 1119.48 Q122.478 1114.88 128.288 1114.88 Z" fill="#000000" fill-rule="evenodd" fill-opacity="1" /><path clip-path="url(#clip720)" d="M 0 0 M145.302 1144.18 L150.186 1144.18 L150.186 1150.06 L145.302 1150.06 L145.302 1144.18 Z" fill="#000000" fill-rule="evenodd" fill-opacity="1" /><path clip-path="url(#clip720)" d="M 0 0 M159.283 1146.13 L175.602 1146.13 L175.602 1150.06 L153.658 1150.06 L153.658 1146.13 Q156.32 1143.37 160.903 1138.74 Q165.51 1134.09 166.69 1132.75 Q168.936 1130.23 169.815 1128.49 Q170.718 1126.73 170.718 1125.04 Q170.718 1122.29 168.774 1120.55 Q166.852 1118.81 163.751 1118.81 Q161.552 1118.81 159.098 1119.58 Q156.667 1120.34 153.89 1121.89 L153.89 1117.17 Q156.714 1116.04 159.167 1115.46 Q161.621 1114.88 163.658 1114.88 Q169.028 1114.88 172.223 1117.56 Q175.417 1120.25 175.417 1124.74 Q175.417 1126.87 174.607 1128.79 Q173.82 1130.69 171.714 1133.28 Q171.135 1133.95 168.033 1137.17 Q164.931 1140.36 159.283 1146.13 Z" fill="#000000" fill-rule="evenodd" fill-opacity="1" /><path clip-path="url(#clip720)" d="M 0 0 M126.205 846.738 Q122.593 846.738 120.765 850.303 Q118.959 853.845 118.959 860.974 Q118.959 868.081 120.765 871.646 Q122.593 875.187 126.205 875.187 Q129.839 875.187 131.644 871.646 Q133.473 868.081 133.473 860.974 Q133.473 853.845 131.644 850.303 Q129.839 846.738 126.205 846.738 M126.205 843.035 Q132.015 843.035 135.07 847.641 Q138.149 852.224 138.149 860.974 Q138.149 869.701 135.07 874.308 Q132.015 878.891 126.205 878.891 Q120.394 878.891 117.316 874.308 Q114.26 869.701 114.26 860.974 Q114.26 852.224 117.316 847.641 Q120.394 843.035 126.205 843.035 Z" fill="#000000" fill-rule="evenodd" fill-opacity="1" /><path clip-path="url(#clip720)" d="M 0 0 M143.218 872.34 L148.103 872.34 L148.103 878.22 L143.218 878.22 L143.218 872.34 Z" fill="#000000" fill-rule="evenodd" fill-opacity="1" /><path clip-path="url(#clip720)" d="M 0 0 M166.019 847.734 L154.214 866.183 L166.019 866.183 L166.019 847.734 M164.792 843.66 L170.672 843.66 L170.672 866.183 L175.602 866.183 L175.602 870.071 L170.672 870.071 L170.672 878.22 L166.019 878.22 L166.019 870.071 L150.417 870.071 L150.417 865.558 L164.792 843.66 Z" fill="#000000" fill-rule="evenodd" fill-opacity="1" /><path clip-path="url(#clip720)" d="M 0 0 M126.529 574.895 Q122.918 574.895 121.089 578.46 Q119.283 582.001 119.283 589.131 Q119.283 596.237 121.089 599.802 Q122.918 603.344 126.529 603.344 Q130.163 603.344 131.968 599.802 Q133.797 596.237 133.797 589.131 Q133.797 582.001 131.968 578.46 Q130.163 574.895 126.529 574.895 M126.529 571.191 Q132.339 571.191 135.394 575.798 Q138.473 580.381 138.473 589.131 Q138.473 597.858 135.394 602.464 Q132.339 607.047 126.529 607.047 Q120.718 607.047 117.64 602.464 Q114.584 597.858 114.584 589.131 Q114.584 580.381 117.64 575.798 Q120.718 571.191 126.529 571.191 Z" fill="#000000" fill-rule="evenodd" fill-opacity="1" /><path clip-path="url(#clip720)" d="M 0 0 M143.542 600.497 L148.427 600.497 L148.427 606.376 L143.542 606.376 L143.542 600.497 Z" fill="#000000" fill-rule="evenodd" fill-opacity="1" /><path clip-path="url(#clip720)" d="M 0 0 M164.075 587.233 Q160.927 587.233 159.075 589.385 Q157.246 591.538 157.246 595.288 Q157.246 599.015 159.075 601.191 Q160.927 603.344 164.075 603.344 Q167.223 603.344 169.052 601.191 Q170.903 599.015 170.903 595.288 Q170.903 591.538 169.052 589.385 Q167.223 587.233 164.075 587.233 M173.357 572.58 L173.357 576.839 Q171.598 576.006 169.792 575.566 Q168.01 575.126 166.251 575.126 Q161.621 575.126 159.167 578.251 Q156.737 581.376 156.39 587.696 Q157.755 585.682 159.815 584.617 Q161.876 583.529 164.352 583.529 Q169.561 583.529 172.57 586.7 Q175.602 589.848 175.602 595.288 Q175.602 600.612 172.454 603.83 Q169.306 607.047 164.075 607.047 Q158.079 607.047 154.908 602.464 Q151.737 597.858 151.737 589.131 Q151.737 580.936 155.626 576.075 Q159.515 571.191 166.065 571.191 Q167.825 571.191 169.607 571.538 Q171.413 571.886 173.357 572.58 Z" fill="#000000" fill-rule="evenodd" fill-opacity="1" /><path clip-path="url(#clip720)" d="M 0 0 M126.783 303.051 Q123.172 303.051 121.343 306.616 Q119.538 310.158 119.538 317.287 Q119.538 324.394 121.343 327.959 Q123.172 331.5 126.783 331.5 Q130.417 331.5 132.223 327.959 Q134.052 324.394 134.052 317.287 Q134.052 310.158 132.223 306.616 Q130.417 303.051 126.783 303.051 M126.783 299.348 Q132.593 299.348 135.649 303.954 Q138.728 308.537 138.728 317.287 Q138.728 326.014 135.649 330.621 Q132.593 335.204 126.783 335.204 Q120.973 335.204 117.894 330.621 Q114.839 326.014 114.839 317.287 Q114.839 308.537 117.894 303.954 Q120.973 299.348 126.783 299.348 Z" fill="#000000" fill-rule="evenodd" fill-opacity="1" /><path clip-path="url(#clip720)" d="M 0 0 M143.797 328.653 L148.681 328.653 L148.681 334.533 L143.797 334.533 L143.797 328.653 Z" fill="#000000" fill-rule="evenodd" fill-opacity="1" /><path clip-path="url(#clip720)" d="M 0 0 M163.751 318.121 Q160.417 318.121 158.496 319.903 Q156.598 321.685 156.598 324.81 Q156.598 327.935 158.496 329.718 Q160.417 331.5 163.751 331.5 Q167.084 331.5 169.005 329.718 Q170.927 327.912 170.927 324.81 Q170.927 321.685 169.005 319.903 Q167.107 318.121 163.751 318.121 M159.075 316.13 Q156.065 315.389 154.376 313.329 Q152.709 311.269 152.709 308.306 Q152.709 304.162 155.649 301.755 Q158.612 299.348 163.751 299.348 Q168.913 299.348 171.852 301.755 Q174.792 304.162 174.792 308.306 Q174.792 311.269 173.102 313.329 Q171.436 315.389 168.45 316.13 Q171.829 316.917 173.704 319.209 Q175.602 321.5 175.602 324.81 Q175.602 329.834 172.524 332.519 Q169.468 335.204 163.751 335.204 Q158.033 335.204 154.954 332.519 Q151.899 329.834 151.899 324.81 Q151.899 321.5 153.797 319.209 Q155.695 316.917 159.075 316.13 M157.362 308.746 Q157.362 311.431 159.028 312.936 Q160.718 314.44 163.751 314.44 Q166.76 314.44 168.45 312.936 Q170.163 311.431 170.163 308.746 Q170.163 306.061 168.45 304.556 Q166.76 303.051 163.751 303.051 Q160.718 303.051 159.028 304.556 Q157.362 306.061 157.362 308.746 Z" fill="#000000" fill-rule="evenodd" fill-opacity="1" /><path clip-path="url(#clip720)" d="M 0 0 M59.1993 1191.36 Q55.2526 1189.17 53.3747 1186.11 Q51.4968 1183.06 51.4968 1178.92 Q51.4968 1173.35 55.4117 1170.32 Q59.2948 1167.3 66.4881 1167.3 L88.0042 1167.3 L88.0042 1173.19 L66.679 1173.19 Q61.5546 1173.19 59.072 1175 Q56.5894 1176.82 56.5894 1180.54 Q56.5894 1185.09 59.6131 1187.73 Q62.6368 1190.38 67.8567 1190.38 L88.0042 1190.38 L88.0042 1196.26 L66.679 1196.26 Q61.5228 1196.26 59.072 1198.08 Q56.5894 1199.89 56.5894 1203.68 Q56.5894 1208.17 59.6449 1210.81 Q62.6686 1213.45 67.8567 1213.45 L88.0042 1213.45 L88.0042 1219.34 L52.3562 1219.34 L52.3562 1213.45 L57.8944 1213.45 Q54.616 1211.45 53.0564 1208.65 Q51.4968 1205.84 51.4968 1201.99 Q51.4968 1198.11 53.4702 1195.4 Q55.4436 1192.67 59.1993 1191.36 Z" fill="#000000" fill-rule="evenodd" fill-opacity="1" /><path clip-path="url(#clip720)" d="M 0 0 M70.0847 1144.96 Q70.0847 1152.05 71.7079 1154.79 Q73.3312 1157.53 77.2461 1157.53 Q80.3653 1157.53 82.2114 1155.49 Q84.0256 1153.42 84.0256 1149.89 Q84.0256 1145.02 80.5881 1142.09 Q77.1188 1139.13 71.3897 1139.13 L70.0847 1139.13 L70.0847 1144.96 M67.6657 1133.28 L88.0042 1133.28 L88.0042 1139.13 L82.5933 1139.13 Q85.8398 1141.14 87.3994 1144.13 Q88.9272 1147.12 88.9272 1151.45 Q88.9272 1156.92 85.8716 1160.17 Q82.7843 1163.39 77.6281 1163.39 Q71.6125 1163.39 68.5569 1159.37 Q65.5014 1155.33 65.5014 1147.34 L65.5014 1139.13 L64.9285 1139.13 Q60.8862 1139.13 58.6901 1141.81 Q56.4621 1144.45 56.4621 1149.25 Q56.4621 1152.31 57.1941 1155.21 Q57.9262 1158.1 59.3903 1160.78 L53.9795 1160.78 Q52.7381 1157.56 52.1334 1154.54 Q51.4968 1151.51 51.4968 1148.65 Q51.4968 1140.91 55.5072 1137.09 Q59.5176 1133.28 67.6657 1133.28 Z" fill="#000000" fill-rule="evenodd" fill-opacity="1" /><path clip-path="url(#clip720)" d="M 0 0 M52.3562 1097.5 L69.7028 1110.39 L88.0042 1096.83 L88.0042 1103.74 L73.9996 1114.11 L88.0042 1124.49 L88.0042 1131.4 L69.3526 1117.55 L52.3562 1130.22 L52.3562 1123.31 L65.0558 1113.86 L52.3562 1104.41 L52.3562 1097.5 Z" fill="#000000" fill-rule="evenodd" fill-opacity="1" /><path clip-path="url(#clip720)" d="M 0 0 M67.0928 1028.72 Q67.0928 1031.49 69.4481 1033.08 Q71.8034 1034.64 76.0048 1034.64 Q80.1425 1034.64 82.5296 1033.08 Q84.885 1031.49 84.885 1028.72 Q84.885 1026.01 82.5296 1024.45 Q80.1425 1022.86 76.0048 1022.86 Q71.8353 1022.86 69.48 1024.45 Q67.0928 1026.01 67.0928 1028.72 M63.0506 1028.72 Q63.0506 1023.69 66.5517 1020.73 Q70.0529 1017.77 76.0048 1017.77 Q81.9567 1017.77 85.4579 1020.76 Q88.9272 1023.72 88.9272 1028.72 Q88.9272 1033.81 85.4579 1036.77 Q81.9567 1039.73 76.0048 1039.73 Q70.021 1039.73 66.5517 1036.77 Q63.0506 1033.78 63.0506 1028.72 M43.667 1061.57 Q43.667 1064.3 46.0542 1065.89 Q48.4095 1067.45 52.5472 1067.45 Q56.7485 1067.45 59.1038 1065.89 Q61.4592 1064.33 61.4592 1061.57 Q61.4592 1058.8 59.1038 1057.24 Q56.7485 1055.65 52.5472 1055.65 Q48.4413 1055.65 46.0542 1057.24 Q43.667 1058.83 43.667 1061.57 M39.6248 1032.82 L39.6248 1027.73 L88.9272 1057.46 L88.9272 1062.55 L39.6248 1032.82 M39.6248 1061.57 Q39.6248 1056.54 43.1259 1053.55 Q46.5952 1050.55 52.5472 1050.55 Q58.5628 1050.55 62.0321 1053.55 Q65.5014 1056.51 65.5014 1061.57 Q65.5014 1066.63 62.0321 1069.59 Q58.5309 1072.51 52.5472 1072.51 Q46.6271 1072.51 43.1259 1069.55 Q39.6248 1066.59 39.6248 1061.57 Z" fill="#000000" fill-rule="evenodd" fill-opacity="1" /><path clip-path="url(#clip720)" d="M 0 0 M56.4621 977.093 Q56.4621 981.804 60.1542 984.541 Q63.8145 987.278 70.212 987.278 Q76.6095 987.278 80.3017 984.573 Q83.9619 981.835 83.9619 977.093 Q83.9619 972.414 80.2698 969.677 Q76.5777 966.94 70.212 966.94 Q63.8781 966.94 60.186 969.677 Q56.4621 972.414 56.4621 977.093 M51.4968 977.093 Q51.4968 969.454 56.4621 965.094 Q61.4273 960.733 70.212 960.733 Q78.9649 960.733 83.9619 965.094 Q88.9272 969.454 88.9272 977.093 Q88.9272 984.764 83.9619 989.124 Q78.9649 993.453 70.212 993.453 Q61.4273 993.453 56.4621 989.124 Q51.4968 984.764 51.4968 977.093 Z" fill="#000000" fill-rule="evenodd" fill-opacity="1" /><path clip-path="url(#clip720)" d="M 0 0 M38.479 936.543 L43.3487 936.543 L43.3487 942.145 Q43.3487 945.296 44.6219 946.538 Q45.895 947.747 49.2052 947.747 L52.3562 947.747 L52.3562 938.103 L56.9077 938.103 L56.9077 947.747 L88.0042 947.747 L88.0042 953.635 L56.9077 953.635 L56.9077 959.237 L52.3562 959.237 L52.3562 953.635 L49.8736 953.635 Q43.9216 953.635 41.2162 950.866 Q38.479 948.097 38.479 942.082 L38.479 936.543 Z" fill="#000000" fill-rule="evenodd" fill-opacity="1" /><path clip-path="url(#clip720)" d="M 0 0 M52.3562 909.68 L52.3562 903.824 L88.0042 903.824 L88.0042 909.68 L52.3562 909.68 M38.479 909.68 L38.479 903.824 L45.895 903.824 L45.895 909.68 L38.479 909.68 Z" fill="#000000" fill-rule="evenodd" fill-opacity="1" /><path clip-path="url(#clip720)" d="M 0 0 M66.4881 868.048 L88.0042 868.048 L88.0042 873.905 L66.679 873.905 Q61.6183 873.905 59.1038 875.878 Q56.5894 877.852 56.5894 881.798 Q56.5894 886.541 59.6131 889.278 Q62.6368 892.015 67.8567 892.015 L88.0042 892.015 L88.0042 897.904 L52.3562 897.904 L52.3562 892.015 L57.8944 892.015 Q54.6797 889.915 53.0883 887.082 Q51.4968 884.217 51.4968 880.493 Q51.4968 874.35 55.3163 871.199 Q59.1038 868.048 66.4881 868.048 Z" fill="#000000" fill-rule="evenodd" fill-opacity="1" /><path clip-path="url(#clip720)" d="M 0 0 M38.479 843.859 L43.3487 843.859 L43.3487 849.46 Q43.3487 852.612 44.6219 853.853 Q45.895 855.062 49.2052 855.062 L52.3562 855.062 L52.3562 845.418 L56.9077 845.418 L56.9077 855.062 L88.0042 855.062 L88.0042 860.951 L56.9077 860.951 L56.9077 866.552 L52.3562 866.552 L52.3562 860.951 L49.8736 860.951 Q43.9216 860.951 41.2162 858.182 Q38.479 855.412 38.479 849.397 L38.479 843.859 Z" fill="#000000" fill-rule="evenodd" fill-opacity="1" /><path clip-path="url(#clip720)" d="M 0 0 M68.7161 807.224 L71.5806 807.224 L71.5806 834.151 Q77.6281 833.769 80.8109 830.523 Q83.9619 827.244 83.9619 821.42 Q83.9619 818.046 83.1344 814.895 Q82.3069 811.712 80.6518 808.593 L86.1899 808.593 Q87.5267 811.744 88.227 815.054 Q88.9272 818.364 88.9272 821.77 Q88.9272 830.3 83.9619 835.297 Q78.9967 840.262 70.5303 840.262 Q61.7774 840.262 56.6531 835.551 Q51.4968 830.809 51.4968 822.788 Q51.4968 815.595 56.1438 811.425 Q60.7589 807.224 68.7161 807.224 M66.9973 813.08 Q62.1912 813.144 59.3266 815.786 Q56.4621 818.396 56.4621 822.725 Q56.4621 827.626 59.2312 830.586 Q62.0002 833.514 67.0292 833.96 L66.9973 813.08 Z" fill="#000000" fill-rule="evenodd" fill-opacity="1" /><path clip-path="url(#clip720)" d="M 0 0 M53.7248 775.427 L59.1993 775.427 Q57.8307 777.91 57.1623 780.424 Q56.4621 782.907 56.4621 785.453 Q56.4621 791.151 60.0905 794.302 Q63.6872 797.453 70.212 797.453 Q76.7369 797.453 80.3653 794.302 Q83.9619 791.151 83.9619 785.453 Q83.9619 782.907 83.2935 780.424 Q82.5933 777.91 81.2247 775.427 L86.6355 775.427 Q87.7814 777.878 88.3543 780.52 Q88.9272 783.13 88.9272 786.09 Q88.9272 794.142 83.8664 798.885 Q78.8057 803.627 70.212 803.627 Q61.491 803.627 56.4939 798.853 Q51.4968 794.047 51.4968 785.708 Q51.4968 783.003 52.0697 780.424 Q52.6108 777.846 53.7248 775.427 Z" fill="#000000" fill-rule="evenodd" fill-opacity="1" /><path clip-path="url(#clip720)" d="M 0 0 M42.2347 763.492 L52.3562 763.492 L52.3562 751.429 L56.9077 751.429 L56.9077 763.492 L76.2594 763.492 Q80.6199 763.492 81.8613 762.314 Q83.1026 761.104 83.1026 757.444 L83.1026 751.429 L88.0042 751.429 L88.0042 757.444 Q88.0042 764.224 85.4897 766.802 Q82.9434 769.38 76.2594 769.38 L56.9077 769.38 L56.9077 773.677 L52.3562 773.677 L52.3562 769.38 L42.2347 769.38 L42.2347 763.492 Z" fill="#000000" fill-rule="evenodd" fill-opacity="1" /><path clip-path="url(#clip720)" d="M 0 0 M68.7161 714.794 L71.5806 714.794 L71.5806 741.721 Q77.6281 741.339 80.8109 738.092 Q83.9619 734.814 83.9619 728.989 Q83.9619 725.616 83.1344 722.465 Q82.3069 719.282 80.6518 716.163 L86.1899 716.163 Q87.5267 719.314 88.227 722.624 Q88.9272 725.934 88.9272 729.34 Q88.9272 737.87 83.9619 742.867 Q78.9967 747.832 70.5303 747.832 Q61.7774 747.832 56.6531 743.121 Q51.4968 738.379 51.4968 730.358 Q51.4968 723.165 56.1438 718.995 Q60.7589 714.794 68.7161 714.794 M66.9973 720.65 Q62.1912 720.714 59.3266 723.356 Q56.4621 725.966 56.4621 730.294 Q56.4621 735.196 59.2312 738.156 Q62.0002 741.084 67.0292 741.53 L66.9973 720.65 Z" fill="#000000" fill-rule="evenodd" fill-opacity="1" /><path clip-path="url(#clip720)" d="M 0 0 M57.7671 685.193 L38.479 685.193 L38.479 679.337 L88.0042 679.337 L88.0042 685.193 L82.657 685.193 Q85.8398 687.039 87.3994 689.872 Q88.9272 692.673 88.9272 696.62 Q88.9272 703.081 83.771 707.155 Q78.6147 711.197 70.212 711.197 Q61.8093 711.197 56.6531 707.155 Q51.4968 703.081 51.4968 696.62 Q51.4968 692.673 53.0564 689.872 Q54.5842 687.039 57.7671 685.193 M70.212 705.15 Q76.6732 705.15 80.3653 702.508 Q84.0256 699.835 84.0256 695.188 Q84.0256 690.541 80.3653 687.867 Q76.6732 685.193 70.212 685.193 Q63.7508 685.193 60.0905 687.867 Q56.3984 690.541 56.3984 695.188 Q56.3984 699.835 60.0905 702.508 Q63.7508 705.15 70.212 705.15 Z" fill="#000000" fill-rule="evenodd" fill-opacity="1" /><path clip-path="url(#clip720)" d="M 0 0 M38.479 634.427 L43.3487 634.427 L43.3487 640.029 Q43.3487 643.18 44.6219 644.421 Q45.895 645.631 49.2052 645.631 L52.3562 645.631 L52.3562 635.987 L56.9077 635.987 L56.9077 645.631 L88.0042 645.631 L88.0042 651.519 L56.9077 651.519 L56.9077 657.121 L52.3562 657.121 L52.3562 651.519 L49.8736 651.519 Q43.9216 651.519 41.2162 648.75 Q38.479 645.981 38.479 639.965 L38.479 634.427 Z" fill="#000000" fill-rule="evenodd" fill-opacity="1" /><path clip-path="url(#clip720)" d="M 0 0 M56.4621 614.47 Q56.4621 619.181 60.1542 621.918 Q63.8145 624.656 70.212 624.656 Q76.6095 624.656 80.3017 621.95 Q83.9619 619.213 83.9619 614.47 Q83.9619 609.792 80.2698 607.054 Q76.5777 604.317 70.212 604.317 Q63.8781 604.317 60.186 607.054 Q56.4621 609.792 56.4621 614.47 M51.4968 614.47 Q51.4968 606.832 56.4621 602.471 Q61.4273 598.111 70.212 598.111 Q78.9649 598.111 83.9619 602.471 Q88.9272 606.832 88.9272 614.47 Q88.9272 622.141 83.9619 626.502 Q78.9649 630.83 70.212 630.83 Q61.4273 630.83 56.4621 626.502 Q51.4968 622.141 51.4968 614.47 Z" fill="#000000" fill-rule="evenodd" fill-opacity="1" /><path clip-path="url(#clip720)" d="M 0 0 M57.8307 571.311 Q57.2578 572.298 57.0032 573.475 Q56.7167 574.621 56.7167 576.022 Q56.7167 580.987 59.9632 583.66 Q63.1779 586.302 69.2253 586.302 L88.0042 586.302 L88.0042 592.19 L52.3562 592.19 L52.3562 586.302 L57.8944 586.302 Q54.6479 584.456 53.0883 581.496 Q51.4968 578.536 51.4968 574.303 Q51.4968 573.698 51.5923 572.966 Q51.656 572.234 51.8151 571.343 L57.8307 571.311 Z" fill="#000000" fill-rule="evenodd" fill-opacity="1" /><path clip-path="url(#clip720)" d="M 0 0 M57.7671 520.99 L38.479 520.99 L38.479 515.134 L88.0042 515.134 L88.0042 520.99 L82.657 520.99 Q85.8398 522.836 87.3994 525.669 Q88.9272 528.47 88.9272 532.416 Q88.9272 538.878 83.771 542.952 Q78.6147 546.994 70.212 546.994 Q61.8093 546.994 56.6531 542.952 Q51.4968 538.878 51.4968 532.416 Q51.4968 528.47 53.0564 525.669 Q54.5842 522.836 57.7671 520.99 M70.212 540.947 Q76.6732 540.947 80.3653 538.305 Q84.0256 535.631 84.0256 530.984 Q84.0256 526.337 80.3653 523.664 Q76.6732 520.99 70.212 520.99 Q63.7508 520.99 60.0905 523.664 Q56.3984 526.337 56.3984 530.984 Q56.3984 535.631 60.0905 538.305 Q63.7508 540.947 70.212 540.947 Z" fill="#000000" fill-rule="evenodd" fill-opacity="1" /><path clip-path="url(#clip720)" d="M 0 0 M68.7161 478.499 L71.5806 478.499 L71.5806 505.426 Q77.6281 505.044 80.8109 501.797 Q83.9619 498.519 83.9619 492.694 Q83.9619 489.321 83.1344 486.17 Q82.3069 482.987 80.6518 479.868 L86.1899 479.868 Q87.5267 483.019 88.227 486.329 Q88.9272 489.639 88.9272 493.045 Q88.9272 501.575 83.9619 506.572 Q78.9967 511.537 70.5303 511.537 Q61.7774 511.537 56.6531 506.826 Q51.4968 502.084 51.4968 494.063 Q51.4968 486.87 56.1438 482.7 Q60.7589 478.499 68.7161 478.499 M66.9973 484.355 Q62.1912 484.419 59.3266 487.061 Q56.4621 489.671 56.4621 493.999 Q56.4621 498.901 59.2312 501.861 Q62.0002 504.789 67.0292 505.235 L66.9973 484.355 Z" fill="#000000" fill-rule="evenodd" fill-opacity="1" /><path clip-path="url(#clip720)" d="M 0 0 M69.7664 448.898 Q63.4007 448.898 59.8996 451.54 Q56.3984 454.15 56.3984 458.893 Q56.3984 463.603 59.8996 466.245 Q63.4007 468.855 69.7664 468.855 Q76.1003 468.855 79.6014 466.245 Q83.1026 463.603 83.1026 458.893 Q83.1026 454.15 79.6014 451.54 Q76.1003 448.898 69.7664 448.898 M83.58 443.042 Q92.683 443.042 97.1071 447.084 Q101.563 451.126 101.563 459.465 Q101.563 462.553 101.086 465.29 Q100.64 468.027 99.6852 470.605 L93.9879 470.605 Q95.3884 468.027 96.0568 465.513 Q96.7252 462.998 96.7252 460.388 Q96.7252 454.628 93.7015 451.763 Q90.7096 448.898 84.6303 448.898 L81.7339 448.898 Q84.885 450.713 86.4446 453.545 Q88.0042 456.378 88.0042 460.325 Q88.0042 466.882 83.0071 470.892 Q78.01 474.902 69.7664 474.902 Q61.491 474.902 56.4939 470.892 Q51.4968 466.882 51.4968 460.325 Q51.4968 456.378 53.0564 453.545 Q54.616 450.713 57.7671 448.898 L52.3562 448.898 L52.3562 443.042 L83.58 443.042 Z" fill="#000000" fill-rule="evenodd" fill-opacity="1" /><path clip-path="url(#clip720)" d="M 0 0 M57.8307 416.242 Q57.2578 417.229 57.0032 418.407 Q56.7167 419.552 56.7167 420.953 Q56.7167 425.918 59.9632 428.592 Q63.1779 431.234 69.2253 431.234 L88.0042 431.234 L88.0042 437.122 L52.3562 437.122 L52.3562 431.234 L57.8944 431.234 Q54.6479 429.388 53.0883 426.427 Q51.4968 423.467 51.4968 419.234 Q51.4968 418.629 51.5923 417.897 Q51.656 417.165 51.8151 416.274 L57.8307 416.242 Z" fill="#000000" fill-rule="evenodd" fill-opacity="1" /><path clip-path="url(#clip720)" d="M 0 0 M68.7161 381.04 L71.5806 381.04 L71.5806 407.967 Q77.6281 407.585 80.8109 404.338 Q83.9619 401.06 83.9619 395.235 Q83.9619 391.862 83.1344 388.711 Q82.3069 385.528 80.6518 382.409 L86.1899 382.409 Q87.5267 385.56 88.227 388.87 Q88.9272 392.18 88.9272 395.586 Q88.9272 404.116 83.9619 409.113 Q78.9967 414.078 70.5303 414.078 Q61.7774 414.078 56.6531 409.367 Q51.4968 404.625 51.4968 396.604 Q51.4968 389.411 56.1438 385.241 Q60.7589 381.04 68.7161 381.04 M66.9973 386.896 Q62.1912 386.96 59.3266 389.602 Q56.4621 392.212 56.4621 396.54 Q56.4621 401.442 59.2312 404.402 Q62.0002 407.33 67.0292 407.776 L66.9973 386.896 Z" fill="#000000" fill-rule="evenodd" fill-opacity="1" /><path clip-path="url(#clip720)" d="M 0 0 M68.7161 344.405 L71.5806 344.405 L71.5806 371.332 Q77.6281 370.95 80.8109 367.704 Q83.9619 364.425 83.9619 358.601 Q83.9619 355.227 83.1344 352.076 Q82.3069 348.893 80.6518 345.774 L86.1899 345.774 Q87.5267 348.925 88.227 352.235 Q88.9272 355.545 88.9272 358.951 Q88.9272 367.481 83.9619 372.478 Q78.9967 377.443 70.5303 377.443 Q61.7774 377.443 56.6531 372.733 Q51.4968 367.99 51.4968 359.969 Q51.4968 352.776 56.1438 348.607 Q60.7589 344.405 68.7161 344.405 M66.9973 350.262 Q62.1912 350.325 59.3266 352.967 Q56.4621 355.577 56.4621 359.906 Q56.4621 364.807 59.2312 367.767 Q62.0002 370.696 67.0292 371.141 L66.9973 350.262 Z" fill="#000000" fill-rule="evenodd" fill-opacity="1" /><path clip-path="url(#clip720)" d="M 0 0 M82.5933 315.601 L82.5933 305.097 L46.3406 305.097 L48.6323 316.524 L42.7758 316.524 L40.4842 305.161 L40.4842 298.731 L82.5933 298.731 L82.5933 288.228 L88.0042 288.228 L88.0042 315.601 L82.5933 315.601 Z" fill="#000000" fill-rule="evenodd" fill-opacity="1" /><path clip-path="url(#clip720)" d="M 0 0 M44.7174 267.508 Q44.7174 272.473 49.6189 274.987 Q54.4887 277.47 64.2919 277.47 Q74.0633 277.47 78.9649 274.987 Q83.8346 272.473 83.8346 267.508 Q83.8346 262.511 78.9649 260.028 Q74.0633 257.513 64.2919 257.513 Q54.4887 257.513 49.6189 260.028 Q44.7174 262.511 44.7174 267.508 M39.6248 267.508 Q39.6248 259.519 45.9587 255.317 Q52.2607 251.084 64.2919 251.084 Q76.2913 251.084 82.6251 255.317 Q88.9272 259.519 88.9272 267.508 Q88.9272 275.497 82.6251 279.73 Q76.2913 283.931 64.2919 283.931 Q52.2607 283.931 45.9587 279.73 Q39.6248 275.497 39.6248 267.508 Z" fill="#000000" fill-rule="evenodd" fill-opacity="1" /><polyline clip-path="url(#clip722)" style="stroke:#009af9; stroke-width:4; stroke-opacity:1; fill:none" points="
  502.323,691.037 758.013,310.457 297.77,1377.44 2292.16,86.1857 451.185,1363.85 502.323,704.63 272.201,1384.24 
  "/>
<path clip-path="url(#clip720)" d="
M1992.46 214.069 L2281.38 214.069 L2281.38 93.1086 L1992.46 93.1086  Z
  " fill="#ffffff" fill-rule="evenodd" fill-opacity="1"/>
<polyline clip-path="url(#clip720)" style="stroke:#000000; stroke-width:4; stroke-opacity:1; fill:none" points="
  1992.46,214.069 2281.38,214.069 2281.38,93.1086 1992.46,93.1086 1992.46,214.069 
  "/>
<polyline clip-path="url(#clip720)" style="stroke:#009af9; stroke-width:4; stroke-opacity:1; fill:none" points="
  2016.25,153.589 2158.99,153.589 
  "/>
<path clip-path="url(#clip720)" d="M 0 0 M2196.63 173.276 Q2194.82 177.906 2193.11 179.318 Q2191.4 180.73 2188.53 180.73 L2185.12 180.73 L2185.12 177.165 L2187.62 177.165 Q2189.38 177.165 2190.35 176.332 Q2191.33 175.498 2192.51 172.396 L2193.27 170.452 L2182.78 144.943 L2187.3 144.943 L2195.4 165.221 L2203.5 144.943 L2208.02 144.943 L2196.63 173.276 Z" fill="#000000" fill-rule="evenodd" fill-opacity="1" /><path clip-path="url(#clip720)" d="M 0 0 M2213.9 166.933 L2221.53 166.933 L2221.53 140.568 L2213.22 142.235 L2213.22 137.975 L2221.49 136.309 L2226.16 136.309 L2226.16 166.933 L2233.8 166.933 L2233.8 170.869 L2213.9 170.869 L2213.9 166.933 Z" fill="#000000" fill-rule="evenodd" fill-opacity="1" /></svg>
