<?xml version="1.0" encoding="utf-8"?>
<svg xmlns="http://www.w3.org/2000/svg" xmlns:xlink="http://www.w3.org/1999/xlink" width="600" height="400" viewBox="0 0 2400 1600">
<defs>
  <clipPath id="clip160">
    <rect x="0" y="0" width="2400" height="1600"/>
  </clipPath>
</defs>
<path clip-path="url(#clip160)" d="
M0 1600 L2400 1600 L2400 0 L0 0  Z
  " fill="#ffffff" fill-rule="evenodd" fill-opacity="1"/>
<defs>
  <clipPath id="clip161">
    <rect x="480" y="0" width="1681" height="1600"/>
  </clipPath>
</defs>
<path clip-path="url(#clip160)" d="
M238.616 1423.18 L2352.76 1423.18 L2352.76 47.2441 L238.616 47.2441  Z
  " fill="#ffffff" fill-rule="evenodd" fill-opacity="1"/>
<defs>
  <clipPath id="clip162">
    <rect x="238" y="47" width="2115" height="1377"/>
  </clipPath>
</defs>
<polyline clip-path="url(#clip162)" style="stroke:#000000; stroke-width:2; stroke-opacity:0.1; fill:none" points="
  278.304,1423.18 278.304,47.2441 
  "/>
<polyline clip-path="url(#clip162)" style="stroke:#000000; stroke-width:2; stroke-opacity:0.1; fill:none" points="
  781.959,1423.18 781.959,47.2441 
  "/>
<polyline clip-path="url(#clip162)" style="stroke:#000000; stroke-width:2; stroke-opacity:0.1; fill:none" points="
  1285.61,1423.18 1285.61,47.2441 
  "/>
<polyline clip-path="url(#clip162)" style="stroke:#000000; stroke-width:2; stroke-opacity:0.1; fill:none" points="
  1789.27,1423.18 1789.27,47.2441 
  "/>
<polyline clip-path="url(#clip162)" style="stroke:#000000; stroke-width:2; stroke-opacity:0.1; fill:none" points="
  2292.92,1423.18 2292.92,47.2441 
  "/>
<polyline clip-path="url(#clip160)" style="stroke:#000000; stroke-width:4; stroke-opacity:1; fill:none" points="
  238.616,1423.18 2352.76,1423.18 
  "/>
<polyline clip-path="url(#clip160)" style="stroke:#000000; stroke-width:4; stroke-opacity:1; fill:none" points="
  278.304,1423.18 278.304,1406.67 
  "/>
<polyline clip-path="url(#clip160)" style="stroke:#000000; stroke-width:4; stroke-opacity:1; fill:none" points="
  781.959,1423.18 781.959,1406.67 
  "/>
<polyline clip-path="url(#clip160)" style="stroke:#000000; stroke-width:4; stroke-opacity:1; fill:none" points="
  1285.61,1423.18 1285.61,1406.67 
  "/>
<polyline clip-path="url(#clip160)" style="stroke:#000000; stroke-width:4; stroke-opacity:1; fill:none" points="
  1789.27,1423.18 1789.27,1406.67 
  "/>
<polyline clip-path="url(#clip160)" style="stroke:#000000; stroke-width:4; stroke-opacity:1; fill:none" points="
  2292.92,1423.18 2292.92,1406.67 
  "/>
<path clip-path="url(#clip160)" d="M 0 0 M278.304 1452.37 Q274.693 1452.37 272.864 1455.94 Q271.059 1459.48 271.059 1466.61 Q271.059 1473.71 272.864 1477.28 Q274.693 1480.82 278.304 1480.82 Q281.938 1480.82 283.744 1477.28 Q285.573 1473.71 285.573 1466.61 Q285.573 1459.48 283.744 1455.94 Q281.938 1452.37 278.304 1452.37 M278.304 1448.67 Q284.114 1448.67 287.17 1453.27 Q290.249 1457.86 290.249 1466.61 Q290.249 1475.33 287.17 1479.94 Q284.114 1484.52 278.304 1484.52 Q272.494 1484.52 269.415 1479.94 Q266.36 1475.33 266.36 1466.61 Q266.36 1457.86 269.415 1453.27 Q272.494 1448.67 278.304 1448.67 Z" fill="#000000" fill-rule="evenodd" fill-opacity="1" /><path clip-path="url(#clip160)" d="M 0 0 M763.602 1479.92 L779.922 1479.92 L779.922 1483.85 L757.977 1483.85 L757.977 1479.92 Q760.639 1477.16 765.223 1472.53 Q769.829 1467.88 771.01 1466.54 Q773.255 1464.01 774.135 1462.28 Q775.037 1460.52 775.037 1458.83 Q775.037 1456.07 773.093 1454.34 Q771.172 1452.6 768.07 1452.6 Q765.871 1452.6 763.417 1453.37 Q760.986 1454.13 758.209 1455.68 L758.209 1450.96 Q761.033 1449.82 763.486 1449.25 Q765.94 1448.67 767.977 1448.67 Q773.347 1448.67 776.542 1451.35 Q779.736 1454.04 779.736 1458.53 Q779.736 1460.66 778.926 1462.58 Q778.139 1464.48 776.033 1467.07 Q775.454 1467.74 772.352 1470.96 Q769.25 1474.15 763.602 1479.92 Z" fill="#000000" fill-rule="evenodd" fill-opacity="1" /><path clip-path="url(#clip160)" d="M 0 0 M785.037 1449.29 L803.394 1449.29 L803.394 1453.23 L789.32 1453.23 L789.32 1461.7 Q790.338 1461.35 791.357 1461.19 Q792.375 1461 793.394 1461 Q799.181 1461 802.56 1464.18 Q805.94 1467.35 805.94 1472.76 Q805.94 1478.34 802.468 1481.44 Q798.995 1484.52 792.676 1484.52 Q790.5 1484.52 788.232 1484.15 Q785.986 1483.78 783.579 1483.04 L783.579 1478.34 Q785.662 1479.48 787.884 1480.03 Q790.107 1480.59 792.583 1480.59 Q796.588 1480.59 798.926 1478.48 Q801.264 1476.38 801.264 1472.76 Q801.264 1469.15 798.926 1467.05 Q796.588 1464.94 792.583 1464.94 Q790.708 1464.94 788.834 1465.36 Q786.982 1465.77 785.037 1466.65 L785.037 1449.29 Z" fill="#000000" fill-rule="evenodd" fill-opacity="1" /><path clip-path="url(#clip160)" d="M 0 0 M1262.38 1449.29 L1280.74 1449.29 L1280.74 1453.23 L1266.67 1453.23 L1266.67 1461.7 Q1267.68 1461.35 1268.7 1461.19 Q1269.72 1461 1270.74 1461 Q1276.53 1461 1279.91 1464.18 Q1283.29 1467.35 1283.29 1472.76 Q1283.29 1478.34 1279.81 1481.44 Q1276.34 1484.52 1270.02 1484.52 Q1267.85 1484.52 1265.58 1484.15 Q1263.33 1483.78 1260.93 1483.04 L1260.93 1478.34 Q1263.01 1479.48 1265.23 1480.03 Q1267.45 1480.59 1269.93 1480.59 Q1273.93 1480.59 1276.27 1478.48 Q1278.61 1476.38 1278.61 1472.76 Q1278.61 1469.15 1276.27 1467.05 Q1273.93 1464.94 1269.93 1464.94 Q1268.06 1464.94 1266.18 1465.36 Q1264.33 1465.77 1262.38 1466.65 L1262.38 1449.29 Z" fill="#000000" fill-rule="evenodd" fill-opacity="1" /><path clip-path="url(#clip160)" d="M 0 0 M1298.36 1452.37 Q1294.74 1452.37 1292.92 1455.94 Q1291.11 1459.48 1291.11 1466.61 Q1291.11 1473.71 1292.92 1477.28 Q1294.74 1480.82 1298.36 1480.82 Q1301.99 1480.82 1303.8 1477.28 Q1305.62 1473.71 1305.62 1466.61 Q1305.62 1459.48 1303.8 1455.94 Q1301.99 1452.37 1298.36 1452.37 M1298.36 1448.67 Q1304.17 1448.67 1307.22 1453.27 Q1310.3 1457.86 1310.3 1466.61 Q1310.3 1475.33 1307.22 1479.94 Q1304.17 1484.52 1298.36 1484.52 Q1292.55 1484.52 1289.47 1479.94 Q1286.41 1475.33 1286.41 1466.61 Q1286.41 1457.86 1289.47 1453.27 Q1292.55 1448.67 1298.36 1448.67 Z" fill="#000000" fill-rule="evenodd" fill-opacity="1" /><path clip-path="url(#clip160)" d="M 0 0 M1765.15 1449.29 L1787.37 1449.29 L1787.37 1451.28 L1774.82 1483.85 L1769.94 1483.85 L1781.74 1453.23 L1765.15 1453.23 L1765.15 1449.29 Z" fill="#000000" fill-rule="evenodd" fill-opacity="1" /><path clip-path="url(#clip160)" d="M 0 0 M1792.48 1449.29 L1810.84 1449.29 L1810.84 1453.23 L1796.77 1453.23 L1796.77 1461.7 Q1797.79 1461.35 1798.8 1461.19 Q1799.82 1461 1800.84 1461 Q1806.63 1461 1810.01 1464.18 Q1813.39 1467.35 1813.39 1472.76 Q1813.39 1478.34 1809.92 1481.44 Q1806.44 1484.52 1800.12 1484.52 Q1797.95 1484.52 1795.68 1484.15 Q1793.43 1483.78 1791.03 1483.04 L1791.03 1478.34 Q1793.11 1479.48 1795.33 1480.03 Q1797.55 1480.59 1800.03 1480.59 Q1804.04 1480.59 1806.37 1478.48 Q1808.71 1476.38 1808.71 1472.76 Q1808.71 1469.15 1806.37 1467.05 Q1804.04 1464.94 1800.03 1464.94 Q1798.16 1464.94 1796.28 1465.36 Q1794.43 1465.77 1792.48 1466.65 L1792.48 1449.29 Z" fill="#000000" fill-rule="evenodd" fill-opacity="1" /><path clip-path="url(#clip160)" d="M 0 0 M2256.29 1479.92 L2263.93 1479.92 L2263.93 1453.55 L2255.62 1455.22 L2255.62 1450.96 L2263.88 1449.29 L2268.56 1449.29 L2268.56 1479.92 L2276.2 1479.92 L2276.2 1483.85 L2256.29 1483.85 L2256.29 1479.92 Z" fill="#000000" fill-rule="evenodd" fill-opacity="1" /><path clip-path="url(#clip160)" d="M 0 0 M2291.27 1452.37 Q2287.66 1452.37 2285.83 1455.94 Q2284.02 1459.48 2284.02 1466.61 Q2284.02 1473.71 2285.83 1477.28 Q2287.66 1480.82 2291.27 1480.82 Q2294.9 1480.82 2296.71 1477.28 Q2298.54 1473.71 2298.54 1466.61 Q2298.54 1459.48 2296.71 1455.94 Q2294.9 1452.37 2291.27 1452.37 M2291.27 1448.67 Q2297.08 1448.67 2300.13 1453.27 Q2303.21 1457.86 2303.21 1466.61 Q2303.21 1475.33 2300.13 1479.94 Q2297.08 1484.52 2291.27 1484.52 Q2285.46 1484.52 2282.38 1479.94 Q2279.32 1475.33 2279.32 1466.61 Q2279.32 1457.86 2282.38 1453.27 Q2285.46 1448.67 2291.27 1448.67 Z" fill="#000000" fill-rule="evenodd" fill-opacity="1" /><path clip-path="url(#clip160)" d="M 0 0 M2318.28 1452.37 Q2314.67 1452.37 2312.84 1455.94 Q2311.04 1459.48 2311.04 1466.61 Q2311.04 1473.71 2312.84 1477.28 Q2314.67 1480.82 2318.28 1480.82 Q2321.91 1480.82 2323.72 1477.28 Q2325.55 1473.71 2325.55 1466.61 Q2325.55 1459.48 2323.72 1455.94 Q2321.91 1452.37 2318.28 1452.37 M2318.28 1448.67 Q2324.09 1448.67 2327.15 1453.27 Q2330.22 1457.86 2330.22 1466.61 Q2330.22 1475.33 2327.15 1479.94 Q2324.09 1484.52 2318.28 1484.52 Q2312.47 1484.52 2309.39 1479.94 Q2306.34 1475.33 2306.34 1466.61 Q2306.34 1457.86 2309.39 1453.27 Q2312.47 1448.67 2318.28 1448.67 Z" fill="#000000" fill-rule="evenodd" fill-opacity="1" /><path clip-path="url(#clip160)" d="M 0 0 M1294.75 1510.27 L1294.75 1520.4 L1306.81 1520.4 L1306.81 1524.95 L1294.75 1524.95 L1294.75 1544.3 Q1294.75 1548.66 1295.92 1549.9 Q1297.13 1551.14 1300.79 1551.14 L1306.81 1551.14 L1306.81 1556.04 L1300.79 1556.04 Q1294.02 1556.04 1291.44 1553.53 Q1288.86 1550.98 1288.86 1544.3 L1288.86 1524.95 L1284.56 1524.95 L1284.56 1520.4 L1288.86 1520.4 L1288.86 1510.27 L1294.75 1510.27 Z" fill="#000000" fill-rule="evenodd" fill-opacity="1" /><polyline clip-path="url(#clip162)" style="stroke:#000000; stroke-width:2; stroke-opacity:0.1; fill:none" points="
  238.616,1385.38 2352.76,1385.38 
  "/>
<polyline clip-path="url(#clip162)" style="stroke:#000000; stroke-width:2; stroke-opacity:0.1; fill:none" points="
  238.616,1165.2 2352.76,1165.2 
  "/>
<polyline clip-path="url(#clip162)" style="stroke:#000000; stroke-width:2; stroke-opacity:0.1; fill:none" points="
  238.616,945.015 2352.76,945.015 
  "/>
<polyline clip-path="url(#clip162)" style="stroke:#000000; stroke-width:2; stroke-opacity:0.1; fill:none" points="
  238.616,724.83 2352.76,724.83 
  "/>
<polyline clip-path="url(#clip162)" style="stroke:#000000; stroke-width:2; stroke-opacity:0.1; fill:none" points="
  238.616,504.646 2352.76,504.646 
  "/>
<polyline clip-path="url(#clip162)" style="stroke:#000000; stroke-width:2; stroke-opacity:0.1; fill:none" points="
  238.616,284.462 2352.76,284.462 
  "/>
<polyline clip-path="url(#clip162)" style="stroke:#000000; stroke-width:2; stroke-opacity:0.1; fill:none" points="
  238.616,64.2773 2352.76,64.2773 
  "/>
<polyline clip-path="url(#clip160)" style="stroke:#000000; stroke-width:4; stroke-opacity:1; fill:none" points="
  238.616,1423.18 238.616,47.2441 
  "/>
<polyline clip-path="url(#clip160)" style="stroke:#000000; stroke-width:4; stroke-opacity:1; fill:none" points="
  238.616,1385.38 263.986,1385.38 
  "/>
<polyline clip-path="url(#clip160)" style="stroke:#000000; stroke-width:4; stroke-opacity:1; fill:none" points="
  238.616,1165.2 263.986,1165.2 
  "/>
<polyline clip-path="url(#clip160)" style="stroke:#000000; stroke-width:4; stroke-opacity:1; fill:none" points="
  238.616,945.015 263.986,945.015 
  "/>
<polyline clip-path="url(#clip160)" style="stroke:#000000; stroke-width:4; stroke-opacity:1; fill:none" points="
  238.616,724.83 263.986,724.83 
  "/>
<polyline clip-path="url(#clip160)" style="stroke:#000000; stroke-width:4; stroke-opacity:1; fill:none" points="
  238.616,504.646 263.986,504.646 
  "/>
<polyline clip-path="url(#clip160)" style="stroke:#000000; stroke-width:4; stroke-opacity:1; fill:none" points="
  238.616,284.462 263.986,284.462 
  "/>
<polyline clip-path="url(#clip160)" style="stroke:#000000; stroke-width:4; stroke-opacity:1; fill:none" points="
  238.616,64.2773 263.986,64.2773 
  "/>
<path clip-path="url(#clip160)" d="M 0 0 M126.691 1371.18 Q123.08 1371.18 121.251 1374.75 Q119.445 1378.29 119.445 1385.42 Q119.445 1392.52 121.251 1396.09 Q123.08 1399.63 126.691 1399.63 Q130.325 1399.63 132.13 1396.09 Q133.959 1392.52 133.959 1385.42 Q133.959 1378.29 132.13 1374.75 Q130.325 1371.18 126.691 1371.18 M126.691 1367.48 Q132.501 1367.48 135.556 1372.08 Q138.635 1376.67 138.635 1385.42 Q138.635 1394.14 135.556 1398.75 Q132.501 1403.33 126.691 1403.33 Q120.88 1403.33 117.802 1398.75 Q114.746 1394.14 114.746 1385.42 Q114.746 1376.67 117.802 1372.08 Q120.88 1367.48 126.691 1367.48 Z" fill="#000000" fill-rule="evenodd" fill-opacity="1" /><path clip-path="url(#clip160)" d="M 0 0 M143.704 1396.78 L148.589 1396.78 L148.589 1402.66 L143.704 1402.66 L143.704 1396.78 Z" fill="#000000" fill-rule="evenodd" fill-opacity="1" /><path clip-path="url(#clip160)" d="M 0 0 M163.658 1371.18 Q160.047 1371.18 158.218 1374.75 Q156.413 1378.29 156.413 1385.42 Q156.413 1392.52 158.218 1396.09 Q160.047 1399.63 163.658 1399.63 Q167.292 1399.63 169.098 1396.09 Q170.927 1392.52 170.927 1385.42 Q170.927 1378.29 169.098 1374.75 Q167.292 1371.18 163.658 1371.18 M163.658 1367.48 Q169.468 1367.48 172.524 1372.08 Q175.602 1376.67 175.602 1385.42 Q175.602 1394.14 172.524 1398.75 Q169.468 1403.33 163.658 1403.33 Q157.848 1403.33 154.769 1398.75 Q151.714 1394.14 151.714 1385.42 Q151.714 1376.67 154.769 1372.08 Q157.848 1367.48 163.658 1367.48 Z" fill="#000000" fill-rule="evenodd" fill-opacity="1" /><path clip-path="url(#clip160)" d="M 0 0 M190.672 1371.18 Q187.061 1371.18 185.232 1374.75 Q183.426 1378.29 183.426 1385.42 Q183.426 1392.52 185.232 1396.09 Q187.061 1399.63 190.672 1399.63 Q194.306 1399.63 196.112 1396.09 Q197.94 1392.52 197.94 1385.42 Q197.94 1378.29 196.112 1374.75 Q194.306 1371.18 190.672 1371.18 M190.672 1367.48 Q196.482 1367.48 199.537 1372.08 Q202.616 1376.67 202.616 1385.42 Q202.616 1394.14 199.537 1398.75 Q196.482 1403.33 190.672 1403.33 Q184.862 1403.33 181.783 1398.75 Q178.727 1394.14 178.727 1385.42 Q178.727 1376.67 181.783 1372.08 Q184.862 1367.48 190.672 1367.48 Z" fill="#000000" fill-rule="evenodd" fill-opacity="1" /><path clip-path="url(#clip160)" d="M 0 0 M127.917 1151 Q124.306 1151 122.478 1154.56 Q120.672 1158.1 120.672 1165.23 Q120.672 1172.34 122.478 1175.9 Q124.306 1179.45 127.917 1179.45 Q131.552 1179.45 133.357 1175.9 Q135.186 1172.34 135.186 1165.23 Q135.186 1158.1 133.357 1154.56 Q131.552 1151 127.917 1151 M127.917 1147.29 Q133.728 1147.29 136.783 1151.9 Q139.862 1156.48 139.862 1165.23 Q139.862 1173.96 136.783 1178.57 Q133.728 1183.15 127.917 1183.15 Q122.107 1183.15 119.029 1178.57 Q115.973 1173.96 115.973 1165.23 Q115.973 1156.48 119.029 1151.9 Q122.107 1147.29 127.917 1147.29 Z" fill="#000000" fill-rule="evenodd" fill-opacity="1" /><path clip-path="url(#clip160)" d="M 0 0 M144.931 1176.6 L149.816 1176.6 L149.816 1182.48 L144.931 1182.48 L144.931 1176.6 Z" fill="#000000" fill-rule="evenodd" fill-opacity="1" /><path clip-path="url(#clip160)" d="M 0 0 M164.885 1151 Q161.274 1151 159.445 1154.56 Q157.64 1158.1 157.64 1165.23 Q157.64 1172.34 159.445 1175.9 Q161.274 1179.45 164.885 1179.45 Q168.519 1179.45 170.325 1175.9 Q172.153 1172.34 172.153 1165.23 Q172.153 1158.1 170.325 1154.56 Q168.519 1151 164.885 1151 M164.885 1147.29 Q170.695 1147.29 173.751 1151.9 Q176.829 1156.48 176.829 1165.23 Q176.829 1173.96 173.751 1178.57 Q170.695 1183.15 164.885 1183.15 Q159.075 1183.15 155.996 1178.57 Q152.941 1173.96 152.941 1165.23 Q152.941 1156.48 155.996 1151.9 Q159.075 1147.29 164.885 1147.29 Z" fill="#000000" fill-rule="evenodd" fill-opacity="1" /><path clip-path="url(#clip160)" d="M 0 0 M182.709 1178.54 L190.348 1178.54 L190.348 1152.18 L182.038 1153.84 L182.038 1149.59 L190.301 1147.92 L194.977 1147.92 L194.977 1178.54 L202.616 1178.54 L202.616 1182.48 L182.709 1182.48 L182.709 1178.54 Z" fill="#000000" fill-rule="evenodd" fill-opacity="1" /><path clip-path="url(#clip160)" d="M 0 0 M128.288 930.813 Q124.677 930.813 122.848 934.378 Q121.043 937.92 121.043 945.049 Q121.043 952.156 122.848 955.721 Q124.677 959.262 128.288 959.262 Q131.922 959.262 133.728 955.721 Q135.556 952.156 135.556 945.049 Q135.556 937.92 133.728 934.378 Q131.922 930.813 128.288 930.813 M128.288 927.11 Q134.098 927.11 137.154 931.716 Q140.232 936.299 140.232 945.049 Q140.232 953.776 137.154 958.383 Q134.098 962.966 128.288 962.966 Q122.478 962.966 119.399 958.383 Q116.343 953.776 116.343 945.049 Q116.343 936.299 119.399 931.716 Q122.478 927.11 128.288 927.11 Z" fill="#000000" fill-rule="evenodd" fill-opacity="1" /><path clip-path="url(#clip160)" d="M 0 0 M145.302 956.415 L150.186 956.415 L150.186 962.295 L145.302 962.295 L145.302 956.415 Z" fill="#000000" fill-rule="evenodd" fill-opacity="1" /><path clip-path="url(#clip160)" d="M 0 0 M165.255 930.813 Q161.644 930.813 159.815 934.378 Q158.01 937.92 158.01 945.049 Q158.01 952.156 159.815 955.721 Q161.644 959.262 165.255 959.262 Q168.889 959.262 170.695 955.721 Q172.524 952.156 172.524 945.049 Q172.524 937.92 170.695 934.378 Q168.889 930.813 165.255 930.813 M165.255 927.11 Q171.065 927.11 174.121 931.716 Q177.2 936.299 177.2 945.049 Q177.2 953.776 174.121 958.383 Q171.065 962.966 165.255 962.966 Q159.445 962.966 156.366 958.383 Q153.311 953.776 153.311 945.049 Q153.311 936.299 156.366 931.716 Q159.445 927.11 165.255 927.11 Z" fill="#000000" fill-rule="evenodd" fill-opacity="1" /><path clip-path="url(#clip160)" d="M 0 0 M186.297 958.359 L202.616 958.359 L202.616 962.295 L180.672 962.295 L180.672 958.359 Q183.334 955.605 187.917 950.975 Q192.524 946.322 193.704 944.98 Q195.95 942.457 196.829 940.721 Q197.732 938.961 197.732 937.272 Q197.732 934.517 195.787 932.781 Q193.866 931.045 190.764 931.045 Q188.565 931.045 186.112 931.809 Q183.681 932.573 180.903 934.123 L180.903 929.401 Q183.727 928.267 186.181 927.688 Q188.635 927.11 190.672 927.11 Q196.042 927.11 199.237 929.795 Q202.431 932.48 202.431 936.971 Q202.431 939.1 201.621 941.022 Q200.834 942.92 198.727 945.512 Q198.149 946.184 195.047 949.401 Q191.945 952.596 186.297 958.359 Z" fill="#000000" fill-rule="evenodd" fill-opacity="1" /><path clip-path="url(#clip160)" d="M 0 0 M127.339 710.629 Q123.728 710.629 121.899 714.194 Q120.093 717.735 120.093 724.865 Q120.093 731.971 121.899 735.536 Q123.728 739.078 127.339 739.078 Q130.973 739.078 132.779 735.536 Q134.607 731.971 134.607 724.865 Q134.607 717.735 132.779 714.194 Q130.973 710.629 127.339 710.629 M127.339 706.925 Q133.149 706.925 136.204 711.532 Q139.283 716.115 139.283 724.865 Q139.283 733.592 136.204 738.198 Q133.149 742.782 127.339 742.782 Q121.529 742.782 118.45 738.198 Q115.394 733.592 115.394 724.865 Q115.394 716.115 118.45 711.532 Q121.529 706.925 127.339 706.925 Z" fill="#000000" fill-rule="evenodd" fill-opacity="1" /><path clip-path="url(#clip160)" d="M 0 0 M144.353 736.231 L149.237 736.231 L149.237 742.11 L144.353 742.11 L144.353 736.231 Z" fill="#000000" fill-rule="evenodd" fill-opacity="1" /><path clip-path="url(#clip160)" d="M 0 0 M164.306 710.629 Q160.695 710.629 158.866 714.194 Q157.061 717.735 157.061 724.865 Q157.061 731.971 158.866 735.536 Q160.695 739.078 164.306 739.078 Q167.94 739.078 169.746 735.536 Q171.575 731.971 171.575 724.865 Q171.575 717.735 169.746 714.194 Q167.94 710.629 164.306 710.629 M164.306 706.925 Q170.116 706.925 173.172 711.532 Q176.251 716.115 176.251 724.865 Q176.251 733.592 173.172 738.198 Q170.116 742.782 164.306 742.782 Q158.496 742.782 155.417 738.198 Q152.362 733.592 152.362 724.865 Q152.362 716.115 155.417 711.532 Q158.496 706.925 164.306 706.925 Z" fill="#000000" fill-rule="evenodd" fill-opacity="1" /><path clip-path="url(#clip160)" d="M 0 0 M195.487 723.476 Q198.843 724.194 200.718 726.462 Q202.616 728.731 202.616 732.064 Q202.616 737.18 199.098 739.981 Q195.579 742.782 189.098 742.782 Q186.922 742.782 184.607 742.342 Q182.315 741.925 179.862 741.069 L179.862 736.555 Q181.806 737.689 184.121 738.268 Q186.436 738.846 188.959 738.846 Q193.357 738.846 195.649 737.11 Q197.963 735.374 197.963 732.064 Q197.963 729.008 195.811 727.296 Q193.681 725.559 189.862 725.559 L185.834 725.559 L185.834 721.717 L190.047 721.717 Q193.496 721.717 195.325 720.351 Q197.153 718.962 197.153 716.37 Q197.153 713.708 195.255 712.296 Q193.38 710.86 189.862 710.86 Q187.94 710.86 185.741 711.277 Q183.542 711.694 180.903 712.573 L180.903 708.407 Q183.565 707.666 185.88 707.296 Q188.218 706.925 190.278 706.925 Q195.602 706.925 198.704 709.356 Q201.806 711.763 201.806 715.884 Q201.806 718.754 200.162 720.745 Q198.519 722.712 195.487 723.476 Z" fill="#000000" fill-rule="evenodd" fill-opacity="1" /><path clip-path="url(#clip160)" d="M 0 0 M126.205 490.445 Q122.593 490.445 120.765 494.009 Q118.959 497.551 118.959 504.681 Q118.959 511.787 120.765 515.352 Q122.593 518.894 126.205 518.894 Q129.839 518.894 131.644 515.352 Q133.473 511.787 133.473 504.681 Q133.473 497.551 131.644 494.009 Q129.839 490.445 126.205 490.445 M126.205 486.741 Q132.015 486.741 135.07 491.347 Q138.149 495.931 138.149 504.681 Q138.149 513.407 135.07 518.014 Q132.015 522.597 126.205 522.597 Q120.394 522.597 117.316 518.014 Q114.26 513.407 114.26 504.681 Q114.26 495.931 117.316 491.347 Q120.394 486.741 126.205 486.741 Z" fill="#000000" fill-rule="evenodd" fill-opacity="1" /><path clip-path="url(#clip160)" d="M 0 0 M143.218 516.046 L148.103 516.046 L148.103 521.926 L143.218 521.926 L143.218 516.046 Z" fill="#000000" fill-rule="evenodd" fill-opacity="1" /><path clip-path="url(#clip160)" d="M 0 0 M163.172 490.445 Q159.561 490.445 157.732 494.009 Q155.927 497.551 155.927 504.681 Q155.927 511.787 157.732 515.352 Q159.561 518.894 163.172 518.894 Q166.806 518.894 168.612 515.352 Q170.44 511.787 170.44 504.681 Q170.44 497.551 168.612 494.009 Q166.806 490.445 163.172 490.445 M163.172 486.741 Q168.982 486.741 172.038 491.347 Q175.116 495.931 175.116 504.681 Q175.116 513.407 172.038 518.014 Q168.982 522.597 163.172 522.597 Q157.362 522.597 154.283 518.014 Q151.228 513.407 151.228 504.681 Q151.228 495.931 154.283 491.347 Q157.362 486.741 163.172 486.741 Z" fill="#000000" fill-rule="evenodd" fill-opacity="1" /><path clip-path="url(#clip160)" d="M 0 0 M193.033 491.44 L181.227 509.889 L193.033 509.889 L193.033 491.44 M191.806 487.366 L197.686 487.366 L197.686 509.889 L202.616 509.889 L202.616 513.778 L197.686 513.778 L197.686 521.926 L193.033 521.926 L193.033 513.778 L177.431 513.778 L177.431 509.264 L191.806 487.366 Z" fill="#000000" fill-rule="evenodd" fill-opacity="1" /><path clip-path="url(#clip160)" d="M 0 0 M127.686 270.26 Q124.075 270.26 122.246 273.825 Q120.441 277.367 120.441 284.496 Q120.441 291.603 122.246 295.168 Q124.075 298.709 127.686 298.709 Q131.32 298.709 133.126 295.168 Q134.954 291.603 134.954 284.496 Q134.954 277.367 133.126 273.825 Q131.32 270.26 127.686 270.26 M127.686 266.557 Q133.496 266.557 136.552 271.163 Q139.63 275.746 139.63 284.496 Q139.63 293.223 136.552 297.83 Q133.496 302.413 127.686 302.413 Q121.876 302.413 118.797 297.83 Q115.742 293.223 115.742 284.496 Q115.742 275.746 118.797 271.163 Q121.876 266.557 127.686 266.557 Z" fill="#000000" fill-rule="evenodd" fill-opacity="1" /><path clip-path="url(#clip160)" d="M 0 0 M144.7 295.862 L149.584 295.862 L149.584 301.742 L144.7 301.742 L144.7 295.862 Z" fill="#000000" fill-rule="evenodd" fill-opacity="1" /><path clip-path="url(#clip160)" d="M 0 0 M164.653 270.26 Q161.042 270.26 159.214 273.825 Q157.408 277.367 157.408 284.496 Q157.408 291.603 159.214 295.168 Q161.042 298.709 164.653 298.709 Q168.288 298.709 170.093 295.168 Q171.922 291.603 171.922 284.496 Q171.922 277.367 170.093 273.825 Q168.288 270.26 164.653 270.26 M164.653 266.557 Q170.464 266.557 173.519 271.163 Q176.598 275.746 176.598 284.496 Q176.598 293.223 173.519 297.83 Q170.464 302.413 164.653 302.413 Q158.843 302.413 155.765 297.83 Q152.709 293.223 152.709 284.496 Q152.709 275.746 155.765 271.163 Q158.843 266.557 164.653 266.557 Z" fill="#000000" fill-rule="evenodd" fill-opacity="1" /><path clip-path="url(#clip160)" d="M 0 0 M181.713 267.182 L200.07 267.182 L200.07 271.117 L185.996 271.117 L185.996 279.589 Q187.014 279.242 188.033 279.08 Q189.051 278.895 190.07 278.895 Q195.857 278.895 199.237 282.066 Q202.616 285.237 202.616 290.654 Q202.616 296.232 199.144 299.334 Q195.672 302.413 189.352 302.413 Q187.176 302.413 184.908 302.043 Q182.663 301.672 180.255 300.931 L180.255 296.232 Q182.338 297.367 184.561 297.922 Q186.783 298.478 189.26 298.478 Q193.264 298.478 195.602 296.371 Q197.94 294.265 197.94 290.654 Q197.94 287.043 195.602 284.936 Q193.264 282.83 189.26 282.83 Q187.385 282.83 185.51 283.246 Q183.658 283.663 181.713 284.543 L181.713 267.182 Z" fill="#000000" fill-rule="evenodd" fill-opacity="1" /><path clip-path="url(#clip160)" d="M 0 0 M126.529 50.076 Q122.918 50.076 121.089 53.6408 Q119.283 57.1825 119.283 64.3121 Q119.283 71.4185 121.089 74.9833 Q122.918 78.5249 126.529 78.5249 Q130.163 78.5249 131.968 74.9833 Q133.797 71.4185 133.797 64.3121 Q133.797 57.1825 131.968 53.6408 Q130.163 50.076 126.529 50.076 M126.529 46.3723 Q132.339 46.3723 135.394 50.9788 Q138.473 55.5621 138.473 64.3121 Q138.473 73.0389 135.394 77.6453 Q132.339 82.2286 126.529 82.2286 Q120.718 82.2286 117.64 77.6453 Q114.584 73.0389 114.584 64.3121 Q114.584 55.5621 117.64 50.9788 Q120.718 46.3723 126.529 46.3723 Z" fill="#000000" fill-rule="evenodd" fill-opacity="1" /><path clip-path="url(#clip160)" d="M 0 0 M143.542 75.6777 L148.427 75.6777 L148.427 81.5573 L143.542 81.5573 L143.542 75.6777 Z" fill="#000000" fill-rule="evenodd" fill-opacity="1" /><path clip-path="url(#clip160)" d="M 0 0 M163.496 50.076 Q159.885 50.076 158.056 53.6408 Q156.251 57.1825 156.251 64.3121 Q156.251 71.4185 158.056 74.9833 Q159.885 78.5249 163.496 78.5249 Q167.13 78.5249 168.936 74.9833 Q170.764 71.4185 170.764 64.3121 Q170.764 57.1825 168.936 53.6408 Q167.13 50.076 163.496 50.076 M163.496 46.3723 Q169.306 46.3723 172.362 50.9788 Q175.44 55.5621 175.44 64.3121 Q175.44 73.0389 172.362 77.6453 Q169.306 82.2286 163.496 82.2286 Q157.686 82.2286 154.607 77.6453 Q151.552 73.0389 151.552 64.3121 Q151.552 55.5621 154.607 50.9788 Q157.686 46.3723 163.496 46.3723 Z" fill="#000000" fill-rule="evenodd" fill-opacity="1" /><path clip-path="url(#clip160)" d="M 0 0 M191.088 62.4139 Q187.94 62.4139 186.088 64.5667 Q184.26 66.7194 184.26 70.4694 Q184.26 74.1963 186.088 76.3722 Q187.94 78.5249 191.088 78.5249 Q194.237 78.5249 196.065 76.3722 Q197.917 74.1963 197.917 70.4694 Q197.917 66.7194 196.065 64.5667 Q194.237 62.4139 191.088 62.4139 M200.371 47.7612 L200.371 52.0205 Q198.612 51.1871 196.806 50.7473 Q195.024 50.3075 193.264 50.3075 Q188.635 50.3075 186.181 53.4325 Q183.751 56.5575 183.403 62.8769 Q184.769 60.863 186.829 59.7982 Q188.889 58.7102 191.366 58.7102 Q196.575 58.7102 199.584 61.8815 Q202.616 65.0296 202.616 70.4694 Q202.616 75.7935 199.468 79.0111 Q196.32 82.2286 191.088 82.2286 Q185.093 82.2286 181.922 77.6453 Q178.751 73.0389 178.751 64.3121 Q178.751 56.1177 182.639 51.2566 Q186.528 46.3723 193.079 46.3723 Q194.838 46.3723 196.621 46.7196 Q198.426 47.0668 200.371 47.7612 Z" fill="#000000" fill-rule="evenodd" fill-opacity="1" /><path clip-path="url(#clip160)" d="M 0 0 M67.0928 718.788 Q67.0928 721.558 69.4481 723.149 Q71.8034 724.709 76.0048 724.709 Q80.1425 724.709 82.5296 723.149 Q84.885 721.558 84.885 718.788 Q84.885 716.083 82.5296 714.523 Q80.1425 712.932 76.0048 712.932 Q71.8353 712.932 69.48 714.523 Q67.0928 716.083 67.0928 718.788 M63.0506 718.788 Q63.0506 713.76 66.5517 710.799 Q70.0529 707.839 76.0048 707.839 Q81.9567 707.839 85.4579 710.831 Q88.9272 713.791 88.9272 718.788 Q88.9272 723.881 85.4579 726.841 Q81.9567 729.801 76.0048 729.801 Q70.021 729.801 66.5517 726.841 Q63.0506 723.849 63.0506 718.788 M43.667 751.635 Q43.667 754.373 46.0542 755.964 Q48.4095 757.524 52.5472 757.524 Q56.7485 757.524 59.1038 755.964 Q61.4592 754.405 61.4592 751.635 Q61.4592 748.866 59.1038 747.307 Q56.7485 745.715 52.5472 745.715 Q48.4413 745.715 46.0542 747.307 Q43.667 748.898 43.667 751.635 M39.6248 722.894 L39.6248 717.802 L88.9272 747.53 L88.9272 752.622 L39.6248 722.894 M39.6248 751.635 Q39.6248 746.607 43.1259 743.615 Q46.5952 740.623 52.5472 740.623 Q58.5628 740.623 62.0321 743.615 Q65.5014 746.575 65.5014 751.635 Q65.5014 756.696 62.0321 759.656 Q58.5309 762.585 52.5472 762.585 Q46.6271 762.585 43.1259 759.624 Q39.6248 756.664 39.6248 751.635 Z" fill="#000000" fill-rule="evenodd" fill-opacity="1" /><polyline clip-path="url(#clip162)" style="stroke:#009af9; stroke-width:4; stroke-opacity:1; fill:none" points="
  298.45,1339.34 318.596,1336.37 338.743,1330.8 358.889,1324.7 379.035,1317.52 399.181,1309.33 419.327,1301.74 439.474,1294.89 459.62,1289.03 479.766,1284.56 
  499.912,1279.83 520.058,1275.58 540.204,1271.26 560.351,1267.72 580.497,1264.57 600.643,1263.31 620.789,1262.04 640.935,1260.78 661.081,1257.32 681.228,1256.33 
  701.374,1255.98 721.52,1256.07 741.666,1254.15 761.812,1255.67 781.959,1255.06 802.105,1254.2 822.251,1255.25 842.397,1254.9 862.543,1254.07 882.689,1253.96 
  902.836,1254.04 922.982,1252.92 943.128,1253.01 963.274,1252.77 983.42,1253.38 1003.57,1253.14 1023.71,1253.56 1043.86,1254.07 1064.01,1254.15 1084.15,1255.36 
  1104.3,1255.58 1124.44,1256.2 1144.59,1256.16 1164.74,1257.83 1184.88,1258.62 1205.03,1260.36 1225.17,1262.72 1245.32,1263.49 1265.47,1264.92 1285.61,1265.25 
  1305.76,1265.93 1325.91,1266.42 1346.05,1267.5 1366.2,1269.5 1386.34,1270.84 1406.49,1272.76 1426.64,1273.38 1446.78,1273.29 1466.93,1273.27 1487.07,1274.85 
  1507.22,1275.82 1527.37,1276.04 1547.51,1276.88 1567.66,1277.25 1587.81,1277.58 1607.95,1278.73 1628.1,1280.55 1648.24,1280.88 1668.39,1282.23 1688.54,1283.24 
  1708.68,1285.24 1728.83,1286.78 1748.98,1289.78 1769.12,1291.76 1789.27,1292.71 1809.41,1294.65 1829.56,1294.27 1849.71,1295.42 1869.85,1296.41 1890,1296.83 
  1910.14,1299.18 1930.29,1299.53 1950.44,1299.82 1970.58,1300.46 1990.73,1301.03 2010.88,1301.67 2031.02,1302.18 2051.17,1303.52 2071.31,1304.4 2091.46,1305.13 
  2111.61,1307.17 2131.75,1307.53 2151.9,1307.97 2172.04,1308.89 2192.19,1309.02 2212.34,1308.78 2232.48,1309.57 2252.63,1310.54 2272.78,1310.67 2292.92,1311.4 
  
  "/>
<polyline clip-path="url(#clip162)" style="stroke:#e26f46; stroke-width:4; stroke-opacity:1; fill:none" points="
  298.45,1329.94 318.596,1297 338.743,1239.95 358.889,1161.94 379.035,1070.43 399.181,970.864 419.327,863.326 439.474,751.098 459.62,638.188 479.766,526.863 
  499.912,427.405 520.058,344.836 540.204,276.645 560.351,216.469 580.497,164.021 600.643,130.619 620.789,109.459 640.935,95.4995 661.081,86.1857 681.228,90.5673 
  701.374,105.738 721.52,125.621 741.666,156.887 761.812,191.962 781.959,231.155 802.105,276.579 822.251,324.469 842.397,374.869 862.543,425.38 882.689,479.545 
  902.836,532.169 922.982,581.05 943.128,631.01 963.274,680.904 983.42,725.028 1003.57,767.656 1023.71,810.526 1043.86,850.181 1064.01,891.268 1084.15,927.884 
  1104.3,960.802 1124.44,992.354 1144.59,1024.57 1164.74,1050.44 1184.88,1077.72 1205.03,1103.97 1225.17,1125.7 1245.32,1147.56 1265.47,1167.69 1285.61,1186.23 
  1305.76,1202.52 1325.91,1217.62 1346.05,1232.27 1366.2,1246.49 1386.34,1258.31 1406.49,1269.79 1426.64,1280.58 1446.78,1289.93 1466.93,1297.97 1487.07,1305.3 
  1507.22,1312.39 1527.37,1319.9 1547.51,1326.37 1567.66,1332.3 1587.81,1337.76 1607.95,1342.05 1628.1,1345.97 1648.24,1349.71 1668.39,1353.32 1688.54,1356.69 
  1708.68,1359.78 1728.83,1362.26 1748.98,1364.42 1769.12,1366.23 1789.27,1368.19 1809.41,1369.62 1829.56,1371.36 1849.71,1372.83 1869.85,1374.07 1890,1375.36 
  1910.14,1376.55 1930.29,1377.15 1950.44,1377.96 1970.58,1378.82 1990.73,1379.37 2010.88,1379.81 2031.02,1380.21 2051.17,1380.61 2071.31,1381.2 2091.46,1381.62 
  2111.61,1382.06 2131.75,1382.48 2151.9,1382.85 2172.04,1383.12 2192.19,1383.45 2212.34,1383.69 2232.48,1383.78 2252.63,1383.97 2272.78,1384.19 2292.92,1384.24 
  
  "/>
<path clip-path="url(#clip160)" d="
M1949.23 274.549 L2282.28 274.549 L2282.28 93.1086 L1949.23 93.1086  Z
  " fill="#ffffff" fill-rule="evenodd" fill-opacity="1"/>
<polyline clip-path="url(#clip160)" style="stroke:#000000; stroke-width:4; stroke-opacity:1; fill:none" points="
  1949.23,274.549 2282.28,274.549 2282.28,93.1086 1949.23,93.1086 1949.23,274.549 
  "/>
<polyline clip-path="url(#clip160)" style="stroke:#009af9; stroke-width:4; stroke-opacity:1; fill:none" points="
  1972.72,153.589 2113.67,153.589 
  "/>
<path clip-path="url(#clip160)" d="M 0 0 M2159.4 137.443 L2159.4 142.003 Q2156.74 140.73 2154.38 140.105 Q2152.02 139.48 2149.82 139.48 Q2146 139.48 2143.92 140.961 Q2141.86 142.443 2141.86 145.174 Q2141.86 147.466 2143.22 148.647 Q2144.61 149.804 2148.45 150.522 L2151.28 151.1 Q2156.51 152.096 2158.98 154.619 Q2161.48 157.119 2161.48 161.332 Q2161.48 166.355 2158.11 168.947 Q2154.75 171.54 2148.24 171.54 Q2145.79 171.54 2143.01 170.984 Q2140.26 170.429 2137.29 169.341 L2137.29 164.526 Q2140.14 166.123 2142.87 166.933 Q2145.61 167.744 2148.24 167.744 Q2152.25 167.744 2154.42 166.17 Q2156.6 164.596 2156.6 161.679 Q2156.6 159.133 2155.03 157.697 Q2153.48 156.262 2149.91 155.545 L2147.06 154.989 Q2141.83 153.947 2139.49 151.725 Q2137.16 149.503 2137.16 145.545 Q2137.16 140.961 2140.37 138.322 Q2143.61 135.684 2149.29 135.684 Q2151.72 135.684 2154.24 136.123 Q2156.76 136.563 2159.4 137.443 Z" fill="#000000" fill-rule="evenodd" fill-opacity="1" /><path clip-path="url(#clip160)" d="M 0 0 M2178.57 140.915 L2172.23 158.114 L2184.93 158.114 L2178.57 140.915 M2175.93 136.309 L2181.23 136.309 L2194.4 170.869 L2189.54 170.869 L2186.39 162.003 L2170.81 162.003 L2167.67 170.869 L2162.73 170.869 L2175.93 136.309 Z" fill="#000000" fill-rule="evenodd" fill-opacity="1" /><path clip-path="url(#clip160)" d="M 0 0 M2199.05 136.309 L2203.73 136.309 L2203.73 170.869 L2199.05 170.869 L2199.05 136.309 Z" fill="#000000" fill-rule="evenodd" fill-opacity="1" /><path clip-path="url(#clip160)" d="M 0 0 M2224.77 154.665 Q2226.28 155.174 2227.69 156.841 Q2229.12 158.508 2230.56 161.424 L2235.3 170.869 L2230.28 170.869 L2225.86 162.003 Q2224.15 158.531 2222.53 157.396 Q2220.93 156.262 2218.15 156.262 L2213.06 156.262 L2213.06 170.869 L2208.38 170.869 L2208.38 136.309 L2218.94 136.309 Q2224.86 136.309 2227.78 138.785 Q2230.7 141.262 2230.7 146.262 Q2230.7 149.526 2229.17 151.679 Q2227.66 153.832 2224.77 154.665 M2213.06 140.151 L2213.06 152.42 L2218.94 152.42 Q2222.32 152.42 2224.03 150.869 Q2225.77 149.295 2225.77 146.262 Q2225.77 143.23 2224.03 141.702 Q2222.32 140.151 2218.94 140.151 L2213.06 140.151 Z" fill="#000000" fill-rule="evenodd" fill-opacity="1" /><polyline clip-path="url(#clip160)" style="stroke:#e26f46; stroke-width:4; stroke-opacity:1; fill:none" points="
  1972.72,214.069 2113.67,214.069 
  "/>
<path clip-path="url(#clip160)" d="M 0 0 M2159.4 197.923 L2159.4 202.483 Q2156.74 201.21 2154.38 200.585 Q2152.02 199.96 2149.82 199.96 Q2146 199.96 2143.92 201.441 Q2141.86 202.923 2141.86 205.654 Q2141.86 207.946 2143.22 209.127 Q2144.61 210.284 2148.45 211.002 L2151.28 211.58 Q2156.51 212.576 2158.98 215.099 Q2161.48 217.599 2161.48 221.812 Q2161.48 226.835 2158.11 229.427 Q2154.75 232.02 2148.24 232.02 Q2145.79 232.02 2143.01 231.464 Q2140.26 230.909 2137.29 229.821 L2137.29 225.006 Q2140.14 226.603 2142.87 227.413 Q2145.61 228.224 2148.24 228.224 Q2152.25 228.224 2154.42 226.65 Q2156.6 225.076 2156.6 222.159 Q2156.6 219.613 2155.03 218.177 Q2153.48 216.742 2149.91 216.025 L2147.06 215.469 Q2141.83 214.427 2139.49 212.205 Q2137.16 209.983 2137.16 206.025 Q2137.16 201.441 2140.37 198.802 Q2143.61 196.164 2149.29 196.164 Q2151.72 196.164 2154.24 196.603 Q2156.76 197.043 2159.4 197.923 Z" fill="#000000" fill-rule="evenodd" fill-opacity="1" /><path clip-path="url(#clip160)" d="M 0 0 M2166.14 196.789 L2170.81 196.789 L2170.81 231.349 L2166.14 231.349 L2166.14 196.789 Z" fill="#000000" fill-rule="evenodd" fill-opacity="1" /><path clip-path="url(#clip160)" d="M 0 0 M2191.85 215.145 Q2193.36 215.654 2194.77 217.321 Q2196.21 218.988 2197.64 221.904 L2202.39 231.349 L2197.36 231.349 L2192.94 222.483 Q2191.23 219.011 2189.61 217.876 Q2188.01 216.742 2185.23 216.742 L2180.14 216.742 L2180.14 231.349 L2175.47 231.349 L2175.47 196.789 L2186.02 196.789 Q2191.95 196.789 2194.86 199.265 Q2197.78 201.742 2197.78 206.742 Q2197.78 210.006 2196.25 212.159 Q2194.75 214.312 2191.85 215.145 M2180.14 200.631 L2180.14 212.9 L2186.02 212.9 Q2189.4 212.9 2191.11 211.349 Q2192.85 209.775 2192.85 206.742 Q2192.85 203.71 2191.11 202.182 Q2189.4 200.631 2186.02 200.631 L2180.14 200.631 Z" fill="#000000" fill-rule="evenodd" fill-opacity="1" /></svg>
